<?xml version="1.0" encoding="UTF-8"?>
<svg width="56px" height="56px" viewBox="6 4 50 50" version="1.1" xmlns="http://www.w3.org/2000/svg" xmlns:xlink="http://www.w3.org/1999/xlink">
    <!-- Generator: sketchtool 63.1 (101010) - https://sketch.com -->
    <title>71A28C62-483C-494E-AEBA-8D32C1106D0C</title>
    <desc>Created with sketchtool.</desc>
    <g id="Styleguide" stroke="none" stroke-width="1" fill="none" fill-rule="evenodd">
        <g transform="translate(-952.000000, -4999.000000)">
            <g id="Components" transform="translate(80.000000, 2634.000000)" fill-rule="nonzero">
                <g id="Cards" transform="translate(1.000000, 618.000000)">
                    <g id="Driver-Rate-Card" transform="translate(0.000000, 1633.000000)">
                        <g id="Driver-Card-/-Avatar-/-Adult-Male" transform="translate(871.000000, 114.000000)">
                            <g id="iconfinder_avatar_cute_panda_kid_style_smile_costume-17_1975149" transform="translate(7.000000, 8.000000)">
                                <g id="Group">
                                    <circle id="Oval" fill="#000000" cx="6.79105818" cy="5.87232249" r="5.5419148"></circle>
                                    <circle id="Oval" fill="#414042" cx="6.79105818" cy="5.87232249" r="2.7852863"></circle>
                                    <circle id="Oval" fill="#000000" cx="40.0530829" cy="5.87232249" r="5.5419148"></circle>
                                    <circle id="Oval" fill="#414042" cx="40.0530829" cy="5.87232249" r="2.7852863"></circle>
                                    <path d="M23.3898305,44.5186441 L23.3898305,27.859606 C12.6418873,27.859606 3.92907009,35.2625928 3.92907009,44.3951626 C3.92907009,44.4364636 3.93244159,44.4773431 3.93328447,44.5186441 L23.3898305,44.5186441 Z" id="Path" fill="#212121"></path>
                                    <path d="M42.8463765,44.5186441 C42.8472194,44.4773431 42.8505909,44.4364636 42.8505909,44.3951626 C42.8505909,35.2625928 34.1377737,27.859606 23.3898305,27.859606 L23.3898305,44.5186441 L42.8463765,44.5186441 Z" id="Path" fill="#000000"></path>
                                    <path d="M23.3898305,27.8591846 C16.8684929,27.8591846 11.1011086,30.5879982 7.56987632,34.7707742 C11.1011086,38.9548145 16.8684929,41.6832066 23.3898305,41.6832066 C29.9111681,41.6832066 35.6785525,38.954393 39.2097847,34.7707742 C35.6785525,30.5879982 29.9111681,27.8591846 23.3898305,27.8591846 Z" id="Path" fill="#000000"></path>
                                    <ellipse id="Oval" fill="#E6E7E8" cx="23.3898305" cy="19.8113972" rx="23.0973523" ry="19.6259643"></ellipse>
                                    <path d="M23.3898305,0.185011452 C36.1463491,0.185011452 46.4871828,8.97200183 46.4871828,19.8113972 C46.4871828,30.650371 36.1463491,39.43694 23.3898305,39.43694 L23.3898305,0.185011452 L23.3898305,0.185011452 Z" id="Path" fill="#BCBEC0"></path>
                                    <circle id="Oval" fill="#D1D3D4" cx="23.3898305" cy="25.9770408" r="8.00732936"></circle>
                                    <path d="M25.9184608,20.7006322 C25.9184608,21.5936601 24.7860559,22.3172698 23.3898305,22.3172698 C21.9936051,22.3172698 20.8612002,21.5936601 20.8612002,20.7006322 C20.8612002,19.8084471 25.9184608,19.8084471 25.9184608,20.7006322 Z" id="Path" fill="#000000"></path>
                                    <circle id="Oval" fill="#000000" cx="12.7232249" cy="15.4967109" r="6.41766377"></circle>
                                    <circle id="Oval" fill="#000000" cx="33.9628768" cy="15.4967109" r="6.41766377"></circle>
                                    <path d="M23.3898305,26.5746404 C23.0408795,26.5746404 22.7576729,26.2914338 22.7576729,25.9424828 L22.7576729,21.1751718 C22.7576729,20.8262208 23.0408795,20.5430142 23.3898305,20.5430142 C23.7387815,20.5430142 24.0219881,20.8262208 24.0219881,21.1751718 L24.0219881,25.9424828 C24.0219881,26.2914338 23.7387815,26.5746404 23.3898305,26.5746404 Z" id="Path" fill="#000000"></path>
                                    <g transform="translate(10.114521, 13.064590)" fill="#000000" id="Oval" stroke="#FFFFFF" stroke-width="0.842876775">
                                        <circle cx="2.80972973" cy="2.65042602" r="2.45825011"></circle>
                                        <circle cx="23.7408887" cy="2.65042602" r="2.45825011"></circle>
                                    </g>
                                    <g transform="translate(18.121851, 24.021988)" id="Path">
                                        <path d="M5.26797984,0.149189189 C5.26797984,0.149189189 5.06273935,2.50924416 2.90750344,2.50924416 C0.752267522,2.50924416 0.3084929,0.149189189 0.3084929,0.149189189 C0.3084929,0.149189189 -0.654915254,8.22142006 5.26797984,8.22142006 L5.26797984,0.149189189 Z" fill="#000000"></path>
                                        <path d="M5.26797984,0.149189189 C5.26797984,0.149189189 5.47322034,2.50924416 7.62845625,2.50924416 C9.78369217,2.50924416 10.2278882,0.149189189 10.2278882,0.149189189 C10.2278882,0.149189189 11.1908749,8.22142006 5.26797984,8.22142006 L5.26797984,0.149189189 Z" fill="#000000"></path>
                                        <path d="M9.13509849,6.20315163 C8.39631699,5.04588181 7.19985341,4.18488319 5.26797984,4.18488319 L5.26797984,8.22142006 C7.19985341,8.22142006 8.39631699,7.36042144 9.13509849,6.20315163 Z" fill="#F16F8E"></path>
                                        <path d="M1.4008612,6.20315163 C2.13964269,7.36042144 3.33610628,8.22142006 5.26797984,8.22142006 L5.26797984,4.18488319 C3.33610628,4.18488319 2.13964269,5.04588181 1.4008612,6.20315163 Z" fill="#CF5777"></path>
                                    </g>
                                </g>
                                <g id="Group" transform="translate(23.600550, 0.000000)" fill="#414042">
                                    <path d="M19.5635914,29.9941915 C4.78922584,22.4158864 2.02543289,6.62121851 1.52265689,0.18290426 L1.94957398,0.149610628 C2.44687128,6.51670179 5.17652771,22.1339441 19.7591388,29.6136326 L19.5635914,29.9941915 Z" id="Path"></path>
                                    <path d="M0.363701328,4.9337792 C0.363701328,4.9337792 0.578634906,4.77405405 0.920842877,4.58567109 C1.26262941,4.39518094 1.73000458,4.17476867 2.2100229,3.98680715 C2.69256986,3.80053138 3.18607421,3.64586349 3.56705451,3.55651855 C3.94550618,3.46380211 4.21269812,3.43767293 4.21269812,3.43767293 C4.21269812,3.43767293 3.99692167,3.59781951 3.65555657,3.78578104 C3.31419148,3.97627119 2.84597343,4.19668346 2.36553367,4.38464498 C1.88298672,4.57092075 1.38948236,4.7251672 1.00934494,4.8140907 C0.630471828,4.90722858 0.363701328,4.9337792 0.363701328,4.9337792 Z" id="Path"></path>
                                    <path d="M1.21922126,9.63787448 C1.21922126,9.63787448 1.49062758,9.47014201 1.91501603,9.27080165 C2.33771874,9.06977554 2.91382501,8.83545579 3.50173156,8.63316537 C4.09090243,8.43340357 4.68976638,8.26651397 5.14829134,8.16831883 C5.60597343,8.06548786 5.92331654,8.03430142 5.92331654,8.03430142 C5.92331654,8.03430142 5.65148878,8.2020339 5.22710032,8.39926706 C4.80397618,8.6028218 4.2278699,8.83587723 3.63954191,9.03774622 C3.05121393,9.23750802 2.4515071,9.40355474 1.99298213,9.50259276 C1.53614292,9.60500229 1.21922126,9.63787448 1.21922126,9.63787448 Z" id="Path"></path>
                                    <path d="M3.14266606,12.6309299 C3.14266606,12.6309299 3.29016949,12.4450756 3.54218965,12.212863 C3.79210261,11.9764361 4.1465323,11.6944938 4.51908383,11.4382593 C4.89458543,11.1853962 5.28820889,10.961191 5.59923042,10.8153733 C5.90856619,10.6666056 6.13614292,10.5995969 6.13614292,10.5995969 C6.13614292,10.5995969 5.98863949,10.7858727 5.73661933,11.0180852 C5.48712781,11.2545121 5.13227668,11.536033 4.75972515,11.7918461 C4.38422355,12.0438662 3.98975721,12.2693358 3.67873568,12.4143106 C3.37024279,12.5634998 3.14266606,12.6309299 3.14266606,12.6309299 Z" id="Path"></path>
                                    <path d="M7.3127989,20.540907 C7.3127989,20.540907 7.46830967,20.3841319 7.72538708,20.198699 C7.98162162,20.0094732 8.33984425,19.7903252 8.7136601,19.6019423 C9.08874027,19.416088 9.4777279,19.2601557 9.78411361,19.1687036 C10.0867064,19.07388 10.3054329,19.0448007 10.3054329,19.0448007 C10.3054329,19.0448007 10.1511864,19.2028401 9.89284471,19.388273 C9.63703161,19.5770774 9.27838754,19.7958039 8.90457169,19.9846083 C8.52991296,20.1700412 8.13966102,20.3247091 7.83453962,20.4170041 C7.53068255,20.5122492 7.3127989,20.540907 7.3127989,20.540907 Z" id="Path"></path>
                                    <path d="M10.3050115,24.282437 C10.3050115,24.282437 10.3791846,24.0426386 10.5376454,23.7139166 C10.6931562,23.3835089 10.9308475,22.962492 11.1963536,22.5617041 C11.4652313,22.1600733 11.7606596,21.7786716 12.0072011,21.5081081 C12.2491067,21.2362803 12.4438113,21.0752909 12.4438113,21.0752909 C12.4438113,21.0752909 12.3696381,21.3167751 12.2111773,21.645497 C12.0556665,21.9767476 11.8179753,22.3965002 11.5524691,22.798131 C11.2831699,23.198076 10.9868988,23.5794778 10.7416216,23.8491984 C10.4988731,24.1222904 10.3050115,24.282437 10.3050115,24.282437 Z" id="Path"></path>
                                    <path d="M13.8337151,27.4900046 C13.8337151,27.4900046 13.8556299,27.2788639 13.9407604,26.9863857 C14.0212552,26.6926432 14.1628585,26.3162987 14.3356482,25.9547045 C14.5109666,25.5947962 14.7162071,25.2487952 14.8953184,25.0018323 C15.0719011,24.7531837 15.222776,24.6044159 15.222776,24.6044159 C15.222776,24.6044159 15.2008612,24.8151351 15.116995,25.1084563 C15.0348145,25.4021988 14.8927897,25.7781219 14.7204214,26.1401374 C14.5455245,26.5000458 14.3398626,26.8452038 14.1607513,27.0925882 C13.9850115,27.340394 13.8337151,27.4900046 13.8337151,27.4900046 Z" id="Path"></path>
                                    <path d="M16.5056344,29.9486761 C16.5056344,29.9486761 16.6371232,29.7291067 16.8739716,29.4416858 C17.107027,29.1513147 17.4437563,28.7909849 17.8032432,28.4550985 C18.1652588,28.1217407 18.5496106,27.8136693 18.8576821,27.6033715 C19.1628035,27.3901237 19.3929088,27.2759139 19.3929088,27.2759139 C19.3929088,27.2759139 19.2605772,27.4954833 19.0241503,27.7833257 C18.7906734,28.0741182 18.4543656,28.4336051 18.0940357,28.7694915 C17.732863,29.1020064 17.3476683,29.4100779 17.0404398,29.6203756 C16.7340541,29.8340449 16.5056344,29.9486761 16.5056344,29.9486761 Z" id="Path"></path>
                                </g>
                                <g id="Group" transform="translate(6.743014, 34.979386)" fill="#F26522">
                                    <path d="M1.44005497,2.48648649 C0.781768209,2.48648649 0.24569858,1.9508383 0.24569858,1.2921301 C0.24569858,0.633421896 0.78134677,0.0986165827 1.44005497,0.0986165827 C2.09876317,0.0986165827 2.63441136,0.633843335 2.63441136,1.2921301 C2.63441136,1.95041686 2.09834173,2.48648649 1.44005497,2.48648649 Z M1.44005497,0.52005497 C1.01355932,0.52005497 0.667136967,0.866477325 0.667136967,1.2921301 C0.667136967,1.71862574 1.01355932,2.0650481 1.44005497,2.0650481 C1.86655062,2.0650481 2.21297297,1.71862574 2.21297297,1.2921301 C2.21297297,0.866898763 1.86655062,0.52005497 1.44005497,0.52005497 Z" id="Shape"></path>
                                    <path d="M2.9850481,3.89156207 C2.32676134,3.89156207 1.79111315,3.35591388 1.79111315,2.69720568 C1.79111315,2.03849748 2.32676134,1.50284929 2.9850481,1.50284929 C3.64333486,1.50284929 4.17940449,2.03849748 4.17940449,2.69720568 C4.17940449,3.35591388 3.6437563,3.89156207 2.9850481,3.89156207 Z M2.9850481,1.92428768 C2.55897389,1.92428768 2.21255153,2.27071003 2.21255153,2.69720568 C2.21255153,3.12370133 2.55897389,3.47012368 2.9850481,3.47012368 C3.41154375,3.47012368 3.7579661,3.12370133 3.7579661,2.69720568 C3.7579661,2.27071003 3.41154375,1.92428768 2.9850481,1.92428768 Z" id="Shape"></path>
                                    <path d="M4.60084288,5.01511681 C3.94255612,5.01511681 3.40648649,4.47946862 3.40648649,3.82076042 C3.40648649,3.16205222 3.94213468,2.62640403 4.60084288,2.62640403 C5.25955108,2.62640403 5.79519927,3.16205222 5.79519927,3.82076042 C5.79519927,4.47946862 5.25912964,5.01511681 4.60084288,5.01511681 Z M4.60084288,3.04784242 C4.17434723,3.04784242 3.82792487,3.39426477 3.82792487,3.82076042 C3.82792487,4.24725607 4.17434723,4.59367842 4.60084288,4.59367842 C5.02733852,4.59367842 5.37376088,4.24725607 5.37376088,3.82076042 C5.37376088,3.39426477 5.02733852,3.04784242 4.60084288,3.04784242 Z" id="Shape"></path>
                                    <path d="M6.14625744,6.06871278 C5.48797068,6.06871278 4.95232249,5.53306459 4.95232249,4.87435639 C4.95232249,4.21564819 5.48797068,3.68 6.14625744,3.68 C6.80454421,3.68 7.3401924,4.21564819 7.3401924,4.87435639 C7.3401924,5.53306459 6.80454421,6.06871278 6.14625744,6.06871278 Z M6.14625744,4.10143839 C5.72018323,4.10143839 5.37376088,4.44786074 5.37376088,4.87435639 C5.37376088,5.30085204 5.72018323,5.64727439 6.14625744,5.64727439 C6.57233165,5.64727439 6.91875401,5.30085204 6.91875401,4.87435639 C6.91875401,4.44786074 6.57233165,4.10143839 6.14625744,4.10143839 Z" id="Shape"></path>
                                    <path d="M7.9023912,6.98154833 C7.24410444,6.98154833 6.70803481,6.44632158 6.70803481,5.78803481 C6.70803481,5.12974805 7.24368301,4.59367842 7.9023912,4.59367842 C8.5610994,4.59367842 9.09590472,5.12932661 9.09590472,5.78803481 C9.09590472,6.44674301 8.56067797,6.98154833 7.9023912,6.98154833 Z M7.9023912,5.01511681 C7.47589556,5.01511681 7.1294732,5.36153917 7.1294732,5.78803481 C7.1294732,6.21368759 7.47589556,6.56010994 7.9023912,6.56010994 C8.32846541,6.56010994 8.67446633,6.21368759 8.67446633,5.78803481 C8.67446633,5.3619606 8.32846541,5.01511681 7.9023912,5.01511681 Z" id="Shape"></path>
                                    <path d="M9.79886395,7.8244251 C9.14057719,7.8244251 8.60450756,7.28919835 8.60450756,6.63091159 C8.60450756,5.97262483 9.14015575,5.4365552 9.79886395,5.4365552 C10.4575721,5.4365552 10.9923775,5.97220339 10.9923775,6.63091159 C10.9923775,7.28961979 10.4571507,7.8244251 9.79886395,7.8244251 Z M9.79886395,5.85799359 C9.3723683,5.85799359 9.02594595,6.20441594 9.02594595,6.63091159 C9.02594595,7.05656436 9.3723683,7.40298672 9.79886395,7.40298672 C10.2245167,7.40298672 10.5709391,7.05656436 10.5709391,6.63091159 C10.5709391,6.20483738 10.2245167,5.85799359 9.79886395,5.85799359 Z" id="Shape"></path>
                                    <path d="M11.7652955,8.31666514 C11.1070087,8.31666514 10.5709391,7.78101695 10.5709391,7.12230875 C10.5709391,6.46360055 11.1065873,5.92795236 11.7652955,5.92795236 C12.4240037,5.92795236 12.9596519,6.46360055 12.9596519,7.12230875 C12.9596519,7.78101695 12.4235822,8.31666514 11.7652955,8.31666514 Z M11.7652955,6.34939075 C11.3387998,6.34939075 10.9923775,6.6958131 10.9923775,7.12230875 C10.9923775,7.5488044 11.3387998,7.89522675 11.7652955,7.89522675 C12.1917911,7.89522675 12.5382135,7.5488044 12.5382135,7.12230875 C12.5382135,6.6958131 12.1917911,6.34939075 11.7652955,6.34939075 Z" id="Shape"></path>
                                    <path d="M13.6617682,8.52738433 C13.0034814,8.52738433 12.4674118,7.99173614 12.4674118,7.33302794 C12.4674118,6.67431974 13.00306,6.13867155 13.6617682,6.13867155 C14.3204764,6.13867155 14.8561246,6.67431974 14.8561246,7.33302794 C14.8561246,7.99173614 14.320055,8.52738433 13.6617682,8.52738433 Z M13.6617682,6.56010994 C13.2352726,6.56010994 12.8888502,6.9065323 12.8888502,7.33302794 C12.8888502,7.75952359 13.2352726,8.10594595 13.6617682,8.10594595 C14.0882639,8.10594595 14.4346862,7.75952359 14.4346862,7.33302794 C14.4346862,6.9065323 14.0882639,6.56010994 13.6617682,6.56010994 Z" id="Shape"></path>
                                    <path d="M15.6281997,8.73810353 C14.969913,8.73810353 14.4346862,8.20245534 14.4346862,7.54374714 C14.4346862,6.88503894 14.969913,6.34939075 15.6281997,6.34939075 C16.2864865,6.34939075 16.8225561,6.88503894 16.8225561,7.54374714 C16.8225561,8.20245534 16.2869079,8.73810353 15.6281997,8.73810353 Z M15.6281997,6.77082913 C15.202547,6.77082913 14.8561246,7.11725149 14.8561246,7.54374714 C14.8561246,7.97024279 15.202547,8.31666514 15.6281997,8.31666514 C16.0546954,8.31666514 16.4011177,7.97024279 16.4011177,7.54374714 C16.4011177,7.11725149 16.0546954,6.77082913 15.6281997,6.77082913 Z" id="Shape"></path>
                                    <path d="M31.8535776,2.48648649 C31.1952909,2.48648649 30.6600641,1.9508383 30.6600641,1.2921301 C30.6600641,0.633421896 31.1952909,0.0986165827 31.8535776,0.0986165827 C32.5118644,0.0986165827 33.047934,0.633843335 33.047934,1.2921301 C33.047934,1.95041686 32.5122858,2.48648649 31.8535776,2.48648649 Z M31.8535776,0.52005497 C31.4279249,0.52005497 31.0815025,0.866477325 31.0815025,1.2921301 C31.0815025,1.71862574 31.4279249,2.0650481 31.8535776,2.0650481 C32.2800733,2.0650481 32.6264956,1.71862574 32.6264956,1.2921301 C32.6264956,0.866898763 32.2800733,0.52005497 31.8535776,0.52005497 Z" id="Shape"></path>
                                    <path d="M30.3085845,3.89156207 C29.6502978,3.89156207 29.1142281,3.35591388 29.1142281,2.69720568 C29.1142281,2.03849748 29.6498763,1.50284929 30.3085845,1.50284929 C30.9672927,1.50284929 31.5029409,2.03849748 31.5029409,2.69720568 C31.5029409,3.35591388 30.9668713,3.89156207 30.3085845,3.89156207 Z M30.3085845,1.92428768 C29.8820889,1.92428768 29.5356665,2.27071003 29.5356665,2.69720568 C29.5356665,3.12370133 29.8820889,3.47012368 30.3085845,3.47012368 C30.7350802,3.47012368 31.0815025,3.12370133 31.0815025,2.69720568 C31.0815025,2.27071003 30.7350802,1.92428768 30.3085845,1.92428768 Z" id="Shape"></path>
                                    <path d="M28.6927897,5.01511681 C28.034503,5.01511681 27.4992762,4.47946862 27.4992762,3.82076042 C27.4992762,3.16205222 28.034503,2.62640403 28.6927897,2.62640403 C29.3510765,2.62640403 29.8871461,3.16205222 29.8871461,3.82076042 C29.8871461,4.47946862 29.3514979,5.01511681 28.6927897,5.01511681 Z M28.6927897,3.04784242 C28.267137,3.04784242 27.9207146,3.39426477 27.9207146,3.82076042 C27.9207146,4.24725607 28.267137,4.59367842 28.6927897,4.59367842 C29.1192854,4.59367842 29.4657077,4.24725607 29.4657077,3.82076042 C29.4657077,3.39426477 29.1192854,3.04784242 28.6927897,3.04784242 Z" id="Shape"></path>
                                    <path d="M27.1477966,6.06871278 C26.4895098,6.06871278 25.9534402,5.53306459 25.9534402,4.87435639 C25.9534402,4.21564819 26.4890884,3.68 27.1477966,3.68 C27.8065048,3.68 28.342153,4.21564819 28.342153,4.87435639 C28.342153,5.53306459 27.8060834,6.06871278 27.1477966,6.06871278 Z M27.1477966,4.10143839 C26.721301,4.10143839 26.3748786,4.44786074 26.3748786,4.87435639 C26.3748786,5.30085204 26.721301,5.64727439 27.1477966,5.64727439 C27.5742923,5.64727439 27.9207146,5.30085204 27.9207146,4.87435639 C27.9207146,4.44786074 27.5742923,4.10143839 27.1477966,4.10143839 Z" id="Shape"></path>
                                    <path d="M25.3920843,6.98154833 C24.7337975,6.98154833 24.1977279,6.44632158 24.1977279,5.78803481 C24.1977279,5.12974805 24.7333761,4.59367842 25.3920843,4.59367842 C26.0507925,4.59367842 26.5855978,5.12932661 26.5855978,5.78803481 C26.5855978,6.44674301 26.050371,6.98154833 25.3920843,6.98154833 Z M25.3920843,5.01511681 C24.9655886,5.01511681 24.6191663,5.36153917 24.6191663,5.78803481 C24.6191663,6.21368759 24.9655886,6.56010994 25.3920843,6.56010994 C25.8177371,6.56010994 26.1641594,6.21368759 26.1641594,5.78803481 C26.1641594,5.3619606 25.8177371,5.01511681 25.3920843,5.01511681 Z" id="Shape"></path>
                                    <path d="M23.4956115,7.8244251 C22.8373248,7.8244251 22.3012552,7.28919835 22.3012552,6.63091159 C22.3012552,5.97262483 22.8369033,5.4365552 23.4956115,5.4365552 C24.1543197,5.4365552 24.6891251,5.97220339 24.6891251,6.63091159 C24.6891251,7.28961979 24.1538983,7.8244251 23.4956115,7.8244251 Z M23.4956115,5.85799359 C23.0691159,5.85799359 22.7226935,6.20441594 22.7226935,6.63091159 C22.7226935,7.05656436 23.0691159,7.40298672 23.4956115,7.40298672 C23.9212643,7.40298672 24.2676867,7.05656436 24.2676867,6.63091159 C24.2676867,6.20483738 23.9212643,5.85799359 23.4956115,5.85799359 Z" id="Shape"></path>
                                    <path d="M21.5283372,8.31666514 C20.8700504,8.31666514 20.3348236,7.78101695 20.3348236,7.12230875 C20.3348236,6.46360055 20.8700504,5.92795236 21.5283372,5.92795236 C22.1866239,5.92795236 22.7226935,6.46360055 22.7226935,7.12230875 C22.7226935,7.78101695 22.1870454,8.31666514 21.5283372,8.31666514 Z M21.5283372,6.34939075 C21.1026844,6.34939075 20.756262,6.6958131 20.756262,7.12230875 C20.756262,7.5488044 21.1026844,7.89522675 21.5283372,7.89522675 C21.9548328,7.89522675 22.3012552,7.5488044 22.3012552,7.12230875 C22.3012552,6.6958131 21.9548328,6.34939075 21.5283372,6.34939075 Z" id="Shape"></path>
                                    <path d="M19.6318644,8.52738433 C18.9735776,8.52738433 18.4383509,7.99173614 18.4383509,7.33302794 C18.4383509,6.67431974 18.9735776,6.13867155 19.6318644,6.13867155 C20.2901512,6.13867155 20.8262208,6.67431974 20.8262208,7.33302794 C20.8262208,7.99173614 20.2905726,8.52738433 19.6318644,8.52738433 Z M19.6318644,6.56010994 C19.2062116,6.56010994 18.8597893,6.9065323 18.8597893,7.33302794 C18.8597893,7.75952359 19.2062116,8.10594595 19.6318644,8.10594595 C20.0583601,8.10594595 20.4047824,7.75952359 20.4047824,7.33302794 C20.4047824,6.9065323 20.0583601,6.56010994 19.6318644,6.56010994 Z" id="Shape"></path>
                                    <path d="M17.6654329,8.73810353 C17.0071461,8.73810353 16.4710765,8.20245534 16.4710765,7.54374714 C16.4710765,6.88503894 17.0067247,6.34939075 17.6654329,6.34939075 C18.3241411,6.34939075 18.8597893,6.88503894 18.8597893,7.54374714 C18.8597893,8.20245534 18.3237197,8.73810353 17.6654329,8.73810353 Z M17.6654329,6.77082913 C17.2389372,6.77082913 16.8925149,7.11725149 16.8925149,7.54374714 C16.8925149,7.97024279 17.2389372,8.31666514 17.6654329,8.31666514 C18.0919285,8.31666514 18.4383509,7.97024279 18.4383509,7.54374714 C18.4383509,7.11725149 18.0919285,6.77082913 17.6654329,6.77082913 Z" id="Shape"></path>
                                </g>
                            </g>
                        </g>
                    </g>
                </g>
            </g>
        </g>
    </g>
</svg>
