<?xml version="1.0" encoding="UTF-8"?>
<svg width="60px" height="60px" viewBox="6 4 50 50" version="1.1" xmlns="http://www.w3.org/2000/svg" xmlns:xlink="http://www.w3.org/1999/xlink">
    <!-- Generator: sketchtool 63.1 (101010) - https://sketch.com -->
    <title>10650FCA-6400-426A-A6CC-3850129F4E1C</title>
    <desc>Created with sketchtool.</desc>
    <g id="Styleguide" stroke="none" stroke-width="1" fill="none" fill-rule="evenodd">
        <g transform="translate(-845.000000, -4999.000000)">
            <g id="Components" transform="translate(80.000000, 2634.000000)" fill-rule="nonzero">
                <g id="Cards" transform="translate(1.000000, 618.000000)">
                    <g id="Driver-Rate-Card" transform="translate(0.000000, 1633.000000)">
                        <g id="Driver-Card-/-Avatar-/-Adult-Female" transform="translate(764.000000, 114.000000)">
                            <g id="iconfinder_avatar_cute_panda_kid_style_smile_costume-29_1975153" transform="translate(7.000000, 7.000000)">
                                <path d="M22.7328081,45.7155291 L22.7328081,29.0564911 C11.9852863,29.0564911 3.27246908,36.4603207 3.27246908,45.5920476 C3.27246908,45.6341915 3.27584059,45.6742281 3.27584059,45.7155291 L22.7328081,45.7155291 Z" id="Path" fill="#006838"></path>
                                <path d="M42.1897755,45.7155291 C42.1897755,45.6742281 42.193147,45.6341915 42.193147,45.5920476 C42.193147,36.4603207 33.4803298,29.0564911 22.7328081,29.0564911 L22.7328081,45.7155291 L42.1897755,45.7155291 Z" id="Path" fill="#006838"></path>
                                <path d="M22.7328081,29.0560696 C16.2114705,29.0560696 10.4440861,31.7848832 6.91243243,35.9685021 C10.4440861,40.1516995 16.2114705,42.8800916 22.7328081,42.8800916 C29.2541457,42.8800916 35.02153,40.1512781 38.5531837,35.9685021 C35.0219514,31.7848832 29.2541457,29.0560696 22.7328081,29.0560696 Z" id="Path" fill="#BC1F3A"></path>
                                <g id="Group" transform="translate(6.321576, 34.557948)" fill="#262262">
                                    <ellipse id="Oval" cx="1.4678699" cy="1.61663765" rx="1.26515804" ry="1.22385708"></ellipse>
                                    <ellipse id="Oval" cx="4.21480531" cy="3.28089785" rx="1.26515804" ry="1.22469995"></ellipse>
                                    <ellipse id="Oval" cx="7.33344938" cy="4.92619331" rx="1.26515804" ry="1.22469995"></ellipse>
                                    <ellipse id="Oval" cx="10.9561338" cy="5.82048557" rx="1.26515804" ry="1.22469995"></ellipse>
                                    <ellipse id="Oval" cx="14.5269812" cy="6.32831883" rx="1.26515804" ry="1.22469995"></ellipse>
                                    <ellipse id="Oval" cx="18.307705" cy="6.49773706" rx="1.26515804" ry="1.22469995"></ellipse>
                                    <ellipse id="Oval" cx="21.2712597" cy="5.90772332" rx="1.26515804" ry="1.22385708"></ellipse>
                                    <ellipse id="Oval" cx="24.8855153" cy="4.97803023" rx="1.26515804" ry="1.22385708"></ellipse>
                                    <ellipse id="Oval" cx="28.2561796" cy="3.43725149" rx="1.26515804" ry="1.22385708"></ellipse>
                                    <ellipse id="Oval" cx="30.9795144" cy="1.41097572" rx="1.26515804" ry="1.22385708"></ellipse>
                                </g>
                                <path d="M43.2530646,29.217902 C43.1776271,29.4779295 42.7566102,34.5073752 43.2530646,35.921301 C43.749519,37.3360696 42.1295098,35.921301 42.1295098,35.921301 L40.2275584,38.0027852 L38.4452955,37.7971232 L37.5636464,35.921301 L40.4555566,28.0644251 L43.2530646,29.217902 Z" id="Path" fill="#FBB040"></path>
                                <path d="M3.5185891,27.4638754 C3.62647732,27.7239029 4.23081997,32.7525057 3.5185891,34.1672744 C2.80593678,35.5812002 5.13143381,34.1672744 5.13143381,34.1672744 L7.862776,36.2487586 L10.4225928,36.0422538 L11.6881722,34.1672744 L7.53531837,26.3095557 L3.5185891,27.4638754 Z" id="Path" fill="#FBB040"></path>
                                <circle id="Oval" fill="#000000" cx="6.76661475" cy="5.8866514" r="5.5419148"></circle>
                                <circle id="Oval" fill="#414042" cx="6.76661475" cy="5.8866514" r="2.7852863"></circle>
                                <circle id="Oval" fill="#000000" cx="40.028218" cy="5.8866514" r="5.5419148"></circle>
                                <circle id="Oval" fill="#414042" cx="40.028218" cy="5.8866514" r="2.7852863"></circle>
                                <ellipse id="Oval" fill="#E6E7E8" cx="23.3649656" cy="19.8257261" rx="23.0973523" ry="19.6259643"></ellipse>
                                <path d="M23.3649656,0.199761796 C36.1214842,0.199761796 46.4623179,8.98675218 46.4623179,19.8261475 C46.4623179,30.6651214 36.1214842,39.4516903 23.3649656,39.4516903 L23.3649656,0.199761796 L23.3649656,0.199761796 Z" id="Path" fill="#BCBEC0"></path>
                                <circle id="Oval" fill="#D1D3D4" cx="23.3649656" cy="25.9913697" r="8.00732936"></circle>
                                <path d="M25.893596,20.7149611 C25.893596,21.607989 24.761191,22.3315987 23.3649656,22.3315987 C21.9687403,22.3315987 20.8363353,21.607989 20.8363353,20.7149611 C20.8363353,19.822776 25.893596,19.822776 25.893596,20.7149611 Z" id="Path" fill="#000000"></path>
                                <circle id="Oval" fill="#000000" cx="12.6983601" cy="15.5114613" r="6.41766377"></circle>
                                <circle id="Oval" fill="#000000" cx="33.9384333" cy="15.5114613" r="6.41766377"></circle>
                                <path d="M23.3649656,26.5889693 C23.0160147,26.5889693 22.7328081,26.3057627 22.7328081,25.9568117 L22.7328081,21.1890792 C22.7328081,20.8401283 23.0160147,20.5569217 23.3649656,20.5569217 C23.7139166,20.5569217 23.9971232,20.8401283 23.9971232,21.1890792 L23.9971232,25.9563903 C23.9971232,26.3057627 23.7143381,26.5889693 23.3649656,26.5889693 Z" id="Path" fill="#000000"></path>
                                <g id="Group" transform="translate(10.114521, 13.064590)" fill="#000000" stroke="#FFFFFF" stroke-width="0.842876775">
                                    <circle id="Oval" cx="2.78486486" cy="2.66475492" r="2.45825011"></circle>
                                    <circle id="Oval" cx="23.7164453" cy="2.66475492" r="2.45825011"></circle>
                                </g>
                                <g id="Group" transform="translate(18.121851, 24.021988)">
                                    <path d="M5.24311498,0.163518094 C5.24311498,0.163518094 5.03787448,2.52357306 2.88263857,2.52357306 C0.727402657,2.52357306 0.283628035,0.163518094 0.283628035,0.163518094 C0.283628035,0.163518094 -0.679780119,8.23574897 5.24311498,8.23574897 L5.24311498,0.163518094 Z" id="Path" fill="#000000"></path>
                                    <path d="M5.24311498,0.163518094 C5.24311498,0.163518094 5.44835547,2.52357306 7.60359139,2.52357306 C9.7588273,2.52357306 10.2030234,0.163518094 10.2030234,0.163518094 C10.2030234,0.163518094 11.1660101,8.23574897 5.24311498,8.23574897 L5.24311498,0.163518094 Z" id="Path" fill="#000000"></path>
                                    <path d="M9.11023362,6.21748053 C8.37145213,5.06021072 7.17498855,4.19921209 5.24311498,4.19921209 L5.24311498,8.23574897 C7.17498855,8.23574897 8.37145213,7.37475034 9.11023362,6.21748053 Z" id="Path" fill="#F16F8E"></path>
                                    <path d="M1.37641777,6.21748053 C2.11519927,7.37475034 3.31166285,8.23574897 5.24353642,8.23574897 L5.24353642,4.19921209 C3.31124141,4.19921209 2.11519927,5.06021072 1.37641777,6.21748053 Z" id="Path" fill="#CF5777"></path>
                                </g>
                                <path d="M39.1474118,12.8846358 C39.1474118,12.8846358 40.0728905,12.9234082 40.429006,12.0257444 C40.7847,11.1289235 43.1413834,14.0692991 39.7879982,15.2172973 L39.1474118,12.8846358 Z" id="Path" fill="#414042"></path>
                                <ellipse id="Oval" fill="#F16F8E" cx="11.0648649" cy="24.1855062" rx="2.19611544" ry="1.39748969"></ellipse>
                                <ellipse id="Oval" fill="#F16F8E" cx="34.9136418" cy="24.1855062" rx="2.195694" ry="1.39748969"></ellipse>
                                <path d="M7.48938158,12.8846358 C7.48938158,12.8846358 6.56390289,12.9234082 6.20820889,12.0257444 C5.85209345,11.1289235 3.49540999,14.0692991 6.84879524,15.2172973 L7.48938158,12.8846358 Z" id="Path" fill="#414042"></path>
                                <path d="M23.5769492,0.270984883 C23.5769492,0.270984883 31.6323225,10.5667247 38.1448099,11.2161612 C44.6572973,11.8664407 44.2961246,11.2161612 44.2961246,11.2161612 C44.2961246,11.2161612 38.6926798,0.142446175 23.5769492,0.270984883 Z" id="Path" fill="#FBB040"></path>
                                <path d="M23.1213743,0.270984883 C23.1213743,0.270984883 20.8814292,4.48789739 11.8837197,7.45861658 C2.88601008,10.4284929 2.88601008,10.4284929 2.88601008,10.4284929 C2.88601008,10.4284929 8.03387998,0.142446175 23.1213743,0.270984883 Z" id="Path" fill="#FBB040"></path>
                            </g>
                        </g>
                    </g>
                </g>
            </g>
        </g>
    </g>
</svg>
