<?xml version="1.0" encoding="UTF-8"?>
<svg width="23px" height="23px" viewBox="0 0 23 23" version="1.1" xmlns="http://www.w3.org/2000/svg" xmlns:xlink="http://www.w3.org/1999/xlink">
    <!-- Generator: Sketch 63.1 (92452) - https://sketch.com -->
    <title>calendar-icon</title>
    <desc>Created with Sketch.</desc>
    <g id="Wizard" stroke="none" stroke-width="1" fill="none" fill-rule="evenodd">
        <g id="Quote" transform="translate(-774.000000, -638.000000)" fill="#197BBD" fill-rule="nonzero">
            <g id="Overview">
                <g id="Content" transform="translate(189.000000, 214.000000)">
                    <g id="Pay-box" transform="translate(545.000000, 0.000000)">
                        <g id="Discounts" transform="translate(40.000000, 424.000000)">
                            <g id="calendar-icon">
                                <g id="Group">
                                    <path d="M14.2746032,3.7968254 C14.2746032,3.32222222 14.2746032,2.88412698 14.2746032,2.40952381 L14.2746032,2.15396825 C14.2380952,2.15396825 8.3968254,2.15396825 8.3968254,2.15396825 L8.3968254,2.40952381 C8.3968254,2.88412698 8.3968254,3.32222222 8.3968254,3.7968254 L14.2746032,3.7968254 Z" id="Path"></path>
                                    <path d="M20.4079365,2.15396825 C19.9698413,2.08095238 19.531746,2.11746032 19.0936508,2.11746032 C18.8380952,2.11746032 17.7428571,2.11746032 17.3777778,2.11746032 C17.3777778,1.86190476 17.3777778,1.60634921 17.3777778,1.31428571 C17.3777778,0.657142857 16.8666667,0.219047619 16.2825397,0.401587302 C15.9174603,0.511111111 15.6984127,0.803174603 15.6619048,1.13174603 C15.6619048,1.56984127 15.6619048,2.04444444 15.6619048,2.48253968 C15.6619048,2.95714286 15.6619048,3.3952381 15.6619048,3.86984127 C15.6619048,4.27142857 15.9904762,4.6 16.3920635,4.63650794 C16.8301587,4.67301587 17.1952381,4.45396825 17.3412698,4.05238095 C17.3777778,3.94285714 17.3777778,3.83333333 17.4142857,3.68730159 L19.8603175,3.68730159 C20.5174603,3.68730159 20.8825397,4.05238095 20.8825397,4.70952381 L20.8825397,6.38888889 L1.78888889,6.38888889 L1.78888889,4.70952381 C1.78888889,4.05238095 2.15396825,3.68730159 2.81111111,3.68730159 L5.25714286,3.68730159 C5.25714286,3.7968254 5.29365079,3.90634921 5.33015873,4.05238095 C5.43968254,4.45396825 5.84126984,4.67301587 6.27936508,4.63650794 C6.64444444,4.6 6.97301587,4.27142857 7.00952381,3.86984127 C7.00952381,3.3952381 7.00952381,2.95714286 7.00952381,2.48253968 C7.00952381,2.04444444 7.00952381,1.56984127 7.00952381,1.13174603 C7.00952381,0.766666667 6.75396825,0.474603175 6.38888889,0.401587302 C5.8047619,0.219047619 5.29365079,0.657142857 5.29365079,1.31428571 C5.29365079,1.56984127 5.29365079,1.82539683 5.29365079,2.11746032 C4.92857143,2.11746032 3.83333333,2.11746032 3.57777778,2.11746032 C3.13968254,2.11746032 2.7015873,2.08095238 2.26349206,2.15396825 C0.949206349,2.37301587 0.10952381,3.43174603 0.10952381,4.78253968 L0.10952381,20.2619048 C0.10952381,21.831746 1.24126984,22.9634921 2.81111111,22.9634921 C5.65873016,22.9634921 8.54285714,22.9634921 11.3904762,22.9634921 L11.3904762,22.9634921 C14.2380952,22.9634921 17.0857143,22.9634921 19.9698413,22.9634921 C21.5396825,22.9634921 22.6349206,21.831746 22.6714286,20.2619048 L22.6714286,4.81904762 C22.5619048,3.46825397 21.7222222,2.40952381 20.4079365,2.15396825 Z M20.8460317,20.2619048 C20.8460317,20.9190476 20.4809524,21.284127 19.8238095,21.284127 L11.3174603,21.284127 L11.3174603,21.284127 L2.81111111,21.284127 C2.15396825,21.284127 1.78888889,20.9190476 1.78888889,20.2619048 L1.78888889,7.88571429 L20.8460317,7.88571429 L20.8460317,20.2619048 Z" id="Shape"></path>
                                </g>
                                <path d="M6.4984127,14.2746032 C6.35238095,14.6761905 6.46190476,15.0777778 6.75396825,15.3698413 C7.66666667,16.2825397 8.25079365,16.8666667 9.16349206,17.7793651 C9.27301587,17.8888889 9.41904762,17.9984127 9.56507937,18.0349206 C9.96666667,18.1809524 10.368254,18.0714286 10.6603175,17.7428571 C11.3904762,17.0126984 12.2666667,16.1730159 13.2888889,15.1873016 C14.1285714,14.384127 15.0777778,13.4349206 15.8809524,12.668254 C15.9174603,12.631746 15.9539683,12.5952381 15.9539683,12.5952381 C16.2460317,12.2666667 16.2825397,11.7555556 16.0634921,11.3539683 C15.8809524,11.0619048 15.552381,10.8793651 15.1873016,10.8793651 C14.8952381,10.8793651 14.6396825,10.9888889 14.4571429,11.1714286 C13.8,11.8285714 12.9238095,12.668254 12.3031746,13.2888889 L12.1936508,13.3984127 C11.5,14.0555556 10.7333333,14.7857143 10.0761905,15.4428571 L9.89365079,15.6253968 L8.21428571,13.9095238 C7.9952381,13.6904762 7.73968254,13.5809524 7.48412698,13.5809524 C7.44761905,13.5809524 7.41111111,13.5809524 7.41111111,13.5809524 C6.97301587,13.6539683 6.64444444,13.8730159 6.4984127,14.2746032 Z" id="Path"></path>
                            </g>
                        </g>
                    </g>
                </g>
            </g>
        </g>
    </g>
</svg>