<?xml version="1.0" encoding="UTF-8"?>
<svg width="44px" height="24px" viewBox="0 0 44 24" version="1.1" xmlns="http://www.w3.org/2000/svg" xmlns:xlink="http://www.w3.org/1999/xlink">
    <title>C1EB885F-1AA6-4AD6-AAAD-CA959011D975</title>
    <g id="Monitored-Driver" stroke="none" stroke-width="1" fill="none" fill-rule="evenodd">
        <g id="Road_Monitor_03" transform="translate(-447.000000, -1398.000000)" fill="#F16322" fill-rule="nonzero">
            <g id="iconfinder_3435237_car_road_sedan_transport_transportation_icon-copy" transform="translate(447.000000, 1398.000000)">
                <path d="M30.5,15.7500477 C30.4946142,16.1620097 30.1619621,16.4946619 29.75,16.5000477 L14.75,16.5000477 C14.3357864,16.5000477 14,16.1642612 14,15.7500477 C14,15.3358341 14.3357864,15.0000477 14.75,15.0000477 L29.75,15.0000477 C30.1619621,15.0054335 30.4946142,15.3380856 30.5,15.7500477 Z" id="Path"></path>
                <path d="M41.35,9.67004768 L35.05,8.27004768 C34.4480275,8.1372125 33.8964431,7.83540216 33.46,7.40004768 L27.16,1.10004768 C26.4567929,0.397512799 25.5040079,0.00201713051 24.51,2.37152638e-05 L13.41,2.37152638e-05 C12.1190067,-0.00456478479 10.916915,0.656963663 10.23,1.75004768 L7,6.94004768 C6.58770623,7.59803786 5.86648835,7.9982949 5.09,8.00004768 L2.75,8.00004768 C1.23121694,8.00004768 0,9.23126462 0,10.7500477 L0,17.7500477 C0.00266112088,18.0944197 0.236550616,18.3939624 0.57,18.4800477 L4.06,19.3500477 C4.36130488,21.6795829 6.32649522,23.4350721 8.67513361,23.4727105 C11.023772,23.510349 13.0442044,21.8187319 13.42,19.5000477 L30.75,19.5000477 C30.8614201,19.4985027 30.9709611,19.4711175 31.07,19.4200477 C31.3864655,21.7848827 33.4179515,23.5416741 35.8037031,23.5136664 C38.1894547,23.4856586 40.1791385,21.6816603 40.44,19.3100477 L42.99,18.4600477 C43.2946115,18.3571621 43.5,18.0715653 43.5,17.7500477 L43.5,12.3500477 C43.5020088,11.0625279 42.6073186,9.94728611 41.35,9.67004768 Z M8.75,22.0000477 C6.95507456,22.0000477 5.5,20.5449731 5.5,18.7500477 C5.5,16.9551222 6.95507456,15.5000477 8.75,15.5000477 C10.5449254,15.5000477 12,16.9551222 12,18.7500477 C11.9945095,20.5426939 10.5426463,21.9945571 8.75,22.0000477 L8.75,22.0000477 Z M35.75,22.0000477 C33.9550746,22.0000477 32.5,20.5449731 32.5,18.7500477 C32.5,16.9551222 33.9550746,15.5000477 35.75,15.5000477 C37.5449254,15.5000477 39,16.9551222 39,18.7500477 C38.9945095,20.5426939 37.5426463,21.9945571 35.75,22.0000477 L35.75,22.0000477 Z M42,17.2100477 L40.39,17.7500477 C39.9228129,15.4918562 37.8952825,13.8996859 35.5907144,13.9812854 C33.2861463,14.0628849 31.3763026,15.7944687 31.07,18.0800477 C30.9709611,18.0289779 30.8614201,18.0015927 30.75,18.0000477 L13.42,18.0000477 C13.0619016,15.7322177 11.1299697,14.0470787 8.83451723,14.0003331 C6.53906472,13.9535876 4.54012932,15.5586768 4.09,17.8100477 L1.5,17.1600477 L1.5,10.7500477 C1.5,10.0596917 2.05964406,9.50004768 2.75,9.50004768 L5.09,9.50004768 C6.38099328,9.50466014 7.58308497,8.84313169 8.27,7.75004768 L11.5,2.57004768 C11.9122938,1.9120575 12.6335117,1.51180046 13.41,1.51004768 L24.51,1.51004768 C25.1061,1.51274548 25.6772172,1.74981301 26.1,2.17004768 L32.4,8.47004768 C33.0448172,9.11265412 33.8603835,9.55687743 34.75,9.75004768 L41.05,11.1400477 C41.6323794,11.2549364 42.0516499,11.7664464 42.0500049,12.3600477 L42,17.2100477 Z M29.75,8.00004768 L18.45,8.00004768 C18.4818297,7.92047767 18.4987775,7.83573913 18.5,7.75004768 L18.5,2.75004768 C18.5,2.33583412 18.1642136,2.00004768 17.75,2.00004768 C17.3357864,2.00004768 17,2.33583412 17,2.75004768 L17,7.75004768 C17.0012225,7.83573913 17.0181703,7.92047767 17.05,8.00004768 L9.75,8.00004768 C9.33578644,8.00004768 9,8.33583412 9,8.75004768 C9,9.16426124 9.33578644,9.50004768 9.75,9.50004768 L29.75,9.50004768 C30.1642136,9.50004768 30.5,9.16426124 30.5,8.75004768 C30.5,8.33583412 30.1642136,8.00004768 29.75,8.00004768 Z" id="Shape"></path>
            </g>
        </g>
    </g>
</svg>