<?xml version="1.0" encoding="UTF-8"?>
<svg width="24px" height="24px" viewBox="0 0 24 24" version="1.1" xmlns="http://www.w3.org/2000/svg" xmlns:xlink="http://www.w3.org/1999/xlink">
    <!-- Generator: sketchtool 63.1 (101010) - https://sketch.com -->
    <title>25DBC6FA-A6F0-4821-9859-6DE0A6035CC7</title>
    <desc>Created with sketchtool.</desc>
    <g id="Wizard" stroke="none" stroke-width="1" fill="none" fill-rule="evenodd">
        <g id="Start-step-2" transform="translate(-447.000000, -535.000000)" fill="#959D9A">
            <g id="Content" transform="translate(407.000000, 273.000000)">
                <g id="home-owner" transform="translate(40.000000, 172.000000)">
                    <g id="Discount-apply" transform="translate(0.000000, 90.000000)">
                        <path d="M16.8537527,20.4728335 L15.534773,23.665311 C15.5208041,23.6989488 15.5032727,23.7317363 15.4819913,23.7632009 C15.3141774,24.0107603 14.9783621,24.0744455 14.7325476,23.9055003 L11.6428031,21.7790403 L8.81865461,23.7470434 L8.81846711,23.7467599 C8.78865436,23.7674529 8.75631034,23.7855001 8.72162255,23.8001458 C8.44777652,23.9163665 8.13183639,23.7869175 8.01652293,23.511295 L6.55982331,20.0421557 L3.16342005,20.1596991 C3.11588841,20.1646125 3.0669505,20.1631952 3.01754384,20.1546913 C2.7237289,20.104329 2.52628975,19.8235096 2.57625892,19.5277611 L3.21479548,15.8135191 L0.303177506,14.0692644 C0.257239624,14.0466816 0.213645511,14.0172013 0.174082682,13.9806343 C-0.0450128907,13.7775789 -0.0592630093,13.4340193 0.142488669,13.2134835 L2.67150971,10.4400618 L1.1380282,7.34604117 L1.13877821,7.34575771 C1.12265307,7.31325372 1.10952797,7.2785765 1.10005914,7.24200951 C1.02430851,6.95221378 1.19624744,6.65533142 1.48415608,6.57898485 L5.1033112,5.62125106 L5.47334552,2.20152914 C5.47672055,2.15948183 5.48468937,2.117529 5.49818948,2.07567067 C5.59025275,1.79059936 5.89466153,1.63459911 6.17788264,1.72729217 L9.736756,2.89101054 L11.8740863,0.22889611 C11.9013678,0.190061403 11.9342743,0.154344811 11.9725246,0.122880195 C12.2032453,-0.0672303407 12.5436544,-0.0329310741 12.7324684,0.19932126 L15.1009881,3.11438097 L18.361734,2.02719815 L18.3618278,2.02748162 C18.3962343,2.01614302 18.4322346,2.00801702 18.4694537,2.00376505 C18.7655186,1.96984373 19.0331771,2.18395431 19.0668336,2.48197052 L19.4935872,6.22465358 L22.805896,7.08033997 C22.8451776,7.08950534 22.8841779,7.10320615 22.9219595,7.12182035 C23.1889617,7.25325363 23.2994938,7.57782107 23.168899,7.84645141 L21.5176665,11.2271496 L23.8363108,13.7406339 C23.8688423,13.7724765 23.8979051,13.809138 23.9224678,13.8500514 C24.0763128,14.1069652 23.9940934,14.440887 23.73881,14.5957534 L20.5336583,16.5412682 L21.1357258,19.9276358 C21.1441634,19.9680768 21.1480072,20.0103131 21.1468822,20.0534943 C21.1388196,20.3526443 20.8910363,20.5884872 20.5938463,20.5802667 L16.8537527,20.4728335 L16.8537527,20.4728335 Z M8.91690543,12.0002532 C10.3727613,12.0003477 11.3576132,10.8367238 11.3576132,9.4288476 L11.3576132,9.40002866 C11.3576132,7.99215243 10.3870114,6.857253 8.94549941,6.85734749 C7.4895498,6.857253 6.50469786,8.00642017 6.50469786,9.42865863 L6.50469786,9.45738308 C6.5046041,10.8652593 7.47520593,12.0002532 8.91690543,12.0002532 L8.91690543,12.0002532 Z M8.10333606,16.4394098 C8.10333606,16.8127332 8.40315115,17.1146235 8.77412299,17.1146235 C9.00249989,17.1146235 9.23078304,16.9998202 9.35931536,16.8127332 L15.7396184,8.02087688 C15.8392755,7.89161684 15.8964635,7.74780559 15.8964635,7.56119112 C15.8964635,7.18748974 15.5967423,6.8859774 15.2256767,6.8859774 C14.9971123,6.8859774 14.7687354,7.00087528 14.6403905,7.18758423 L8.26018121,15.9797241 C8.17458675,16.1090786 8.10324241,16.2527009 8.10333606,16.4394098 L8.10333606,16.4394098 Z M15.054394,17.1433479 C16.5104374,17.1433479 17.4951956,15.9795351 17.4951956,14.5717533 L17.4951956,14.5432179 C17.4951956,13.1350582 16.5245,12.0003477 15.082988,12.0002532 C13.6271321,12.0003477 12.6422802,13.1496094 12.6422802,14.5718478 L12.6422802,14.6003833 C12.6421864,16.008543 13.6126945,17.1433479 15.054394,17.1433479 L15.054394,17.1433479 Z M8.94521816,10.6929126 C8.37446341,10.6928181 8.00349158,10.1038723 8.00339783,9.42865863 L8.00339783,9.40012315 C8.00349158,8.73917723 8.31746294,8.16440467 8.91690543,8.1645936 C9.48784768,8.16440467 9.85900701,8.75363394 9.85900701,9.4288476 L9.85891326,9.45738308 C9.85900701,10.1038723 9.54484815,10.6929126 8.94521816,10.6929126 L8.94521816,10.6929126 Z M15.0828942,15.8361018 C14.5118582,15.8361018 14.1408864,15.2468725 14.1407926,14.5718478 L14.1408864,14.5432179 C14.1407926,13.8822719 14.4548578,13.3075939 15.0543002,13.3074994 C15.6252425,13.3075939 15.9964019,13.8967287 15.9963081,14.5718478 L15.9964019,14.6005723 C15.9964956,15.246967 15.6823367,15.8361018 15.0828942,15.8361018 L15.0828942,15.8361018 Z" id="Shape"></path>
                    </g>
                </g>
            </g>
        </g>
    </g>
</svg>