<?xml version="1.0" encoding="UTF-8"?>
<svg width="20px" height="17px" viewBox="0 0 20 17" version="1.1" xmlns="http://www.w3.org/2000/svg" xmlns:xlink="http://www.w3.org/1999/xlink">
    <!-- Generator: Sketch 63.1 (92452) - https://sketch.com -->
    <title>email-icon</title>
    <desc>Created with Sketch.</desc>
    <g id="Wizard" stroke="none" stroke-width="1" fill="none" fill-rule="evenodd">
        <g id="Show-Stopper" transform="translate(-502.000000, -576.000000)" fill="#383D3B" fill-rule="nonzero">
            <g id="Content" transform="translate(462.000000, 376.000000)">
                <g id="email" transform="translate(40.000000, 200.000000)">
                    <path d="M19.2857143,0 L0.714285714,0 C0.319796607,0 0,0.317131636 0,0.708333333 L0,14.875 C0,16.0486051 0.959389822,17 2.14285714,17 L17.8571429,17 C19.0406102,17 20,16.0486051 20,14.875 L20,0.708333333 C20,0.317131636 19.6802034,0 19.2857143,0 Z M17.3357143,1.41666667 L10.4642857,7.1825 C10.1969828,7.4092288 9.80301715,7.4092288 9.53571429,7.1825 L2.66428571,1.41666667 L17.3357143,1.41666667 Z M17.8571429,15.5833333 L2.14285714,15.5833333 C1.74836804,15.5833333 1.42857143,15.2662017 1.42857143,14.875 L1.42857143,2.23833333 L8.61428571,8.26625 C9.41377245,8.93839396 10.5862276,8.93839396 11.3857143,8.26625 L18.5714286,2.23833333 L18.5714286,14.875 C18.5714286,15.2662017 18.251632,15.5833333 17.8571429,15.5833333 Z" id="email-icon"></path>
                </g>
            </g>
        </g>
    </g>
</svg>