<?xml version="1.0" encoding="UTF-8"?>
<svg viewBox="0 0 36 26" version="1.1" xmlns="http://www.w3.org/2000/svg" xmlns:xlink="http://www.w3.org/1999/xlink">
    <title>CABFFDDA-B6F5-45CE-BBEC-D36A3E13D8F4</title>
    <g id="Email---In-App" stroke="none" stroke-width="1" fill="none" fill-rule="evenodd">
        <g id="Email_Modal_01" transform="translate(-703.000000, -353.000000)" fill="#F16322" fill-rule="nonzero">
            <g id="iconfinder_17_1236568" transform="translate(703.800000, 353.600000)">
                <path d="M32.129811,2.268 L2.268,2.268 L2.268,2.799468 C2.268,3.562461 2.770929,3.916269 3.551121,4.465125 L17.199,14.226219 L30.846501,4.465125 C31.626882,3.916647 32.129811,3.562461 32.129811,2.799468 L32.129811,2.268 L32.129811,2.268 Z M2.065203,0 L32.332797,0 C33.440148,0 34.398,0.877527 34.398,2.003022 L34.398,2.799468 L34.398,22.567167 C34.398,23.692851 33.440337,24.570189 32.332608,24.570189 L2.065203,24.570189 C0.957663,24.570189 0,23.692662 0,22.566978 L0,2.003022 C0,0.877527 0.957663,0 2.065203,0 L2.065203,0 Z M2.268,6.329988 L2.268,20.669985 L11.328849,12.807774 L2.578905,6.54885 L2.268,6.329988 L2.268,6.329988 Z M3.837645,22.301811 L30.560355,22.301811 L21.178017,14.160636 L17.854641,16.537878 C17.444133,16.829883 16.905483,16.809093 16.522191,16.523136 L13.219794,14.160636 L3.837645,22.301811 L3.837645,22.301811 Z M32.129811,20.669985 L32.129811,6.329988 L23.069151,12.807774 L32.129811,20.669985 L32.129811,20.669985 Z" id="Shape"></path>
            </g>
        </g>
    </g>
</svg>
