<?xml version="1.0" encoding="UTF-8"?>
<svg width="196px" height="180px" viewBox="0 0 196 180" version="1.1" xmlns="http://www.w3.org/2000/svg" xmlns:xlink="http://www.w3.org/1999/xlink">
    <title>D7E61138-38CC-41A7-8170-2044323DF8E5</title>
    <g id="Signatures" stroke="none" stroke-width="1" fill="none" fill-rule="evenodd">
        <g id="Signatures_01" transform="translate(-622.000000, -436.000000)" stroke="#F16322" stroke-width="8.1">
            <g id="iconfinder_Legal_documents-16_1837649" transform="translate(622.900000, 442.500000)">
                <polyline id="Path" points="194.4 103.68 157.95 103.68 157.95 34.83 194.4 35.235"></polyline>
                <g id="Group" transform="translate(43.740000, 0.000000)">
                    <path d="M90.72,22.275 L95.175,15.795 C97.605,12.15 96.795,6.885 93.15,4.455 L86.67,0 L77.355,13.365 L90.72,22.275 Z" id="Path"></path>
                    <path d="M14.985,99.63 L12.15,103.68 C6.075,112.59 2.025,122.715 0.405,133.245 L0,134.865 L1.62,134.055 C10.935,128.79 19.035,121.5 25.515,112.59 L28.35,108.54" id="Path"></path>
                    <polyline id="Path" points="44.955 85.05 90.72 22.275 77.355 12.96 23.085 87.885"></polyline>
                </g>
                <path d="M159.57,93.15 L153.495,94.365 C149.04,95.175 144.585,97.605 141.345,100.845 L141.345,100.845 C137.295,104.895 132.03,107.325 126.36,107.73 L67.635,109.35 C64.395,109.35 61.56,107.73 59.94,104.895 L59.94,104.895 C55.89,97.605 60.75,88.695 68.85,87.48 L94.365,83.835 C102.465,82.62 109.755,78.165 114.21,71.28 L114.21,71.28" id="Path"></path>
                <line x1="120.285" y1="42.12" x2="160.38" y2="42.93" id="Path"></line>
                <path d="M50.22,113.4 L47.79,107.73 C45.36,102.06 46.17,95.985 49.005,90.72 L68.85,57.915 C75.735,47.385 87.48,41.31 99.63,41.715" id="Path"></path>
                <line x1="28.35" y1="136.08" x2="0" y2="136.08" id="Path"></line>
                <polyline id="Path" points="0 168.48 101.25 168.48 101.25 136.08 64.8 136.08"></polyline>
                <line x1="170.1" y1="91.53" x2="178.2" y2="91.53" id="Path"></line>
            </g>
        </g>
    </g>
</svg>