<?xml version="1.0" encoding="UTF-8"?>
<svg width="302px" height="253px" viewBox="0 0 302 253" version="1.1" xmlns="http://www.w3.org/2000/svg" xmlns:xlink="http://www.w3.org/1999/xlink">
    <title>C5AD8033-5281-42F5-8F0C-B0180E38B370</title>
    <g id="Main" stroke="none" stroke-width="1" fill="none" fill-rule="evenodd">
        <g id="Welcome" transform="translate(-37.000000, -169.000000)" fill-rule="nonzero">
            <g id="Rating" transform="translate(38.000000, 169.000000)">
                <path d="M104.997536,89.119854 C104.926219,88.4563133 104.668243,87.3279885 104.036949,87.1119046 C104.022862,87.1119046 104.022862,87.0955964 104.008775,87.0955964 C103.835024,86.9837334 103.626791,86.9692714 103.442734,87.0562843 C103.258677,87.1432971 103.118715,87.3223676 103.062275,87.5430532 C102.916739,88.1144717 103.029971,88.7323218 103.363394,89.1861061 C103.425679,89.3554124 103.502676,89.5169473 103.593195,89.6682178 C103.744471,89.9564043 104.053516,90.0758025 104.323981,89.9505538 C104.338068,89.9505538 104.338068,89.9332263 104.353036,89.9332263 C104.534355,89.9334538 104.707415,89.845493 104.829982,89.6908112 C104.952549,89.5361295 105.013346,89.3289564 104.997536,89.119854 L104.997536,89.119854 Z" id="Path" fill="#404040"></path>
                <path d="M92.0092813,229.568703 C93.0942369,233.159713 95.2064374,236.377052 98.099789,238.845863 C98.7992735,239.441636 99.5296915,240.002178 100.288171,240.525287 C100.886721,240.940804 102.100622,241.372656 102.357894,242.03728 C102.507755,242.675936 102.588004,243.328163 102.597314,243.983166 C102.66557,244.565094 102.733825,245.163357 102.818882,245.745285 C102.772658,246.809935 103.039671,247.865323 103.588597,248.787647 C103.750507,248.946955 103.979869,249.023256 104.208223,248.993775 C104.436576,248.964293 104.637508,248.83244 104.751043,248.63757 C105.247735,247.62379 104.870753,246.426243 104.734242,245.346103 C104.580929,244.149577 104.478021,242.95203 104.273254,241.77286 C103.982379,239.994405 101.8276,239.362452 100.51079,238.365006 C97.300627,235.908749 94.6991874,232.782578 92.8987054,229.217504 C92.7717258,229.026061 92.5227797,228.949294 92.3055197,229.034582 C92.0882596,229.119871 91.9639353,229.343172 92.0092813,229.566661 L92.0092813,229.568703 Z" id="Path" stroke="#000000" stroke-width="0.326" fill="#000000"></path>
                <path d="M110.454713,94.5629451 C110.642629,94.5209676 110.809559,94.4133621 110.92571,94.2593355 C111.784039,93.0448969 112.541145,92.0149037 111.481403,90.6823371 C110.366271,89.2376529 109.103392,87.9141015 107.71343,86.7333392 C107.674314,86.7010067 107.628408,86.6779797 107.579155,86.6659856 C106.67841,84.3928402 105.604474,82.1926753 104.366876,80.0850132 C104.322907,80.0073458 104.258618,79.9432086 104.180956,79.8995316 C104.313691,78.7967213 104.369947,77.6859965 104.349317,76.5753686 C104.357592,76.314403 104.253325,76.0625258 104.063207,75.8842162 C104.097292,72.3403766 101.305398,70.4845238 98.36167,68.4929273 C94.4686091,65.9147968 89.6025157,65.2975905 85.1923585,66.8225562 C80.8542324,68.1893177 77.2195024,69.6400123 74.5112723,73.3185592 C71.8371274,76.9639475 69.8860035,84.1355597 68.910958,88.5052591 C66.5559753,99.0341931 67.9018273,107.43786 67.3296078,118.119116 C67.1430577,123.42119 66.2896804,128.678391 64.7897382,133.765894 C64.4705761,134.761692 63.5791944,136.094258 64.2350778,137.055862 C65.0054149,138.082581 65.879018,139.027052 66.842085,139.874354 C68.6128517,141.542366 70.5713294,142.997693 72.6778975,144.210895 C82.6018775,149.863422 93.921288,146.201455 103.289575,139.671257 C103.669164,139.441466 103.85382,138.989288 103.744045,138.558367 C100.985203,131.690364 100.346879,127.522726 99.5732466,120.165632 C98.8998042,113.702788 99.606299,106.599565 96.2091331,100.778135 C96.0306175,100.483315 95.7116929,100.303314 95.3678465,100.303314 C95.0240001,100.303314 94.7050755,100.483315 94.5265599,100.778135 C92.8615458,103.004951 89.8506797,101.283806 89.1617439,99.1575021 C88.9262457,98.4321548 88.6060506,96.221918 89.0584552,95.5307657 C89.7308648,94.5018087 91.4340957,94.9090394 92.1870705,95.4976069 C92.5758014,95.7124327 93.0583226,95.6508766 93.381088,95.345284 C96.3413427,92.7640839 99.3852612,90.8574567 101.540897,87.5332937 C102.638658,85.8199349 103.419284,83.9219388 103.845268,81.930504 C105.74578,87.007935 108.050152,91.9537673 109.345392,97.2353318 C109.900053,99.4963429 110.70777,103.056762 108.907448,104.979968 C107.883699,105.938511 106.540732,106.480087 105.140508,106.499053 C104.449091,106.536189 103.756205,106.462024 103.088162,106.279376 C102.529288,106.033979 101.93107,105.891138 101.321925,105.857639 C101.082764,105.860858 100.86278,105.989584 100.74225,106.196842 C100.62172,106.404099 100.618278,106.659566 100.733179,106.870016 C101.369821,107.648292 102.304763,108.120278 103.307134,108.169424 C102.600639,110.092631 102.499416,113.552537 103.99607,115.10478 C104.230646,115.324314 104.581365,115.362532 104.857455,115.198645 C105.133544,115.034759 105.268978,114.707961 105.190087,114.396012 C104.781612,113.363013 104.488548,112.287767 104.316265,111.189977 C104.249127,110.210759 104.349317,109.232576 104.231568,108.253357 C104.316265,108.253357 104.399928,108.270973 104.484625,108.270973 C105.965743,108.323757 107.434173,107.980057 108.739087,107.275174 C111.548541,105.739511 111.93484,102.651604 111.599152,99.7325989 C111.378157,97.9775301 110.99503,96.246868 110.454713,94.5629451 L110.454713,94.5629451 Z M78.4641315,73.6055895 C76.5969764,76.5243638 75.3325576,79.7893083 74.7457377,83.2071152 C74.4009344,85.2346093 74.1650954,87.2792432 74.0392428,89.332155 C74.040101,91.3586921 73.8544259,93.3809796 73.4845824,95.3732617 C73.4375311,95.5196648 73.3017088,95.6188991 73.1483776,95.6188991 C72.9950465,95.6188991 72.8592242,95.5196648 72.8121729,95.3732617 C72.3188643,93.1978126 72.2274912,90.950038 72.5425893,88.741515 C72.6864562,86.6932991 72.9391844,84.6542457 73.2996956,82.6330546 C73.6039929,80.8135623 74.117673,79.0356291 74.8304344,77.3349108 C75.1801064,76.5048059 75.602129,75.7072834 76.0915896,74.9516268 C76.5747189,74.2501943 77.1721664,73.6354112 77.8588596,73.1330776 C78.1780217,72.8802422 78.716156,73.2004312 78.4641315,73.6055895 Z M100.430543,79.5627632 C99.8757757,80.8429085 99.194083,82.063836 98.3957553,83.2071152 C97.7760229,84.0847854 97.0333771,85.4681263 96.0572987,85.9748332 C95.8918677,86.0637389 95.6926097,86.0616135 95.5291004,85.9691991 C95.365591,85.8767848 95.2605346,85.7069139 95.2506138,85.5189006 C95.3836363,84.4259354 95.7948328,83.3857155 96.4446314,82.4983473 C96.9992918,81.4859697 97.6221228,80.5067509 98.160257,79.4612146 C98.6893791,78.4468757 99.0742543,77.3631768 99.3036631,76.2417088 C99.4696517,75.0851022 99.5428773,73.9169998 99.5226352,72.7486435 C99.5309056,72.4791707 99.7141496,72.2469427 99.9736888,72.1770163 C100.233228,72.10709 100.507788,72.2159742 100.649515,72.4450339 C102.095557,74.534034 101.35601,77.4022645 100.430543,79.5627632 Z M109.983716,93.094635 C109.597417,91.981745 109.193558,90.8678188 108.789699,89.7538926 C108.741262,89.6049323 108.685065,89.4586253 108.621338,89.3155756 C108.807258,89.5684109 109.008671,89.8046669 109.210084,90.0575023 C109.61294,90.4974034 109.984,90.9655773 110.320438,91.4584587 C110.70777,92.0822574 110.354523,92.5889643 109.983716,93.094635 Z" id="Shape" stroke="#404040" stroke-width="0.163" fill="#404040"></path>
                <path d="M105.130304,118.523938 C106.017286,118.044145 106.804573,117.39866 107.657639,116.869058 C108.688223,116.256924 109.854994,115.904381 111.055511,115.842382 C115.975541,115.428661 120.862681,116.537675 125.565846,117.845925 C134.335976,120.278437 144.579956,123.837243 151.641899,127.843314 C155.842476,130.227033 159.041985,132.230577 162.285689,135.722293 C162.83864,136.318985 163.28984,135.855456 162.771834,135.25978 C160.177693,132.197032 158.034751,131.021945 154.804408,128.43899 C151.474369,125.774713 146.38681,123.254782 142.453459,121.536878 C138.067214,119.73143 133.566561,118.210889 128.980164,116.98494 C124.337155,115.457019 119.52876,114.473754 114.653803,114.055355 C112.243636,113.939472 109.514855,113.905928 107.306135,114.998677 C105.044997,116.123955 103.423145,118.176292 100.645029,117.66397 C100.422296,117.605837 100.18766,117.701399 100.070906,117.897798 C99.9541513,118.094198 99.9838063,118.343445 100.143468,118.507674 C101.549484,119.898262 103.608147,119.368659 105.130304,118.523938 Z" id="Path" stroke="#404040" stroke-width="0.326" fill="#404040"></path>
                <path d="M192.808119,74.8443105 C194.030947,73.169483 194.967304,71.3224673 195.582687,69.3713208 C196.390364,67.3283982 197.110695,65.2630035 197.707017,63.1506215 C198.287164,61.1076989 198.778887,59.0423041 199.199439,56.9626089 C199.415107,55.864538 199.62107,54.7501237 199.779586,53.6530743 C199.902517,52.8359053 200.318756,51.7235339 199.533725,51.1576443 C199.331847,50.9834768 199.035379,50.9502206 198.79614,51.074906 C197.882786,51.4405891 197.988464,52.5550034 197.865533,53.3537861 C197.707017,54.334389 197.531248,55.3160133 197.356557,56.2976376 C196.952179,58.3763114 196.460456,60.4560066 195.881387,62.5019936 C195.319572,64.4815856 194.722172,66.4601561 194.037426,68.4070614 C193.172026,70.3529571 192.490366,72.3676676 192.000442,74.4275543 C191.983189,74.7932374 192.474912,75.2426804 192.808119,74.8443105 Z" id="Path" stroke="#404040" stroke-width="0.326" fill="#404040"></path>
                <path d="M200.002476,63.6153728 C200.009061,63.7955063 200.110245,63.9549527 200.261602,64.0237059 C200.412959,64.0924592 200.586815,64.0579483 200.706838,63.9353257 C201.211834,63.4807648 201.763851,63.0593382 202.238754,63.8172848 C202.527968,64.4479348 202.654807,65.1537491 202.605511,65.8581491 C202.644597,67.2249291 202.552237,68.5924266 202.329973,69.9378069 C202.122302,71.1727499 201.835707,72.3900091 201.472326,73.5805064 C201.196788,74.5124079 200.370174,75.8584879 200.845077,76.8007439 C200.929322,76.9575325 201.098119,77.0333149 201.257914,76.9860887 C201.932183,76.7841767 202.115561,76.0759316 202.34596,75.4018562 C202.697671,74.4067924 203.004242,73.377559 203.264734,72.349361 C203.768723,70.4147742 204.016099,68.410133 203.999188,66.3976166 C203.969095,64.9645591 203.891982,63.0593382 202.605511,62.2330522 C201.625611,61.6428479 199.926304,62.1988825 200.002476,63.6153728 Z" id="Path" stroke="#404040" stroke-width="0.326" fill="#404040"></path>
                <path d="M206.372798,72.285236 C206.24169,73.3236892 206.042297,74.3501784 205.776208,75.3565335 C205.365803,76.3489286 205.10366,77.4084325 205,78.4937387 C205.014663,78.824291 205.388562,79.1538294 205.671736,78.9226456 C206.835591,77.9654634 207.16367,75.9010323 207.462423,74.4317982 C207.807441,72.7132003 207.982589,70.9581976 207.984783,69.197715 C207.984783,68.0093489 208.179064,66.1264174 207.179249,65.3010506 C206.827328,64.9857009 206.346542,64.911833 205.930279,65.109159 C205.514017,65.3064851 205.230697,65.7425715 205.194281,66.2420094 C205.197169,66.4203766 205.295392,66.5798636 205.44437,66.6480866 C205.593348,66.7163095 205.764709,66.6802753 205.88068,66.5563383 C206.686214,65.713734 206.581742,68.4544792 206.581742,68.8347158 C206.586538,69.98893 206.516712,71.1420457 206.372798,72.285236 L206.372798,72.285236 Z" id="Path" stroke="#404040" stroke-width="0.326" fill="#404040"></path>
                <path d="M210.271433,68.4655163 C209.731485,67.9120325 208.635006,67.7440291 208.280568,68.5685859 C208.176931,68.7870934 208.29715,69.1385608 208.600806,69.1055785 C209.883831,68.9880792 209.429901,71.589556 209.360464,72.3780384 C209.242031,73.7223205 209.004823,75.0536225 208.651588,76.3565251 C207.976218,78.7515816 206.866721,81.0038385 205.377699,83.0024531 C204.03042,84.8319386 202.627176,86.5944288 201.394934,88.5074006 C200.280837,90.2193867 198.879666,91.8983906 199.218559,94.0123481 C197.920802,93.2794924 196.513639,92.7575655 195.050284,92.4663041 C194.117552,92.2653184 193.194147,92.1313279 192.252088,92.0138285 C191.550593,91.8886804 190.837728,91.8378922 190.125459,91.8623162 C190.208465,91.7812064 190.262049,91.6749872 190.277805,91.5603223 C190.272418,90.6084895 190.07727,89.6671703 189.703657,88.790842 C189.383419,87.7508698 188.978199,86.742849 188.58956,85.735859 C187.774518,83.7899226 187.103243,81.7874672 186.581077,79.744423 C186.193475,77.9314286 186.062893,75.766967 187.324154,74.2559666 C188.522196,72.8129922 190.514097,72.6954928 191.812667,71.4535041 C191.963192,71.2959569 192.00618,71.0649678 191.922323,70.864278 C191.838466,70.6635882 191.643531,70.5309281 191.425065,70.5258777 C189.636293,70.3248919 187.475464,71.5493588 186.260839,72.7934089 C184.878753,74.3604933 184.270874,76.4586634 184.602649,78.516864 C184.925977,80.812997 185.561922,83.0547057 186.492986,85.1803138 C186.93137,86.2718209 187.438154,87.3622973 187.910739,88.4527737 C188.281445,89.6223595 188.79114,90.7437805 189.429019,91.7932596 C189.482422,91.8621303 189.554259,91.9146411 189.636293,91.9447719 C189.433633,91.9937145 189.235899,92.06099 189.045563,92.1457576 C188.898187,91.944077 188.669504,91.8165732 188.419611,91.7967546 C188.169719,91.776936 187.923607,91.8667846 187.745956,92.042688 C182.045927,97.6991479 177.382268,104.345076 172.523771,110.706532 C169.958412,114.079656 167.398927,117.458965 164.845314,120.844458 C162.172408,124.210077 159.693246,127.723502 157.419731,131.367864 C157.33622,131.524921 157.378975,131.718994 157.520866,131.826936 C157.662758,131.934877 157.862287,131.925117 157.992843,131.803849 C160.869754,128.69405 163.563289,125.421272 166.059938,122.00193 C168.608369,118.695457 171.1568,115.372493 173.687613,112.06602 C178.582383,105.655091 183.256406,98.9761802 189.011362,93.2846768 C189.103292,93.2015549 189.174292,93.098109 189.218636,92.9826828 C190.349315,93.2846768 191.563939,93.3691938 192.712235,93.6371748 C193.825296,93.8896953 194.955974,94.1236633 196.03587,94.4761614 C197.08266,94.8220214 198.072359,95.3197188 198.97294,95.9531488 C199.130792,96.0686879 199.30556,96.1594172 199.491124,96.2221604 C197.832934,103.825605 196.166453,111.378546 193.837732,118.812956 C191.453402,126.406366 188.570948,133.836103 185.208925,141.054346 C183.654372,144.393801 182.053182,147.734287 180.180463,150.905738 C178.580903,153.859469 176.386123,156.453456 173.733213,158.525674 C167.204089,163.225648 158.140007,161.647653 150.747588,160.423186 C145.988583,159.633672 141.212995,158.794686 136.453989,157.97219 C134.277615,157.603201 132.082586,157.234212 129.924866,156.764215 C127.663509,156.260204 125.50268,155.404727 123.258941,154.934729 C122.448501,154.766726 122.178009,155.32021 122.937667,155.639725 C125.098496,156.57972 126.668595,157.133204 128.759987,157.988682 C130.251942,158.614285 131.808115,159.076023 133.400847,159.365691 C132.779026,161.900173 132.540661,164.568645 132.068077,167.119618 C131.57891,169.721095 131.055544,172.322571 130.464814,174.890035 C129.874084,177.475021 129.232571,180.043515 128.507113,182.594488 C128.152675,183.836477 127.798237,185.078465 127.409599,186.320454 C126.946541,187.477193 126.590963,188.673674 126.347321,189.894908 C126.27892,190.113416 126.194974,190.314401 126.12761,190.532909 C126.042628,190.767908 125.958682,190.986415 125.874736,191.221414 C125.452934,191.103914 125.045641,190.986415 124.631094,190.885407 C122.769044,190.417659 120.880986,190.059047 118.976665,189.811422 C115.267151,189.324771 111.522439,189.156147 107.783882,189.307411 C103.947741,189.463923 100.122654,189.822766 96.3247516,190.382427 C94.350469,190.666899 92.3761864,190.969924 90.4174493,191.338913 C88.518129,191.619457 86.6403346,192.028912 84.7972211,192.564411 C81.4819314,186.51527 78.5784162,180.251754 76.106232,173.81605 C74.8743349,170.594094 73.7547111,167.338125 72.7473606,164.048144 C71.7182463,160.707658 70.503622,157.250703 69.3273434,153.960721 C69.1418334,153.457742 68.635049,153.508246 68.7055221,154.128725 C68.9805636,156.294762 69.4149303,158.437828 70.0051286,160.540685 C67.7887357,161.789412 65.6779695,163.215084 63.6936424,164.803644 C62.6980374,165.575979 61.7359417,166.398131 60.8073552,167.270099 C59.817495,168.040425 58.9767879,168.983401 58.3262882,170.052979 C58.2411453,170.207343 58.2687696,170.399085 58.3940711,170.523462 C58.5193726,170.647839 58.7122218,170.674944 58.8672727,170.589971 C59.8417357,170.012307 60.7375755,169.312582 61.5328134,168.507965 C62.4956,167.683408 63.4905141,166.896987 64.5030465,166.108505 C66.4074832,164.655959 68.3846419,163.300233 70.4269307,162.046532 C70.6466409,162.802032 70.8663511,163.557532 71.1026432,164.314063 C72.131412,167.721544 73.2900724,171.095356 74.5786243,174.435498 C76.0806682,178.345959 77.7347129,182.189424 79.5407583,185.965895 C78.9399283,185.918288 78.3358125,185.930719 77.7374765,186.003 C76.8109848,185.996128 75.8854951,186.065074 74.9703717,186.209139 C74.9950938,186.066257 74.9573971,185.91967 74.8667348,185.806137 C72.7999455,183.507814 70.5540773,181.375217 68.1500284,179.42819 C65.9228718,177.430701 63.661515,175.467225 61.3991218,173.503749 C59.3066931,171.690755 57.1976825,169.911773 54.9860714,168.2338 C52.8234956,166.435577 50.4627486,164.887188 47.949127,163.618343 C47.016395,163.215341 47.1200319,163.45034 47.9999091,164.020315 C48.8435133,164.59132 49.5865898,165.296316 51.5100903,166.672296 C52.6573506,167.4783 53.8222292,168.753271 54.9363257,169.609779 C57.1634823,171.305274 58.5138709,173.201755 60.6228815,175.03124 C62.8510745,176.960703 65.0450674,178.92521 67.2898423,180.854673 C69.2582145,182.684642 71.3316716,184.399509 73.4997643,185.990631 L73.4997643,185.990631 C72.9397974,186.820261 72.5288268,187.740232 72.2851401,188.709608 C71.8965018,189.834097 71.5596819,190.977139 71.2549894,192.117089 C70.6701752,194.121248 70.3414783,196.190677 70.2766573,198.276528 C70.225744,198.239001 70.1685519,198.210736 70.1077291,198.193042 C67.9918281,197.546592 65.839331,197.02518 63.661515,196.631537 C61.5006859,196.128558 59.3408933,195.608056 57.1976825,195.03705 C52.911261,193.879579 48.6745852,192.570595 44.5063097,191.059594 C40.5265102,189.691954 36.6479104,188.048784 32.8989787,186.142144 C29.2679656,184.395144 26.113171,181.80452 23.7012053,178.589203 C21.4012895,175.528787 20.4619886,171.665137 21.1019922,167.897793 C21.9632147,163.902815 24.6629556,160.546869 27.1771864,157.424891 C32.0833275,151.326477 37.6026185,145.742079 43.6492327,140.758536 C47.0722391,137.944895 50.6497689,135.322543 54.3652865,132.903602 C58.0962143,130.469098 62.0779434,128.455117 65.8244167,126.055657 C66.3301647,125.736141 66.0099268,124.813668 65.4026146,125.048667 C61.5700415,126.557062 57.9051675,128.456842 54.4668506,130.717495 C43.9414461,137.271256 34.5602736,145.48707 26.6921658,155.041922 C24.0763708,158.230895 21.309266,161.535307 19.8521314,165.451952 C18.5157911,169.207901 18.7590287,173.341115 20.5268075,176.916384 C24.1053891,184.603315 32.2895939,188.345772 39.7659587,191.316238 C44.5931418,193.232862 49.5189905,194.893921 54.5228145,196.292438 C57.0881729,197.013925 59.6701131,197.651583 62.2686352,198.20541 C64.7885325,198.874046 67.3752394,199.26259 69.9812921,199.363912 C70.180872,199.367233 70.3671771,199.264776 70.4704582,199.094901 C70.5801641,199.181202 70.726233,199.206662 70.8589107,199.162609 C70.9915884,199.118556 71.0929812,199.010931 71.1285524,198.876393 C71.3648445,198.121924 71.5503546,197.366424 71.7358646,196.608862 C72.613669,197.263354 73.6262013,197.749842 74.5205877,198.404334 C75.0387721,198.807337 76.3767242,200.184346 76.9674545,199.109331 C77.4908207,198.152845 75.8201942,197.297367 75.212882,196.910856 C74.2488596,196.240734 73.1667502,195.756835 72.0229388,195.484373 C72.2592308,194.493874 72.478941,193.503375 72.7660152,192.513907 C73.052053,191.489395 73.3733273,190.465914 73.7111836,189.475415 C73.9640576,188.720945 74.3330049,187.965445 74.5402787,187.193454 L74.6439155,187.243958 C75.6817187,187.456554 76.740333,187.551982 77.7996587,187.52843 C78.5758989,187.562443 79.6060495,187.78095 80.2465255,187.293431 C81.1585301,189.15693 82.1202803,190.986415 83.0986125,192.815901 C83.0215434,192.831384 82.9476283,192.859604 82.8799387,192.899387 C79.8947209,195.137655 77.4498349,198.010738 75.7238119,201.308836 C73.8376227,204.680409 72.2184068,208.192998 70.8808603,211.814721 C67.6393792,219.947373 65.3461213,228.422812 64.0460078,237.075019 C63.3879136,241.757471 62.7795651,246.763562 63.4552776,251.475904 C63.5734236,252.331382 64.8222481,252.045879 64.889612,251.291409 C65.20985,247.128428 65.1093222,242.982969 65.6150702,238.819987 C66.1338985,234.631364 66.9347376,230.482082 68.0121913,226.4001 C69.9237001,218.577709 72.7145973,210.994194 76.3321604,203.792813 C78.3188076,200.159272 80.7321219,196.773108 83.521451,193.705391 C83.5419113,193.686183 83.5587577,193.663495 83.5711967,193.638396 C83.5893631,193.65662 83.6013245,193.680051 83.6053969,193.705391 C83.7447154,193.947498 83.9985673,194.102223 84.2787212,194.115789 C84.558875,194.129355 84.8266402,193.999887 84.9889493,193.772386 C87.0001656,193.620502 89.000687,193.351371 90.9801975,192.966382 C92.9544802,192.68191 94.9297992,192.362394 96.9040818,192.076891 C101.058893,191.481441 105.247097,191.14512 109.444145,191.069901 C113.467471,190.98799 117.488533,191.319921 121.443223,192.0604 C122.388392,192.244895 123.315942,192.446911 124.241419,192.678818 C124.990101,193.010914 125.806027,193.165797 126.625067,193.131294 C126.622492,193.160456 126.628239,193.18975 126.641649,193.215811 C128.700914,199.861739 131.147781,206.391198 132.970754,213.121643 C134.805284,219.915029 136.214342,226.815045 137.189811,233.781945 C137.746341,237.692406 137.982633,241.63688 138.573364,245.54734 C138.708092,246.403849 140.05848,246.165758 140.05848,245.346355 C139.992109,241.83229 139.680449,238.32705 139.125748,234.85593 C138.653164,231.351564 138.095598,227.873995 137.40434,224.399519 C136.037333,217.435301 134.233638,210.562944 132.003822,203.822703 C130.800627,200.056556 129.31086,196.38698 127.547436,192.845791 C127.503394,192.76883 127.43931,192.705096 127.361926,192.661296 C127.602524,192.276055 127.784477,191.857526 127.901874,191.419307 C128.036602,191.033827 128.187912,190.663807 128.323676,190.278327 C128.76037,189.245945 129.110136,188.179291 129.369372,187.089353 C129.75801,185.796861 130.145612,184.487877 130.50005,183.178893 C131.225509,180.559894 131.867021,177.922343 132.441169,175.273454 C133.015318,172.688468 133.487902,170.0705 133.892086,167.452533 C134.391933,164.877829 134.691296,162.26861 134.787508,159.648102 C139.209349,160.403946 143.625316,161.15979 148.035411,161.915633 C155.76465,163.241109 164.759295,165.171602 172.219078,161.709494 C178.716074,158.688524 182.158892,151.791106 185.129125,145.697631 C188.73642,138.290037 191.848482,130.653869 194.445044,122.838855 C197.461519,114.130724 199.659058,105.163024 201.009404,96.0510649 C201.041128,95.8477754 200.948244,95.6451966 200.773112,95.5357169 C200.77935,95.3035038 200.687662,95.0792767 200.520238,94.9172993 C200.452874,94.850304 200.38551,94.7997999 200.318146,94.7328047 C200.486882,94.6614043 200.607532,94.5095727 200.638384,94.3298025 C201.060186,91.7283257 202.730813,89.4958381 204.25013,87.3983717 C205.869974,85.1658841 207.692947,83.1343822 208.856789,80.6174225 C210.128207,77.9313201 210.85641,75.0228937 211,72.057492 C210.896363,70.9670156 211.098455,69.3045029 210.271433,68.4655163 Z" id="Path" stroke="#404040" stroke-width="0.326" fill="#404040"></path>
                <path d="M59.2167885,34.00228 C52.0801516,32.5540449 44.9934868,30.9196081 37.8745483,29.403099 C36.1963194,29.0493159 34.4837348,28.7131184 32.8221633,28.3086471 C31.9070497,28.0893429 31.788366,27.2979858 31.4833281,26.4890431 C31.1272771,25.5632071 30.7712261,24.6363366 30.415175,23.6960182 C29.0076283,20.0409486 27.5948761,16.385879 26.1769184,12.7308095 C24.6850438,8.88988304 23.3118528,4.94861462 21.0058498,1.51215957 C20.8080584,1.19381277 20.45841,1 20.0818869,1 C19.7053639,1 19.3557155,1.19381277 19.1579241,1.51215957 C14.851997,9.5136586 10.9697914,18.1720357 9.10520839,27.0993707 C9.00428201,27.4951256 9.23956084,27.8986094 9.63529697,28.0084289 C10.0310331,28.1182483 10.4426713,27.8942884 10.5627272,27.5038421 C12.0889577,23.27603 13.4954634,19.014081 15.1913907,14.8535084 C16.6655669,11.2329206 18.3271384,7.67750336 20.1407082,4.20691134 C21.6278191,7.02147265 22.8974366,9.94429522 23.9385859,12.9501136 C25.3961048,16.7227661 26.8536236,20.5130043 28.3111425,24.2866912 C28.6671935,25.2176995 29.0232445,26.1393977 29.396994,27.0797161 C29.6371437,27.921458 30.014886,28.7182612 30.5151192,29.4382705 C31.5666149,30.6506501 33.7195785,30.6682358 35.1947958,30.9713308 C38.8385929,31.7119996 42.4678148,32.5374936 46.0949546,33.3505742 C49.5877944,34.12538 53.0972916,34.9022547 56.609912,35.6408546 C51.4555007,39.8024616 45.8784089,43.4406351 40.7416961,47.651896 C39.6225298,48.5611807 38.1639699,49.5211537 37.7069336,50.953872 C37.2155415,52.5200349 37.9266025,54.5082548 38.1816683,56.0744176 C38.8260999,59.9484466 39.3851625,63.8400612 39.8255414,67.7482271 C40.2492629,71.3688149 40.5719992,75.0080229 40.8260239,78.6472308 C34.5792561,73.7410803 28.6128929,68.4923783 22.9547607,62.9256042 C22.5241172,62.5294815 21.8591738,62.5294815 21.4285302,62.9256042 C14.3762212,68.3999329 7.13755795,73.6890945 0.304917804,79.4168644 C-0.559182656,80.1409819 0.593298318,81.6740422 1.52611038,80.9995785 C8.56072099,75.9462723 15.2746775,70.4212554 22.1062765,65.0814056 C28.1680375,70.9970574 34.5703794,76.557984 41.280978,81.7361095 C41.9587243,82.2585086 43.1965742,82.0050674 43.1455611,80.9778549 C42.7218395,73.5659945 41.9254096,66.1706853 40.8062433,58.8270988 C40.5345202,56.9909436 40.2294823,55.1713396 39.9077871,53.3517356 C39.7547476,52.5241727 39.5173802,51.7690215 40.127456,51.0759376 C40.6598096,50.522896 41.2382853,50.0155849 41.856698,49.5594285 C44.6207784,47.2836305 47.5025013,45.1795517 50.3842243,43.0578873 C53.5543278,40.7158842 56.707774,38.3749156 59.6915233,35.8167117 C59.95785,35.5409342 60.0611259,35.1476151 59.964341,34.7777042 C59.8675561,34.4077932 59.5845682,34.1142543 59.2167885,34.00228 L59.2167885,34.00228 Z" id="Path" stroke="#F16322" stroke-width="0.326" fill="#F16322"></path>
                <path d="M299.698213,79.4240538 C292.867383,73.6935666 285.613985,68.3853366 278.580198,62.9301445 C278.149472,62.5343337 277.485098,62.5343337 277.054372,62.9301445 C271.40715,68.5067646 265.442885,73.7566907 259.190966,78.6540552 C259.682228,71.6267825 260.461794,64.598475 261.584827,57.6384737 C261.97067,55.8453561 262.264903,54.0339513 262.466392,52.2112251 C262.550698,50.6101661 261.550481,49.5483131 260.414958,48.5889196 C257.652651,46.2468404 254.737345,44.0724222 251.805386,41.9487162 C248.975426,39.8933166 246.144425,37.8534411 243.433118,35.6459047 C250.094296,34.2476947 256.73778,32.696313 263.397917,31.281544 C264.279482,31.095254 265.161047,30.909999 266.059265,30.741303 C266.926838,30.6335987 267.779657,30.4301867 268.601962,30.1348256 C270.163175,29.4103645 270.56805,27.2535403 271.126964,25.788059 C272.567444,22.0622591 273.991271,18.3561231 275.43175,14.6313581 C276.654741,11.0510716 278.139067,7.56438383 279.872883,4.19911828 C281.681809,7.66411222 283.347103,11.2201813 284.816725,14.8600808 C286.512203,19.0391864 287.918336,23.2865983 289.444162,27.5164162 C289.564187,27.9070477 289.975716,28.1311139 290.371347,28.0212423 C290.766978,27.9113707 291.002195,27.5076956 290.901295,27.1117529 C289.037206,18.1801825 285.156029,9.51769768 280.851243,1.51240255 C280.653504,1.19390472 280.303948,1 279.927525,1 C279.551102,1 279.201546,1.19390472 279.003807,1.51240255 C277.11057,4.57798611 275.569867,7.84546429 274.410717,11.2532995 C273.003543,14.9107931 271.580757,18.5672517 270.173583,22.2237104 C269.496017,23.9934654 268.902755,25.8460159 268.105496,27.5826526 C267.732886,28.3919792 266.969973,28.3754201 266.173754,28.544116 C265.292189,28.7293711 264.428317,28.9146261 263.546752,29.1164403 C259.970532,29.9092077 256.37766,30.6688569 252.80144,31.4595544 C248.801611,32.3351174 244.78721,33.2117154 240.767606,34.037601 C240.41039,34.142527 240.133652,34.4244674 240.036834,34.7821132 C239.940015,35.139759 240.037022,35.5217388 240.292997,35.7907969 C245.632347,40.3445523 251.512918,44.2173144 256.987574,48.6158282 C257.612059,49.104322 258.22232,49.6097198 258.818357,50.1320218 C259.377271,50.6039564 260.123531,51.0934851 260.22449,51.8510645 C260.226684,52.7516982 260.101248,53.6481471 259.85188,54.5139765 L259.393924,57.2441599 C258.800663,60.9358066 258.309401,64.6264185 257.885792,68.3335894 C257.411183,72.529944 257.055226,76.7432028 256.817922,80.9733657 C256.750269,82.0186595 258.004444,82.2546269 258.682011,81.7319799 C265.394432,76.5542664 271.795321,70.9891078 277.851631,65.0652349 C284.68142,70.407618 291.393598,75.9186971 298.427385,80.9919947 C299.393256,81.6626386 300.562084,80.1485149 299.698213,79.4240538 Z" id="Path" stroke="#404040" stroke-width="0.326" fill="#404040"></path>
                <path d="M231.800642,34.2589588 C222.357828,31.8167799 212.250903,32.3225933 203.125617,28.6339826 C203.128016,28.615458 203.121918,28.5968416 203.109014,28.5832978 C200.101841,19.4703814 197.092592,10.3519481 194.081269,1.22799823 C193.997217,0.992158846 193.625731,0.89182367 193.507436,1.16076332 C190.195187,7.94976543 187.130942,14.8456538 184.314701,21.8484285 C183.58833,23.6503241 182.895165,25.4687699 182.203038,27.2892844 C182.108241,27.7346252 181.917783,28.1542085 181.644771,28.5191661 C181.261072,28.7647749 180.829049,28.9256088 180.377773,28.9908448 C179.380571,29.2939191 178.366765,29.5794089 177.368525,29.8659331 C173.667149,30.9106602 169.915965,31.8374676 166.148179,32.6453209 C161.872971,33.5555782 157.546916,34.3003341 153.2219,34.9023452 C152.985311,34.9364798 152.934465,35.2726544 153.085965,35.4247087 C159.944431,41.9170791 167.269477,47.9013927 175.002633,53.3298829 C173.244817,61.9373308 171.662021,70.5837404 170.254246,79.2691118 C170.226239,79.4021162 170.286533,79.5380978 170.404057,79.6069829 C170.521581,79.6758679 170.670101,79.6622797 170.773082,79.5732205 C177.430785,72.7845632 186.825867,69.2976572 192.959545,61.9535361 L194.226543,63.4192572 C194.665478,60.9770783 195.122053,58.5183493 195.575516,56.0751361 C195.857479,54.4468524 196.234448,52.8363428 196.704503,51.2518069 C196.922617,50.1619839 197.591264,49.2142 198.546371,48.6410236 C200.709917,47.6304311 201.638633,50.1398449 201.740325,51.8072707 C201.884566,54.6647404 201.663144,57.5288882 201.081403,60.3305888 C201.842106,59.9071157 202.76114,59.8759105 203.548987,60.2468037 C204.458874,60.7014277 205.066688,61.5943976 205.154265,62.6051976 C205.704317,62.341509 206.338002,62.3109139 206.911044,62.5203781 C207.967595,63.0650729 208.664892,64.1172984 208.752911,65.2997659 C209.525698,64.9287667 210.452641,65.1301197 211.000509,65.7879948 C212.116006,67.0851114 211.879417,69.49419 211.89602,71.0767964 C211.910839,73.9142952 211.610506,76.7447098 211.000509,79.5163294 L211.406239,79.9207733 C211.496105,80.001054 211.624419,80.0223311 211.735518,79.9753745 C211.846617,79.9284178 211.920484,79.8216874 211.925074,79.701484 C212.78738,72.9128267 213.666288,66.1252038 214.021172,59.2868961 C214.104877,57.5684407 214.155377,55.8503301 214.172672,54.1325643 C214.172672,53.138522 214.021172,52.4310038 214.795275,51.7234857 C215.417878,51.1680219 216.028029,50.6115237 216.653745,50.0395097 C219.171137,47.7318007 221.621081,45.389957 224.037819,42.9819128 C226.724005,40.3028601 229.343089,37.5627789 231.89507,34.761669 C231.976347,34.693473 232.014511,34.5869484 231.994959,34.4828573 C231.975407,34.3787661 231.901165,34.293222 231.800642,34.2589588 Z" id="Path" fill="#F16322"></path>
                <path d="M144.796645,30.9890128 C135.193609,29.1281315 125.099656,30.2783245 115.733758,27.1311388 C115.733758,27.1145146 115.733758,27.1145146 115.716076,27.0968512 C112.125728,18.1467499 108.540928,9.19076082 104.961674,0.228883958 C104.922439,0.0933155424 104.798196,0 104.656931,0 C104.515667,0 104.391424,0.0933155424 104.352189,0.228883958 C101.42229,7.3357673 98.7461706,14.5434354 96.3747937,21.840459 C95.7653082,23.7013403 95.172464,25.5632606 94.6129023,27.4241419 C94.461051,27.9145584 94.4048868,28.2699026 93.952453,28.523423 C93.5432462,28.7167825 93.1184254,28.8752763 92.6825183,28.9972152 C91.7173263,29.3525594 90.734453,29.7079036 89.7703011,30.0466234 C86.1799533,31.3152645 82.5386418,32.4488331 78.8630076,33.4816171 C74.6957635,34.6453173 70.4834493,35.647277 66.2260651,36.4874962 C66.119963,36.5178741 66.0378207,36.6019893 66.0100469,36.7087026 C65.9822732,36.8154159 66.013001,36.9288475 66.0908551,37.0070052 C73.3621769,43.0942644 81.0727012,48.6378943 89.1597756,53.5928501 C88.7021414,56.8927714 88.2687758,60.1919999 87.8596786,63.4905359 C91.3955382,62.8848857 95.0323176,63.3811459 98.2760555,64.9119125 C99.5372899,65.5225747 100.683068,66.3469338 101.662548,67.3484098 C103.900932,65.504775 105.913551,63.4035306 107.658595,61.0883262 C113.603679,67.3660731 120.763573,72.2723163 127.254697,77.9204183 C127.344771,78.0010587 127.473383,78.0224312 127.58474,77.9752641 C127.696096,77.928097 127.770134,77.8208885 127.774736,77.7001465 C128.214688,70.8478225 128.672323,63.9788743 128.587036,57.0922628 C128.570395,55.3664539 128.519431,53.6406449 128.417504,51.914836 C128.36654,50.9340029 128.147083,50.2056513 128.875138,49.4617144 C129.467982,48.8694741 130.044185,48.2606095 130.619348,47.651745 C132.990725,45.1809601 135.294496,42.6769266 137.563946,40.105357 C140.087174,37.2459794 142.526156,34.3356899 144.914174,31.3776055 C145.050424,31.3100694 145.033783,31.0399247 144.796645,30.9890128 Z" id="Path" fill="#F16322"></path>
            </g>
        </g>
    </g>
</svg>