<?xml version="1.0" encoding="UTF-8"?>
<svg width="46px" height="32px" viewBox="0 0 46 32" version="1.1" xmlns="http://www.w3.org/2000/svg" xmlns:xlink="http://www.w3.org/1999/xlink">
    <title>1450C109-288C-4252-87D1-F8DBA80E31CE</title>
    <g id="Monitored-Driver" stroke="none" stroke-width="1" fill="none" fill-rule="evenodd">
        <g id="Road_Monitor_03" transform="translate(-447.000000, -1271.000000)" fill="#F16322" fill-rule="nonzero">
            <g id="iconfinder_3429131_business_cooperation_deal_gesture_hand_icon" transform="translate(447.000000, 1271.000000)">
                <path d="M45.4917441,16.4868939 C45.4163493,16.2973565 45.267928,16.1460829 45.0798599,16.0670943 C44.8917919,15.9881057 44.6798659,15.9880335 44.4917441,16.0668939 L39.0517441,18.2568939 L33.0517441,3.35689391 L38.0517441,1.46689391 C38.3187607,1.38480503 38.5180275,1.1611182 38.56884,0.886428333 C38.6196524,0.611738466 38.5135892,0.331571283 38.2936066,0.159396691 C38.073624,-0.0127779008 37.7761809,-0.0484245508 37.5217441,0.0668939139 L31.8517441,2.22689391 C31.6637673,2.29850829 31.5124375,2.44263199 31.4317441,2.62689391 C31.3571916,2.81304008 31.3571916,3.02074775 31.4317441,3.20689391 L37.6617441,18.7668939 C37.2165265,19.2706074 36.7168037,19.7233764 36.1717441,20.1168939 C36.1314749,19.3167324 35.7259399,18.5793958 35.0717441,18.1168939 L30.9017441,14.1968939 C30.7186449,13.9618474 30.4137775,13.8574726 30.1250411,13.9309808 C29.8363047,14.004489 29.6184609,14.2419387 29.5700461,14.5359254 C29.5216312,14.829912 29.6518276,15.1246783 29.9017441,15.2868939 L34.1017441,19.2868939 L34.2017441,19.3568939 C34.4626605,19.5397516 34.6385431,19.8203497 34.6893951,20.1348785 C34.740247,20.4494073 34.6617462,20.7711333 34.4717441,21.0268939 C34.4264378,21.0935751 34.3726536,21.1540823 34.3117441,21.2068939 L34.3117441,21.2068939 C34.2090653,21.2499608 34.1169482,21.314784 34.0417441,21.3968939 C33.9091069,21.4698872 33.7626049,21.5141785 33.6117441,21.5268939 C33.5009658,21.5376386 33.3945183,21.5754103 33.3017441,21.6368939 L24.9417441,15.9968939 C24.608347,15.7865722 24.1686023,15.8745211 23.9417441,16.1968939 C23.7366662,16.5312428 23.8238457,16.9671403 24.1417441,17.1968939 L32.7417441,22.9968939 C33.0000118,23.1655594 33.1772832,23.4332753 33.2317441,23.7368939 C33.2928417,24.0640474 33.2129457,24.4017897 33.0117441,24.6668939 C32.6530542,25.1905816 31.9400654,25.3287231 31.4117441,24.9768939 L22.6917441,19.1368939 C22.3573952,18.931816 21.9214977,19.0189955 21.6917441,19.3368939 L21.6917441,19.3368939 C21.4866662,19.6712428 21.5738457,20.1071403 21.8917441,20.3368939 L29.7917441,25.7668939 C30.0504643,25.9494316 30.2241546,26.2290356 30.2731504,26.5418544 C30.3221461,26.8546732 30.2422632,27.1739934 30.0517441,27.4268939 C29.8811014,27.6806975 29.6163894,27.8560748 29.3161378,27.9142485 C29.0158862,27.9724223 28.7048293,27.9086002 28.4517441,27.7368939 L26.0817441,26.1468939 L26.0817441,26.1468939 L21.7917441,23.2468939 L21.6517441,23.1568939 C21.6767612,22.9342612 21.6767612,22.7095267 21.6517441,22.4868939 C21.4700049,21.3222793 20.5486733,20.4131239 19.3817441,20.2468939 C19.9023626,19.082703 19.5374138,17.7129948 18.5065568,16.9621833 C17.4756997,16.2113717 16.0600796,16.2842252 15.1117441,17.1368939 C14.9237942,16.7418401 14.6423276,16.3985881 14.2917441,16.1368939 C13.0893083,15.2665757 11.4098212,15.5301123 10.5317441,16.7268939 L8.15174409,19.9968939 C7.70176962,19.4942394 7.31243224,18.9404406 6.99174409,18.3468939 L15.8917441,5.14689391 C17.362271,5.32306376 18.7704503,5.84385029 20.0017441,6.66689391 L20.5017441,6.99689391 C20.6317441,7.08689391 21.6817441,5.99689391 21.3417441,5.75689391 L20.8417441,5.41689391 C19.4555073,4.49216221 17.874415,3.90010817 16.2217441,3.68689391 C16.1828781,3.63302919 16.1356088,3.58575996 16.0817441,3.54689391 L11.2217441,0.146893914 C10.8793275,-0.0905885286 10.4092265,-0.00552263104 10.1717441,0.336893914 C9.93426165,0.679310459 10.0193275,1.14941147 10.3617441,1.38689391 L14.6217441,4.38689391 L5.62174409,17.6668939 L1.25174409,14.1768939 C1.04317563,13.9891776 0.747266804,13.9335895 0.484794144,14.0328181 C0.222321484,14.1320467 0.0371947877,14.3694918 0.00497436025,14.6482391 C-0.0272460672,14.9269864 0.098830021,15.2004035 0.331744094,15.3568939 L5.33174409,19.3068939 C5.46337437,19.4092439 5.62501077,19.4654652 5.79174409,19.4668939 L5.89174409,19.4668939 C6.32726168,20.1659147 6.84053131,20.8133725 7.42174409,21.3968939 C7.18800548,22.4273602 7.57919946,23.4992317 8.42174409,24.1368939 C8.88050928,24.4711122 9.43415375,24.6498202 10.0017441,24.6468939 C10.1630032,24.6461299 10.3237895,24.6293814 10.4817441,24.5968939 C10.4866,24.6199746 10.4866,24.6438132 10.4817441,24.6668939 C10.5907851,25.3722842 10.9757022,26.0054189 11.5517441,26.4268939 C12.0163728,26.7569859 12.5717989,26.9351415 13.1417441,26.9368939 C13.3029449,26.935087 13.4636316,26.9183488 13.6217441,26.8868939 C13.7250146,27.6520179 14.1508898,28.3363301 14.7917441,28.7668939 C15.2532898,29.0956143 15.8051123,29.2737343 16.3717441,29.2768939 C16.5149058,29.2868147 16.6585824,29.2868147 16.8017441,29.2768939 L16.8617441,29.2768939 L16.8617441,29.3368939 C16.9653998,30.0442369 17.35149,30.6793011 17.9317441,31.0968939 C18.3902482,31.4327966 18.9433671,31.6148357 19.5117441,31.6168939 C19.6549058,31.6268147 19.7985824,31.6268147 19.9417441,31.6168939 C20.6483372,31.5043163 21.281353,31.1158748 21.7017441,30.5368939 L21.7017441,30.5368939 L22.0817441,30.0168939 L23.0817441,30.7268939 C23.5162528,31.019401 24.0279527,31.1760438 24.5517441,31.1768939 C25.8972759,31.1576597 27.0312545,30.167544 27.2317441,28.8368939 L27.6617441,29.1268939 C28.0962528,29.419401 28.6079527,29.5760438 29.1317441,29.5768939 C29.8777107,29.5595848 30.5840837,29.2376944 31.0865741,28.6860884 C31.5890645,28.1344824 31.8438759,27.4012379 31.7917441,26.6568939 L31.9317441,26.6568939 C32.8467227,26.6532068 33.699012,26.1913936 34.2017441,25.4268939 C34.5976184,24.8407311 34.7417192,24.1202267 34.6017441,23.4268939 C34.5586203,23.2075338 34.4845467,22.9954138 34.3817441,22.7968939 C34.6028029,22.7077918 34.8112417,22.5901247 35.0017441,22.4468939 C36.3489761,21.8747393 37.5590887,21.0225473 38.5517441,19.9468939 L38.6117441,19.9468939 C38.7083107,19.9473059 38.8038253,19.9268385 38.8917441,19.8868939 L45.0317441,17.4268939 C45.4071623,17.2819147 45.6076161,16.8722917 45.4917441,16.4868939 Z M11.0117441,22.6668939 C10.7282782,23.0579067 10.2366009,23.2388184 9.76730361,23.1247836 C9.29800633,23.0107487 8.9441716,22.6243854 8.87174409,22.1468939 C8.82371003,21.8342209 8.89900474,21.5151148 9.08174409,21.2568939 L11.7317441,17.6268939 C11.9180609,17.370066 12.1985104,17.1974817 12.5117441,17.1468468 L12.7017441,17.1468468 C12.9524257,17.1446638 13.1974088,17.2216584 13.4017441,17.3668939 C13.6590661,17.5511443 13.8290815,17.8332975 13.8717441,18.1468939 C13.925376,18.4597646 13.8495792,18.7809986 13.6617441,19.0368939 L11.0117441,22.6668939 Z M14.1517441,24.9468939 C13.8647416,25.3282421 13.3790297,25.5032545 12.9147513,25.3926087 C12.450473,25.2819629 12.0959023,24.9066963 12.0117441,24.4368939 C11.96371,24.1242209 12.0390047,23.8051148 12.2217441,23.5468939 L15.9517441,18.4268939 C16.1359944,18.1695719 16.4181477,17.9995565 16.7317441,17.9568939 C16.7947356,17.9475875 16.8587526,17.9475875 16.9217441,17.9568939 C17.3796795,17.939308 17.8070232,18.1862451 18.0204621,18.5917791 C18.2339011,18.9973132 18.195505,19.4893765 17.9217441,19.8568939 L16.7917441,21.3168939 L16.7917441,21.3168939 L14.1517441,24.9468939 Z M17.2917441,27.2368939 C17.1092064,27.4956142 16.8296024,27.6693045 16.5167836,27.7183002 C16.2039648,27.7672959 15.8846446,27.687413 15.6317441,27.4968939 C15.3732546,27.3121225 15.2002035,27.0309145 15.1517441,26.7168939 C15.102595,26.4058589 15.1820079,26.0882076 15.3717441,25.8368939 L18.0217441,22.1968939 C18.2080112,21.953371 18.486707,21.7977357 18.7917441,21.7668939 L18.9817441,21.7668939 C19.2334235,21.768256 19.478304,21.8487167 19.6817441,21.9968939 C19.9410947,22.1812938 20.1149728,22.4626277 20.1639269,22.7770631 C20.2128809,23.0914984 20.1327604,23.412377 19.9417441,23.6668939 L18.9417441,25.1168939 L18.9417441,25.1168939 L17.2917441,27.2368939 Z M22.0217441,27.3468939 L20.4317441,29.5268939 C20.2464232,29.7766473 19.9692922,29.9423415 19.6615704,29.9873739 C19.3538487,30.0324064 19.0408597,29.9530712 18.7917441,29.7668939 C18.2612769,29.3760212 18.1452129,28.6305328 18.5317441,28.0968939 L19.5817441,26.6568939 L20.1217441,25.9168939 C20.3521982,25.5966529 20.7274547,25.4127773 21.1217441,25.4268939 C21.3732055,25.4295836 21.6176921,25.5099149 21.8217441,25.6568939 C22.0731407,25.853948 22.2355994,26.1431 22.2731389,26.4603087 C22.3106784,26.7775174 22.2202005,27.0966028 22.0217441,27.3468939 Z M25.5117441,29.0368939 C25.3411014,29.2906975 25.0763894,29.4660748 24.7761378,29.5242485 C24.4758862,29.5824223 24.1648293,29.5186002 23.9117441,29.3468939 L22.9117441,28.6768939 L23.2317441,28.2268939 C23.6282495,27.6889095 23.8068415,27.0209754 23.7317441,26.3568939 L25.2717441,27.3568939 C25.5357922,27.540812 25.7115785,27.8261487 25.7570861,28.1447022 C25.8025938,28.4632557 25.7137332,28.7863991 25.5117441,29.0368939 L25.5117441,29.0368939 Z" id="Shape"></path>
                <path d="M32.7917441,13.1668939 C30.6997264,14.47458 27.9445102,13.8494094 26.6217441,11.7668939 L24.8417441,8.90689391 C24.6532209,8.59718076 24.2701332,8.46667836 23.9317441,8.59689391 L20.7917441,9.76689391 C20.0237441,10.0868939 19.1597441,10.0868939 18.3917441,9.76689391 C17.8608149,9.54472713 17.4033039,9.17733195 17.0717441,8.70689391 L27.3917441,4.58689391 C28.7696144,4.04214547 30.256459,3.82973911 31.7317441,3.96689391 L31.4217441,3.20689391 C31.3471916,3.02074775 31.3471916,2.81304008 31.4217441,2.62689391 C31.452669,2.56732177 31.4932138,2.51326199 31.5417441,2.46689391 C29.9235686,2.34761449 28.2994277,2.59721929 26.7917441,3.19689391 L15.7917441,7.62689391 C15.6021769,7.70198166 15.4513518,7.85101417 15.3740029,8.03967001 C15.296654,8.22832586 15.2994489,8.44034261 15.3817441,8.62689391 C16.3311592,10.9913136 19.0125407,12.1443076 21.3817441,11.2068939 L23.9017441,10.2068939 L25.3517441,12.5368939 C26.1857307,13.8920028 27.5301138,14.854336 29.0817441,15.2068939 C29.5271688,15.3137439 29.9836832,15.3674514 30.4417441,15.3668982 C31.5644203,15.3680736 32.6641293,15.0489152 33.6117441,14.4468939 C33.8403941,14.300415 33.9735298,14.0430796 33.9610004,13.7718235 C33.9484709,13.5005674 33.7921798,13.2566007 33.5510004,13.1318235 C33.3098209,13.0070462 33.0203941,13.020415 32.7917441,13.1668939 Z" id="Path"></path>
            </g>
        </g>
    </g>
</svg>