<?xml version="1.0" encoding="UTF-8"?>
<svg width="21px" height="22px" viewBox="0 0 21 22" version="1.1" xmlns="http://www.w3.org/2000/svg" xmlns:xlink="http://www.w3.org/1999/xlink">
    <title>31A8052F-51E6-4802-8D49-F86C84472C66</title>
    <g id="Payment" stroke="none" stroke-width="1" fill="none" fill-rule="evenodd">
        <g id="Payment_Transfer_Info" transform="translate(-440.000000, -362.000000)" fill="#F16322" fill-rule="nonzero">
            <g id="iconfinder_layers_stack_layer_5507109-copy-3" transform="translate(440.000000, 362.000000)">
                <path d="M20.0454545,5.4 C20.0448611,5.72468767 19.8588284,6.02390329 19.5586364,6.183 L10.9677273,10.683 C10.6723899,10.8437695 10.3085192,10.8437695 10.0131818,10.683 L1.42227273,6.183 C1.12320366,6.02319491 0.938367552,5.72411426 0.938367552,5.4 C0.938367552,5.07588574 1.12320366,4.77680509 1.42227273,4.617 L10.0131818,0.117 C10.3085192,-0.0437695155 10.6723899,-0.0437695155 10.9677273,0.117 L19.5586364,4.617 C19.8588284,4.77609671 20.0448611,5.07531233 20.0454545,5.4 Z" id="Path"></path>
                <path d="M19.5586364,10.017 L17.8690909,9.117 L11.8936364,12.249 C11.4684677,12.4762075 10.9887011,12.5970411 10.5,12.6 C10.007717,12.6010636 9.52379816,12.4800133 9.09681818,12.249 L3.13090909,9.126 L1.44136364,10.026 C1.14229457,10.1858051 0.957458461,10.4848857 0.957458461,10.809 C0.957458461,11.1331143 1.14229457,11.4321949 1.44136364,11.592 L10.0322727,16.092 C10.3276101,16.2527695 10.6914808,16.2527695 10.9868182,16.092 L19.5777273,11.592 C19.8767963,11.4321949 20.0616324,11.1331143 20.0616324,10.809 C20.0616324,10.4848857 19.8767963,10.1858051 19.5777273,10.026 L19.5586364,10.017 Z" id="Path"></path>
                <path d="M19.5586364,15.417 L17.8690909,14.517 L11.8936364,17.649 C11.4684677,17.8762075 10.9887011,17.9970411 10.5,18 C10.007717,18.0010636 9.52379816,17.8800133 9.09681818,17.649 L3.13090909,14.526 L1.44136364,15.426 C1.14229457,15.5858051 0.957458461,15.8848857 0.957458461,16.209 C0.957458461,16.5331143 1.14229457,16.8321949 1.44136364,16.992 L10.0322727,21.492 C10.3276101,21.6527695 10.6914808,21.6527695 10.9868182,21.492 L19.5777273,16.992 C19.8767963,16.8321949 20.0616324,16.5331143 20.0616324,16.209 C20.0616324,15.8848857 19.8767963,15.5858051 19.5777273,15.426 L19.5586364,15.417 Z" id="Path"></path>
            </g>
        </g>
    </g>
</svg>