<?xml version="1.0" encoding="UTF-8"?>
<svg width="28px" height="32px" viewBox="0 0 28 32" version="1.1" xmlns="http://www.w3.org/2000/svg" xmlns:xlink="http://www.w3.org/1999/xlink">
    <title>C32F494B-B14D-47FB-8B78-21FC3D8D869F</title>
    <g id="Review-&amp;-Submit" stroke="none" stroke-width="1" fill="none" fill-rule="evenodd">
        <g id="Review_Submit_01" transform="translate(-458.000000, -1043.000000)" fill="#F16322" fill-rule="nonzero">
            <g id="iconfinder_layers_stack_layer_5507109" transform="translate(458.000000, 1043.000000)">
                <path d="M27.6363636,8.71428571 C27.6355159,9.17812524 27.3697549,9.60557613 26.9409091,9.83285714 L14.6681818,16.2614286 C14.2462713,16.4910993 13.726456,16.4910993 13.3045455,16.2614286 L1.03181818,9.83285714 C0.604576656,9.60456415 0.340525075,9.17730609 0.340525075,8.71428571 C0.340525075,8.25126534 0.604576656,7.82400728 1.03181818,7.59571429 L13.3045455,1.16714286 C13.726456,0.937472121 14.2462713,0.937472121 14.6681818,1.16714286 L26.9409091,7.59571429 C27.3697549,7.8229953 27.6355159,8.25044619 27.6363636,8.71428571 Z" id="Path"></path>
                <path d="M26.9409091,15.31 L24.5272727,14.0242857 L15.9909091,18.4985714 C15.3835253,18.8231536 14.6981444,18.995773 14,19 C13.2967386,19.0015194 12.6054259,18.8285904 11.9954545,18.4985714 L3.47272727,14.0371429 L1.05909091,15.3228571 C0.631849383,15.5511501 0.367797802,15.9784082 0.367797802,16.4414286 C0.367797802,16.9044489 0.631849383,17.331707 1.05909091,17.56 L13.3318182,23.9885714 C13.7537287,24.2182422 14.273544,24.2182422 14.6954545,23.9885714 L26.9681818,17.56 C27.3954233,17.331707 27.6594749,16.9044489 27.6594749,16.4414286 C27.6594749,15.9784082 27.3954233,15.5511501 26.9681818,15.3228571 L26.9409091,15.31 Z" id="Path"></path>
                <path d="M26.9409091,23.0242857 L24.5272727,21.7385714 L15.9909091,26.2128571 C15.3835253,26.5374393 14.6981444,26.7100587 14,26.7142857 C13.2967386,26.7158051 12.6054259,26.5428762 11.9954545,26.2128571 L3.47272727,21.7514286 L1.05909091,23.0371429 C0.631849383,23.2654358 0.367797802,23.6926939 0.367797802,24.1557143 C0.367797802,24.6187347 0.631849383,25.0459927 1.05909091,25.2742857 L13.3318182,31.7028571 C13.7537287,31.9325279 14.273544,31.9325279 14.6954545,31.7028571 L26.9681818,25.2742857 C27.3954233,25.0459927 27.6594749,24.6187347 27.6594749,24.1557143 C27.6594749,23.6926939 27.3954233,23.2654358 26.9681818,23.0371429 L26.9409091,23.0242857 Z" id="Path"></path>
            </g>
        </g>
    </g>
</svg>