<?xml version="1.0" encoding="UTF-8"?>
<svg width="115px" height="24px" viewBox="0 0 115 24" version="1.1" xmlns="http://www.w3.org/2000/svg" xmlns:xlink="http://www.w3.org/1999/xlink">
    <title>76399EE3-9D98-4327-B751-25D420C2B254</title>
    <defs>
        <polygon id="path-1" points="0 23.847285 114.135 23.847285 114.135 0 0 0"></polygon>
    </defs>
    <g id="Payment" stroke="none" stroke-width="1" fill="none" fill-rule="evenodd">
        <g id="Payment_Info_Same" transform="translate(-447.000000, -1101.000000)">
            <g id="Group-4-Copy-4" transform="translate(447.000000, 1101.000000)">
                <path d="M30.7603905,23.847285 L3.1716405,23.847285 C1.4386155,23.847285 0.0338205,22.442385 0.0338205,20.709465 L0.0338205,3.13782 C0.0338205,1.404795 1.4386155,0 3.1716405,0 L30.7603905,0 C32.4933105,0 33.8982105,1.404795 33.8982105,3.13782 L33.8982105,20.709465 C33.8982105,22.442385 32.4933105,23.847285 30.7603905,23.847285" id="Fill-3" fill="#0066B2"></path>
                <path d="M70.904169,23.847285 L43.315314,23.847285 C41.582394,23.847285 40.177494,22.442385 40.177494,20.709465 L40.177494,3.13782 C40.177494,1.404795 41.582394,0 43.315314,0 L70.904169,0 C72.637089,0 74.041989,1.404795 74.041989,3.13782 L74.041989,20.709465 C74.041989,22.442385 72.637089,23.847285 70.904169,23.847285" id="Fill-5" fill="#36495D"></path>
                <path d="M111.047905,23.847285 L83.4591555,23.847285 C81.7261305,23.847285 80.3213355,22.442385 80.3213355,20.709465 L80.3213355,3.13782 C80.3213355,1.404795 81.7261305,0 83.4591555,0 L111.047905,0 C112.78093,0 114.185725,1.404795 114.185725,3.13782 L114.185725,20.709465 C114.185725,22.442385 112.78093,23.847285 111.047905,23.847285" id="Fill-7" fill="#006FCF"></path>
                <polygon id="Fill-21" fill="#FFFFFF" points="15.5283135 15.6594375 13.7646285 15.6594375 14.8670235 8.8846275 16.6308135 8.8846275"></polygon>
                <path d="M12.280695,8.884575 L10.599015,13.544265 L10.400145,12.54078 L10.400355,12.5412 L9.80679,9.49473 C9.80679,9.49473 9.735075,8.884575 8.970045,8.884575 L6.190275,8.884575 L6.157725,8.999235 C6.157725,8.999235 7.00812,9.176055 8.00268,9.77382 L9.535155,15.659385 L11.372865,15.659385 L14.179095,8.884575 L12.280695,8.884575 Z" id="Fill-23" fill="#FFFFFF"></path>
                <path d="M24.213315,13.2628965 L25.14015,10.7275665 L25.661475,13.2628965 L24.213315,13.2628965 Z M26.154135,15.6594165 L27.773655,15.6594165 L26.361615,8.8846065 L24.94359,8.8846065 C24.288705,8.8846065 24.129315,9.3894465 24.129315,9.3894465 L21.498855,15.6594165 L23.3373,15.6594165 L23.705115,14.6532015 L25.947285,14.6532015 L26.154135,15.6594165 Z" id="Fill-25" fill="#FFFFFF"></path>
                <path d="M21.6367725,10.5137655 L21.8884575,9.0586755 C21.8884575,9.0586755 21.1116675,8.7633105 20.3020125,8.7633105 C19.4267325,8.7633105 17.3481525,9.1461405 17.3481525,11.0061105 C17.3481525,12.7565655 19.7877225,12.7784055 19.7877225,13.6973655 C19.7877225,14.6164305 17.5996275,14.4521055 16.8775425,13.8724005 L16.6151475,15.3933255 C16.6151475,15.3933255 17.4026475,15.7761555 18.6062625,15.7761555 C19.8096675,15.7761555 21.6258525,15.1525605 21.6258525,13.4567055 C21.6258525,11.6952255 19.1642325,11.5312155 19.1642325,10.7654505 C19.1642325,9.9994755 20.8820325,10.0979655 21.6367725,10.5137655" id="Fill-27" fill="#FFFFFF"></path>
                <path d="M10.400334,12.541221 L9.806769,9.494751 C9.806769,9.494751 9.735159,8.884596 8.970024,8.884596 L6.190254,8.884596 L6.157704,8.999256 C6.157704,8.999256 7.493829,9.276246 8.775669,10.313646 C10.000704,11.305266 10.400334,12.541221 10.400334,12.541221" id="Fill-29" fill="#F9A533"></path>
                <mask id="mask-2" fill="white">
                    <use xlink:href="#path-1"></use>
                </mask>
                <g id="Clip-32"></g>
                <polygon id="Fill-31" fill="#F16522" mask="url(#mask-2)" points="54.26463 17.035515 59.954055 17.035515 59.954055 6.81177 54.26463 6.81177"></polygon>
                <path d="M54.6260925,11.923632 C54.6260925,9.849567 55.5973425,8.002407 57.1094475,6.811707 C56.0032725,5.940942 54.6080325,5.421507 53.0912025,5.421507 C49.5004125,5.421507 46.5894975,8.332737 46.5894975,11.923632 C46.5894975,15.514527 49.5004125,18.425757 53.0912025,18.425757 C54.6080325,18.425757 56.0032725,17.906322 57.1094475,17.035557 C55.5973425,15.844857 54.6260925,13.997697 54.6260925,11.923632" id="Fill-33" fill="#E41B24" mask="url(#mask-2)"></path>
                <path d="M67.4265585,15.9523875 L67.4265585,15.7002825 L67.3606185,15.7002825 L67.2849135,15.8738475 L67.2093135,15.7002825 L67.1433735,15.7002825 L67.1433735,15.9523875 L67.1894685,15.9523875 L67.1894685,15.7621275 L67.2605535,15.9263475 L67.3088535,15.9263475 L67.3799385,15.7617075 L67.3799385,15.9523875 L67.4265585,15.9523875 Z M67.0091835,15.9523875 L67.0091835,15.7431225 L67.0937085,15.7431225 L67.0937085,15.7007025 L66.8784585,15.7007025 L66.8784585,15.7431225 L66.9629835,15.7431225 L66.9629835,15.9523875 L67.0091835,15.9523875 Z M67.6296285,11.9232225 C67.6296285,15.5145375 64.7187135,18.4253475 61.1278185,18.4253475 C59.6109885,18.4253475 58.2156435,17.9058075 57.1098885,17.0351475 C58.6220985,15.8448675 59.5930335,13.9972875 59.5930335,11.9232225 C59.5930335,9.8491575 58.6220985,8.0019975 57.1098885,6.8112975 C58.2156435,5.9409525 59.6109885,5.4215175 61.1278185,5.4215175 C64.7187135,5.4215175 67.6296285,8.3323275 67.6296285,11.9232225 L67.6296285,11.9232225 Z" id="Fill-34" fill="#F89E1C" mask="url(#mask-2)"></path>
                <path d="M114.162531,19.1463825 L114.162531,13.5992325 L113.866326,13.5992325 L93.169566,13.5992325 L92.634171,14.3568075 L92.104866,13.5992325 L86.067786,13.5992325 L86.067786,19.5105225 L92.081766,19.5105225 L92.605926,18.7417125 L93.146991,19.5105225 L96.911451,19.5105225 L96.911451,18.2350875 L96.871761,18.2350875 C97.339851,18.2350875 97.765206,18.1505625 98.142051,18.0105975 L98.142051,19.5105225 L100.767366,19.5105225 L100.767366,18.6508875 L101.428026,19.5105225 L112.818426,19.5105225 C113.146236,19.5105225 113.453571,19.4548725 113.729091,19.3549125 C113.884176,19.2986325 114.029286,19.2284925 114.162531,19.1463825 L114.162531,19.1463825 Z M110.016606,11.5650675 L112.556661,11.5650675 L112.556661,5.6531475 L109.845561,5.6531475 L109.845561,6.5985675 L109.242126,5.6531475 L106.878576,5.6531475 L106.878576,6.8485725 L106.348956,5.6531475 L102.441696,5.6531475 C102.254061,5.6531475 102.070731,5.6670075 101.893281,5.6946225 C101.742291,5.7183525 101.595291,5.7521625 101.453541,5.7963675 C101.342136,5.8311225 101.233881,5.8723875 101.129616,5.9200575 C101.007186,5.9763375 100.890111,6.0412275 100.779021,6.1153575 L100.779021,5.9120775 L100.779021,5.6531475 L88.027296,5.6531475 L87.679956,6.6840375 L87.326631,5.6531475 L84.359541,5.6531475 L84.359541,6.8612775 L83.824146,5.6531475 L81.403686,5.6531475 L80.321346,8.1818625 L80.321346,11.0388075 L80.321346,11.5650675 L82.035681,11.5650675 L82.354566,10.7164575 L82.958316,10.7164575 L83.283081,11.5650675 L96.473496,11.5650675 L96.473496,10.7051175 L97.134051,11.5650675 L100.779021,11.5650675 L100.779021,11.3758575 L100.779021,11.1350925 C100.873206,11.1959925 100.970856,11.2492275 101.070291,11.2956375 C101.169936,11.3417325 101.271681,11.3811075 101.374791,11.4142875 C101.502051,11.4558675 101.631516,11.4872625 101.760456,11.5105725 C101.970876,11.5487925 102.180246,11.5650675 102.379221,11.5650675 L104.560491,11.5650675 L104.879376,10.7164575 L105.483126,10.7164575 L105.807681,11.5650675 L109.464201,11.5650675 L109.464201,10.6878975 L110.016606,11.5650675 Z" id="Fill-35" fill="#F7F7F7" mask="url(#mask-2)"></path>
                <path d="M90.185613,15.3703725 L90.185613,14.5614525 L86.996238,14.5614525 L86.996238,18.5484075 L90.185613,18.5484075 L90.185613,17.7450525 L87.953313,17.7450525 L87.953313,16.9423275 L90.134583,16.9423275 L90.134583,16.1448525 L87.953313,16.1448525 L87.953313,15.3703725 L90.185613,15.3703725 Z M93.506028,18.5484075 L94.702188,18.5484075 L93.101568,16.5378675 L94.690743,14.5614525 L93.529128,14.5614525 L92.549268,15.8258625 L91.575393,14.5614525 L90.379443,14.5614525 L91.974078,16.5547725 L90.384903,18.5484075 L91.546938,18.5484075 L92.526483,17.2667775 L93.506028,18.5484075 Z M94.912818,14.5614525 L94.912818,18.5484075 L95.869683,18.5484075 L95.869683,17.2323375 L97.071303,17.2323375 C97.942908,17.2323375 98.483553,16.6631325 98.483553,15.8941125 C98.483553,15.1027275 97.954248,14.5614525 97.105323,14.5614525 L94.912818,14.5614525 Z M97.521228,15.8996775 C97.521228,16.1678475 97.350498,16.3896075 97.014393,16.3896075 L95.869683,16.3896075 L95.869683,15.4103775 L97.014393,15.4103775 C97.350498,15.4103775 97.521228,15.6264675 97.521228,15.8996775 L97.521228,15.8996775 Z M99.958908,17.1130575 L100.408938,17.1130575 L101.599113,18.5484075 L102.789393,18.5484075 L101.462613,17.0788275 C102.140388,16.9533525 102.544638,16.4637375 102.544638,15.8258625 C102.544638,15.0796275 102.015018,14.5614525 101.166408,14.5614525 L99.002148,14.5614525 L99.002148,18.5484075 L99.958908,18.5484075 L99.958908,17.1130575 Z M101.080938,15.3759375 C101.422713,15.3759375 101.604993,15.5980125 101.604993,15.8716425 C101.604993,16.1448525 101.422713,16.3610475 101.080938,16.3610475 L99.958908,16.3610475 L99.958908,15.3759375 L101.080938,15.3759375 Z M106.423338,15.3703725 L106.423338,14.5614525 L103.233858,14.5614525 L103.233858,18.5484075 L106.423338,18.5484075 L106.423338,17.7450525 L104.190723,17.7450525 L104.190723,16.9423275 L106.371888,16.9423275 L106.371888,16.1448525 L104.190723,16.1448525 L104.190723,15.3703725 L106.423338,15.3703725 Z M109.048548,17.7509325 L107.004303,17.7509325 L107.004303,18.5484075 L109.019988,18.5484075 C109.880148,18.5484075 110.392863,18.0242475 110.392863,17.2781175 C110.392863,16.5662175 109.931598,16.1507325 109.156908,16.1507325 L108.234168,16.1507325 C108.006318,16.1507325 107.846928,16.0024725 107.846928,15.7689525 C107.846928,15.5297625 108.006318,15.3703725 108.234168,15.3703725 L109.965408,15.3703725 L110.318838,14.5614525 L108.262413,14.5614525 C107.402568,14.5614525 106.889853,15.0855075 106.889853,15.8030775 C106.889853,16.5378675 107.374218,16.9592325 108.131793,16.9592325 L109.048548,16.9592325 C109.276083,16.9592325 109.441353,17.1071775 109.441353,17.3466825 C109.441353,17.5912275 109.276083,17.7509325 109.048548,17.7509325 L109.048548,17.7509325 Z M112.841673,17.7509325 L110.797113,17.7509325 L110.797113,18.5484075 L112.812798,18.5484075 C113.673378,18.5484075 114.185778,18.0242475 114.185778,17.2781175 C114.185778,16.5662175 113.724408,16.1507325 112.950033,16.1507325 L112.027293,16.1507325 C111.799128,16.1507325 111.640053,16.0024725 111.640053,15.7689525 C111.640053,15.5297625 111.799128,15.3703725 112.027293,15.3703725 L113.758218,15.3703725 L114.111963,14.5614525 L112.055538,14.5614525 C111.195378,14.5614525 110.682978,15.0855075 110.682978,15.8030775 C110.682978,16.5378675 111.167343,16.9592325 111.924918,16.9592325 L112.841673,16.9592325 C113.069313,16.9592325 113.234478,17.1071775 113.234478,17.3466825 C113.234478,17.5912275 113.069313,17.7509325 112.841673,17.7509325 L112.841673,17.7509325 Z" id="Fill-36" fill="#006FCF" mask="url(#mask-2)"></path>
                <path d="M83.932275,10.6024695 L85.008735,10.6024695 L83.30574,6.6156195 L82.04721,6.6156195 L80.338335,10.6024695 L81.357885,10.6024695 L81.6942,9.7480845 L83.5905,9.7480845 L83.932275,10.6024695 Z M82.34898,8.1023145 L82.639515,7.3561845 L82.929945,8.1023145 L83.282955,8.9850495 L82.00164,8.9850495 L82.34898,8.1023145 Z M86.159325,7.8802395 L86.136225,6.8037795 L87.24135,10.6024695 L88.107075,10.6024695 L89.21178,6.8265645 L89.188995,7.8744645 L89.188995,10.6024695 L90.1173,10.6024695 L90.1173,6.6156195 L88.43163,6.6156195 L87.674055,9.4405395 L86.910915,6.6156195 L85.230705,6.6156195 L85.230705,10.6024695 L86.159325,10.6024695 L86.159325,7.8802395 Z M94.09281,7.4244345 L94.09281,6.6156195 L90.903435,6.6156195 L90.903435,10.6024695 L94.09281,10.6024695 L94.09281,9.7880895 L91.860195,9.7880895 L91.860195,8.9963895 L94.04136,8.9963895 L94.04136,8.1992295 L91.860195,8.1992295 L91.860195,7.4244345 L94.09281,7.4244345 Z M95.74992,9.1674345 L96.19995,9.1674345 L97.39044,10.6024695 L98.58072,10.6024695 L97.253625,9.1329945 C97.9314,9.0077295 98.335965,8.5177995 98.335965,7.8802395 C98.335965,7.1341095 97.80603,6.6156195 96.95742,6.6156195 L94.79316,6.6156195 L94.79316,10.6024695 L95.74992,10.6024695 L95.74992,9.1674345 Z M96.871845,7.4303145 C97.21362,7.4303145 97.396005,7.6523895 97.396005,7.9258095 C97.396005,8.1992295 97.21362,8.4154245 96.871845,8.4154245 L95.74992,8.4154245 L95.74992,7.4303145 L96.871845,7.4303145 Z M98.88249,10.6024695 L99.83925,10.6024695 L99.83925,8.8479195 L99.83925,6.6156195 L98.88249,6.6156195 L98.88249,8.8251345 L98.88249,10.6024695 Z M102.2826,10.6024695 L102.33384,10.6024695 L102.726645,9.7539645 L102.43632,9.7539645 C101.78112,9.7539645 101.393985,9.3439395 101.393985,8.6378145 L101.393985,8.5809045 C101.393985,7.9485945 101.741115,7.4758845 102.424875,7.4758845 L103.46133,7.4758845 L103.46133,6.6156195 L102.34518,6.6156195 C101.115105,6.6156195 100.443,7.4416545 100.443,8.5750245 L100.443,8.6433795 C100.443,9.8280945 101.132325,10.5969045 102.2826,10.6024695 L102.2826,10.6024695 Z M106.45698,10.6024695 L107.53323,10.6024695 L105.830865,6.6156195 L104.5716,6.6156195 L102.86346,10.6024695 L103.8828,10.6024695 L104.218905,9.7480845 L106.115415,9.7480845 L106.45698,10.6024695 Z M104.874,8.1023145 L105.164325,7.3561845 L105.45444,8.1023145 L105.80808,8.9850495 L104.52645,8.9850495 L104.874,8.1023145 Z M108.689595,8.2161345 L108.678255,7.8858045 L108.877545,8.2161345 L110.403615,10.6024695 L111.520395,10.6024695 L111.520395,6.6156195 L110.586315,6.6156195 L110.586315,8.9223645 L110.597655,9.2184645 L110.42115,8.9223645 L108.928575,6.6156195 L107.755935,6.6156195 L107.755935,10.6024695 L108.689595,10.6024695 L108.689595,8.2161345 Z" id="Fill-37" fill="#006FCF" mask="url(#mask-2)"></path>
            </g>
        </g>
    </g>
</svg>