<?xml version="1.0" encoding="UTF-8"?>
<svg width="50px" height="38px" viewBox="0 0 50 38" version="1.1" xmlns="http://www.w3.org/2000/svg" xmlns:xlink="http://www.w3.org/1999/xlink">
    <title>44499BC2-B832-401F-B99F-748470CAD1DD</title>
    <g id="Driver-Details" stroke="none" stroke-width="1" fill="none" fill-rule="evenodd">
        <g id="Violations_Hover" transform="translate(-467.000000, -1869.000000)">
            <g id="iconfinder_crash-collision-accident-car_2048254" transform="translate(467.000000, 1869.000000)">
                <path d="M-4.09157483e-07,10.2902607 L-4.09157483e-07,11.8735741 L0.781093362,11.8735741 C2.15093721,11.8735741 3.46968727,12.398393 4.47640603,13.3395962 L11.0214061,19.4598105 C12.3067189,20.6617475 13.9709377,21.3666326 15.7175005,21.4516688 L21.8414065,21.8968971 C21.8476661,21.8969734 21.8539264,21.8969734 21.8601861,21.8968971 C24.064093,22.0028184 25.7840928,23.8302893 25.7840928,26.0656468 L25.7840928,30.7942831 L27.3464368,30.7942831 L27.3464368,26.0656468 C27.3464368,23.0009318 24.9572178,20.4622325 21.9364363,20.3165759 L15.809405,19.8713475 C15.8031454,19.8712712 15.7968851,19.8712712 15.7906255,19.8713475 C14.4098442,19.8049223 13.0990627,19.2468908 12.0834374,18.29719 L5.53531233,12.173804 C4.24046855,10.9631898 2.54328094,10.2902607 0.781249622,10.2902607 L-4.09157483e-07,10.2902607 Z" id="path28902" fill="#4E5552"></path>
                <path d="M-4.09157482e-07,13.4479112 L-4.09157482e-07,15.0312246 L1.00999963,15.0312246 C1.21609313,15.0312246 1.41359353,15.112012 1.55937464,15.259823 L5.99281252,19.7565097 L-4.09157482e-07,19.7565097 L-4.09157482e-07,21.3400026 L7.87859366,21.3400026 C8.19447266,21.3398643 8.47918521,21.1469387 8.60003648,20.8511419 C8.72088775,20.5553451 8.65409286,20.2148933 8.43078265,19.9884593 L2.66390716,14.1404088 C2.22562605,13.6963773 1.62984458,13.4477316 1.01000081,13.4477316 L-4.09157482e-07,13.4479112 Z" id="path28904" fill="#4E5552"></path>
                <path d="M23.4584379,30.0151335 C23.1759769,30.0098956 22.9127323,30.1596285 22.7699888,30.4067215 C22.6272454,30.6538146 22.6272454,30.9597659 22.7699888,31.2068589 C22.9127323,31.453952 23.1759769,31.6036848 23.4584379,31.5984469 L26.5648446,31.5984469 C27.0026556,31.5984469 27.3398444,31.9407462 27.3398444,32.3839399 C27.3398444,32.8273729 27.0026574,33.1694328 26.5648446,33.1694328 L22.6835945,33.1694328 C22.4011336,33.1641949 22.1378889,33.3139278 21.9951455,33.5610208 C21.8524021,33.8081139 21.8524021,34.1140651 21.9951455,34.3611582 C22.1378889,34.6082512 22.4011336,34.7579841 22.6835945,34.7527462 L26.5648446,34.7527462 C27.6317196,34.7527462 28.3946882,33.9414612 28.6703132,32.9438265 C28.817946,32.7957608 28.9013281,32.5942055 28.9020336,32.3837005 C28.9020336,31.08428 27.8467216,30.0148942 26.5648464,30.0148942 L23.4584379,30.0151335 Z" id="path28906" fill="#4E5552"></path>
                <path d="M15.1162503,25.3729098 C11.6842189,25.3729098 8.88531277,28.2101036 8.88546868,31.688091 C8.88531277,35.1660187 11.6842189,38.0000408 15.1162503,38.0000408 C18.5482817,38.0000408 21.3470319,35.1660187 21.3470319,31.688091 C21.3470319,28.2101036 18.5482817,25.3729098 15.1162503,25.3729098 Z M15.1162503,26.9562831 C17.7043752,26.9562831 19.7848445,29.066091 19.7848445,31.688091 C19.7848445,34.3100911 17.7043752,36.4166675 15.1162503,36.4166675 C12.5281254,36.4166675 10.4475002,34.3100911 10.4476561,31.688091 C10.4475002,29.066091 12.5281254,26.9562831 15.1162503,26.9562831 Z" id="path28908" fill="#4E5552" fill-rule="nonzero"></path>
                <path d="M15.1162503,28.5273886 C13.4042188,28.5273886 11.9978128,29.953017 11.9978128,31.688091 C11.9978128,33.4232249 13.4042188,34.845562 15.1162503,34.845562 C16.8284377,34.845562 18.2315632,33.4232249 18.2315632,31.688091 C18.2315632,29.953017 16.8284377,28.5273886 15.1162503,28.5273886 Z M15.1162503,30.1108816 C15.9843753,30.1108816 16.6693751,30.8090044 16.6693751,31.688091 C16.6693751,32.5671178 15.9843753,33.2621887 15.1162503,33.2621887 C14.2484377,33.2621887 13.5601562,32.5671178 13.5601562,31.688091 C13.5601562,30.8090044 14.2484377,30.1108816 15.1162503,30.1108816 Z" id="path28910" fill="#4E5552" fill-rule="nonzero"></path>
                <polygon id="path28912" fill="#4E5552" points="-4.09157482e-07 33.1694328 -4.09157482e-07 34.7527462 7.10953124 34.7527462 7.10953124 33.1694328"></polygon>
                <polygon id="path28914" fill="#4E5552" points="-4.09157482e-07 30.0151335 -4.09157482e-07 31.5984469 6.33156213 31.5984469 6.33156213 30.0151335"></polygon>
                <path d="M49.9939079,11.6397095 L44.7273452,14.9889757 C44.2084396,15.322897 43.6395327,15.5712435 43.0429703,15.7220466 L34.3496889,17.9270042 C32.074376,18.5026892 30.4673445,20.5822168 30.4684376,22.958683 L30.4684376,27.2142043 C30.4684376,30.0678548 32.7692197,32.3973581 35.5854698,32.3973581 L37.2150013,32.3973581 L38.0296885,32.3973581 C38.312151,32.4024652 38.5753981,32.2527329 38.718143,32.0056388 C38.8608879,31.7585448 38.8608879,31.4525916 38.718143,31.2054976 C38.5753981,30.9584036 38.312151,30.8086712 38.0296885,30.8139115 L37.2150013,30.8139115 L35.5854698,30.8139115 C33.6131263,30.8139115 32.0370325,29.2115682 32.0370325,27.2142043 L32.0370325,22.958683 C32.0362512,21.3017034 33.1406262,19.8654829 34.7281259,19.4641191 L43.4243766,17.2589821 C44.1823456,17.067486 44.9039076,16.7521159 45.5634393,16.3281317 L50.0000018,13.5075741 L49.9939079,11.6397095 Z" id="path28918" fill="#4E5552"></path>
                <path d="M43.7437515,25.3326956 C40.3017203,25.3326956 37.4946887,28.1777886 37.4946887,31.6663682 C37.4946887,35.1549478 40.3017203,38.0000408 43.7437515,38.0000408 C47.1857832,38.0000408 49.9928142,35.1549478 49.9928142,31.6663682 C49.9928142,28.1777886 47.1857832,25.3326956 43.7437515,25.3326956 L43.7437515,25.3326956 Z M43.7437515,26.9160689 C46.3414078,26.9160689 48.4304702,29.033417 48.4304702,31.6663682 C48.4304702,34.2993194 46.3414078,36.4166675 43.7437515,36.4166675 C41.1459392,36.4166675 39.0568762,34.2993194 39.0568762,31.6663682 C39.0568762,29.033417 41.1459392,26.9160689 43.7437515,26.9160689 Z" id="circle28924" fill="#4E5552" fill-rule="nonzero"></path>
                <path d="M43.7437515,28.4995618 C42.0273451,28.4995618 40.6192201,29.9267461 40.6192201,31.6663682 C40.6192201,33.40611 42.0273451,34.8331746 43.7437515,34.8331746 C45.4601578,34.8331746 46.8682828,33.40611 46.8682828,31.6663682 C46.8682828,29.9267461 45.4601578,28.4995618 43.7437515,28.4995618 Z M43.7437515,30.0830548 C44.615783,30.0830548 45.3059389,30.782554 45.3059389,31.6663682 C45.3059389,32.5501824 44.615783,33.2498611 43.7437515,33.2498611 C42.8717205,33.2498611 42.1814075,32.5501824 42.1814075,31.6663682 C42.1814075,30.782554 42.8717205,30.0830548 43.7437515,30.0830548 Z" id="circle28926" fill="#4E5552" fill-rule="nonzero"></path>
                <path d="M25.7378131,0.00111718506 C25.389966,0.0197028673 25.096286,0.269456759 25.0178131,0.613425859 L22.9093758,9.86041187 L18.3537506,7.22237402 C18.0492679,7.04764844 17.6672919,7.09943387 17.4188219,7.3491246 C17.170352,7.59881534 17.1159969,7.98550471 17.2857818,8.29558979 L21.1915628,15.4177474 C21.3206655,15.6773173 21.5797216,15.8443159 21.866404,15.8527789 C22.1530864,15.8612418 22.4212934,15.7098082 22.5650832,15.4582943 C22.7088729,15.2067803 22.7051225,14.8956323 22.5553132,14.6477537 L20.0106252,10.0057095 L23.0467192,11.762267 C23.2609957,11.8871596 23.5209486,11.9019018 23.7476343,11.8020165 C23.97432,11.7021312 24.140991,11.4994044 24.197032,11.2554009 L25.9179696,3.70620702 L27.382657,8.16279924 C27.4687454,8.42194777 27.6806706,8.61773383 27.9432186,8.68067128 C28.2057666,8.74360873 28.4817734,8.66478869 28.6732819,8.47218507 L31.2454695,5.86819762 L31.2454695,9.49261973 C31.2442187,9.7812552 31.3980359,10.0477127 31.6469055,10.1880269 C31.895775,10.3283411 32.2002623,10.3202786 32.4415636,10.1669851 L36.3351574,7.70219135 L33.6714072,13.0956781 C33.5442545,13.3489877 33.5608013,13.6519363 33.7147635,13.8894733 C33.8687257,14.1270103 34.1364844,14.2626957 34.4163531,14.2450004 C34.6962218,14.227305 34.9452664,14.0589436 35.0689076,13.8038545 L38.9745327,5.89291258 C39.1307429,5.57609658 39.0603646,5.19267192 38.8021915,4.95398966 C38.5440184,4.71530739 38.1608548,4.67943034 37.8639078,4.8661346 L32.8078134,8.06699136 L32.8078134,3.95694718 C32.8090443,3.63618569 32.6192114,3.34636296 32.3270756,3.22299234 C32.0349397,3.09962172 31.6982273,3.16708141 31.474376,3.39382906 L28.4628136,6.44621652 L26.5190633,0.539280975 C26.4072005,0.202633637 26.0878151,-0.0173014034 25.7378131,0.00129671262 L25.7378131,0.00111718506 Z" id="path28928" fill="#F16322"></path>
            </g>
        </g>
    </g>
</svg>