<?xml version="1.0" encoding="UTF-8"?>
<svg width="31px" height="31px" viewBox="0 0 31 31" version="1.1" xmlns="http://www.w3.org/2000/svg" xmlns:xlink="http://www.w3.org/1999/xlink">
    <title>Instagram_nontransparent</title>
    <defs>
        <radialGradient cx="20.4994381%" cy="87.3920768%" fx="20.4994381%" fy="87.3920768%" r="110.2824%" id="radialGradient-1">
            <stop stop-color="#FAE100" offset="0%"></stop>
            <stop stop-color="#FADC04" offset="5.44%"></stop>
            <stop stop-color="#FBCE0E" offset="11.67%"></stop>
            <stop stop-color="#FCB720" offset="18.29%"></stop>
            <stop stop-color="#FE9838" offset="25.14%"></stop>
            <stop stop-color="#FF7950" offset="30.54%"></stop>
            <stop stop-color="#FF1C74" offset="49.22%"></stop>
            <stop stop-color="#6C1CD1" offset="100%"></stop>
        </radialGradient>
        <rect id="path-2" x="0" y="0" width="31" height="31" rx="3"></rect>
        <linearGradient x1="58.2371646%" y1="88.5512159%" x2="41.8417883%" y2="11.3608773%" id="linearGradient-3">
            <stop stop-color="#833AB4" stop-opacity="0" offset="0%"></stop>
            <stop stop-color="#833AB4" offset="100%"></stop>
        </linearGradient>
        <linearGradient x1="60.5048093%" y1="60.5047823%" x2="-15.9715487%" y2="-15.9716059%" id="linearGradient-4">
            <stop stop-color="#833AB4" stop-opacity="0" offset="0%"></stop>
            <stop stop-color="#833AB4" offset="100%"></stop>
        </linearGradient>
        <linearGradient x1="40.2793567%" y1="33.2168435%" x2="5.2944048%" y2="-6.34929376%" id="linearGradient-5">
            <stop stop-color="#833AB4" stop-opacity="0" offset="0%"></stop>
            <stop stop-color="#833AB4" offset="100%"></stop>
        </linearGradient>
        <linearGradient x1="81.5887586%" y1="19.065856%" x2="17.2310239%" y2="82.5326174%" id="linearGradient-6">
            <stop stop-color="#833AB4" offset="0%"></stop>
            <stop stop-color="#9C3495" offset="9.22%"></stop>
            <stop stop-color="#DC2546" offset="29.27%"></stop>
            <stop stop-color="#FD1D1D" offset="39.2%"></stop>
            <stop stop-color="#FC6831" offset="55.89%"></stop>
            <stop stop-color="#FC9B40" offset="68.87%"></stop>
            <stop stop-color="#FCAF45" offset="75.21%"></stop>
            <stop stop-color="#FDB750" offset="78.06%"></stop>
            <stop stop-color="#FECB6A" offset="86.56%"></stop>
            <stop stop-color="#FFD87A" offset="94.15%"></stop>
            <stop stop-color="#FFDC80" offset="100%"></stop>
        </linearGradient>
    </defs>
    <g id="Instagram_nontransparent" stroke="none" stroke-width="1" fill="none" fill-rule="evenodd">
        <rect id="Rectangle" fill="#FFFFFF" x="1" y="2" width="28" height="26"></rect>
        <g id="Rectangle-Copy-2">
            <use fill="#FF0000" xlink:href="#path-2"></use>
            <use fill="url(#radialGradient-1)" xlink:href="#path-2"></use>
        </g>
        <path d="M30.4692688,25.4552307 C30.1873474,28.0987167 28.0987167,30.1873474 25.4552307,30.4692688 C21.9219894,30.8462677 18.3823624,31.0224686 14.8441544,30.9976349 L7.64427946,23.79776 C8.47892758,24.5283432 9.56687924,24.9732209 10.8293762,25.0207596 C13.9536896,25.1380692 17.0888825,25.1349945 20.2131958,25.0224152 C23.039032,24.9202423 25.0839081,22.8287735 25.1721268,20.0029373 C25.2662582,17.0025558 25.2662582,13.9943695 25.1721268,10.993988 C25.1319198,9.69033813 24.6742707,8.54325864 23.9155426,7.67526245 L30.9969254,14.7566452 C31.0248337,18.3239441 30.8493424,21.892662 30.4692688,25.4552307 Z" id="Path-Copy" fill="url(#linearGradient-3)" fill-rule="nonzero"></path>
        <path d="M19.1578827,12.1431961 C18.2501526,11.1548157 16.9476852,10.5346833 15.5,10.5346833 C12.7578888,10.5346833 10.5346833,12.7578888 10.5346833,15.5 C10.5346833,16.9476852 11.1548157,18.2501526 12.1431961,19.1578827 L23.7188196,30.9999357 C24.32689,30.9469572 24.9417804,31.0647398 25.5493778,30.9999357 C28.1933369,30.7177779 30.7176391,28.0805323 30.9997969,25.4365732 C31.0646011,24.8289758 30.9470215,24.3417805 31,23.7337102 L19.1578827,12.1431961 Z" id="Path-Copy-2" fill="url(#linearGradient-4)" fill-rule="nonzero"></path>
        <path d="M30.9399261,18.8393021 L21.6942292,9.59384155 C21.4785309,9.31073763 21.1386642,9.12696841 20.7552795,9.12696841 C20.1029816,9.12696841 19.5739059,9.65580746 19.5739059,10.308342 C19.5739059,10.6917267 19.7576751,11.0315933 20.0407791,11.2472916 L30.7746048,21.9813538 C30.8474503,20.9343185 30.9025574,19.8868103 30.9399261,18.8393021 L30.9399261,18.8393021 Z" id="Path-Copy-3" fill="url(#linearGradient-5)" fill-rule="nonzero"></path>
        <path d="M5.7573929,11.740181 C5.82196045,11.2841873 5.87115479,10.825592 5.9532242,10.3729095 C6.41844174,7.80889128 8.23366545,6.06438445 10.8291397,5.97498323 C13.9541626,5.8676071 17.0886459,5.86193083 20.2131958,5.97451018 C23.0380859,6.07621004 25.0839081,8.16791536 25.1721268,10.9937515 C25.2660217,13.9943695 25.2660217,17.0023193 25.1721268,20.0029373 C25.0839081,22.8287735 23.0387955,24.9202423 20.2134323,25.0221786 C17.0888825,25.1349945 13.9536896,25.1378327 10.8293762,25.0205231 C8.00401303,24.9143295 6.05090332,22.817894 5.86193083,19.9878006 C5.84561157,19.7430115 5.79310611,19.5003509 5.7573929,19.2567444 C5.7573929,16.7511444 5.7573929,14.2455444 5.7573929,11.740181 Z M15.5026016,23.3474426 C16.9325485,23.3474426 18.3639145,23.3902511 19.7919693,23.3375091 C22.0310211,23.2544937 23.408226,21.9182052 23.460495,19.6812821 C23.5252991,16.8939972 23.5252991,14.1029281 23.460495,11.3154068 C23.408226,9.07895662 22.030075,7.71144865 19.7919693,7.66390991 C16.9512329,7.60383609 14.1074219,7.60430908 11.2666855,7.66390991 C9.04560855,7.71050261 7.66438296,9.05033871 7.60407259,11.2621917 C7.52744295,14.0847168 7.52744295,16.9122086 7.60407259,19.7347336 C7.66438296,21.9463501 9.04560855,23.2552033 11.266922,23.3375091 C12.677002,23.3900146 14.0906296,23.3474426 15.5026016,23.3474426 L15.5026016,23.3474426 Z" id="Shape-Copy" fill="url(#linearGradient-6)" fill-rule="nonzero"></path>
        <g id="Group-Copy-3" transform="translate(5.757393, 5.892247)" fill="#FFFFFF" fill-rule="nonzero">
            <path d="M0,5.84793369 C0.0645675508,5.39194004 0.113761887,4.93334475 0.195831299,4.48066223 C0.661048844,1.91664399 2.47627255,0.172137156 5.07174683,0.082735941 C8.1967697,-0.024640188 11.331253,-0.0303164575 14.4558029,0.0822628882 C17.280693,0.183962748 19.3265152,2.27566807 19.4147339,5.10150425 C19.5086288,8.10212219 19.5086288,11.110072 19.4147339,14.11069 C19.3265152,16.9365262 17.2814026,19.0279951 14.4560394,19.1299313 C11.3314896,19.2427472 8.19629671,19.2455854 5.07198332,19.1282758 C2.24662013,19.0220822 0.293510422,16.9256467 0.104537934,14.0955533 C0.0882186738,13.8507642 0.0357132109,13.6081036 0,13.3644971 C0,10.8588971 0,8.35329714 0,5.84793369 Z M9.74520874,17.4551953 C11.1751556,17.4551953 12.6065216,17.4980039 14.0345764,17.4452618 C16.2736283,17.3622464 17.6508331,16.025958 17.7031021,13.7890348 C17.7679062,11.0017499 17.7679062,8.21068086 17.7031021,5.42315952 C17.6508331,3.18670933 16.2726821,1.81920136 14.0345764,1.77166262 C11.19384,1.7115888 8.35002898,1.71206179 5.50929257,1.77166262 C3.28821565,1.81825532 1.90699007,3.15809143 1.84667969,5.36994445 C1.77005005,8.19246951 1.77005005,11.0199613 1.84667969,13.8424863 C1.90699007,16.0541028 3.28821565,17.362956 5.50952913,17.4452618 C6.91960905,17.4977674 8.33323666,17.4551953 9.74520874,17.4551953 L9.74520874,17.4551953 Z" id="Shape"></path>
            <path d="M9.7426071,4.64267246 C7.00049593,4.64267246 4.77729036,6.86564153 4.77729036,9.60775271 C4.77729036,12.3501004 7.00049593,14.5730695 9.7426071,14.5730695 C12.4849548,14.5730695 14.7079238,12.3501004 14.7079238,9.60775271 C14.7079238,6.86564153 12.4849548,4.64267246 9.7426071,4.64267246 Z M9.7426071,12.8635663 C7.9444122,12.8635663 6.48679347,11.4059476 6.48679347,9.60775271 C6.48679347,7.80955781 7.9444122,6.35193908 9.7426071,6.35193908 C11.540802,6.35193908 12.9984207,7.80955781 12.9984207,9.60775271 C12.9984207,11.4059476 11.540802,12.8635663 9.7426071,12.8635663 Z" id="Shape"></path>
            <path d="M16.1790238,4.41609468 C16.1790238,5.06839268 15.6501846,5.59723179 14.9978866,5.59723179 C14.3455887,5.59723179 13.816513,5.06839268 13.816513,4.41609468 C13.816513,3.76356018 14.3455887,3.23472112 14.9978866,3.23472112 C15.6501846,3.23472112 16.1790238,3.76356018 16.1790238,4.41609468 Z" id="Path"></path>
        </g>
    </g>
</svg>