<?xml version="1.0" encoding="utf-8"?>
<!-- Generator: Adobe Illustrator 24.1.2, SVG Export Plug-In . SVG Version: 6.00 Build 0)  -->
<svg version="1.1" id="Layer_1" xmlns="http://www.w3.org/2000/svg" xmlns:xlink="http://www.w3.org/1999/xlink" x="0px" y="0px" width="226px" height="49px"
	 viewBox="22 15 345 70" style="enable-background:new 0 0 396 108;" xml:space="preserve">
<style type="text/css">
	.st0{fill:#878B8D;}
	.st1{fill:#E05426;stroke:#E05426;stroke-width:0.4984;stroke-miterlimit:10;}
	.st2{fill:#E05426;}
</style>
<path class="st0" d="M219.98,56.78h3.58v3.59h0.1c1.07-1.69,3.84-4.31,8.6-4.31c3.42,0,6.29,0.87,8.86,3.43
	c2.09,2.05,3.48,5.28,3.48,9.89v15.42h-3.58V69.38c0-3.64-1.13-6.19-2.67-7.68c-1.95-1.89-4.51-2.41-6.09-2.41
	c-1.58,0-4.15,0.52-6.09,2.41c-1.5,1.43-2.61,3.95-2.61,7.43v15.67h-3.58V56.78z"/>
<path class="st0" d="M248.67,46.9h3.58v37.9h-3.58V46.9z"/>
<path class="st0" d="M256.35,56.78h3.6v28.01h-3.6V56.78z"/>
<path class="st0" d="M264.04,56.78h3.58v3.59h0.12c1.06-1.69,3.84-4.31,8.58-4.31c3.44,0,6.31,0.87,8.86,3.43
	c2.11,2.05,3.48,5.28,3.48,9.89v15.42h-3.58V69.38c0-3.64-1.11-6.19-2.67-7.68c-1.94-1.89-4.5-2.41-6.09-2.41
	c-1.58,0-4.13,0.52-6.08,2.41c-1.5,1.43-2.63,3.95-2.63,7.43v15.67h-3.58V56.78z"/>
<path class="st0" d="M293.85,72.09c0.26,5.48,5.37,10.14,10.85,10.14c5.12-0.1,8.76-3.12,10.04-6.6h3.8
	c-1.96,5.58-7.34,9.83-13.79,9.83c-7.83,0-14.6-6.35-14.6-14.65c0-7.95,6.4-14.6,14.54-14.75c6.15,0.06,10.5,3.69,12.51,7.17
	c1.62,2.66,2.19,5.37,2.19,7.83c0,0.36-0.04,0.67-0.04,1.03H293.85z M315.71,68.86c-1.12-6.6-6.5-9.58-10.95-9.58
	c-4.41,0-9.88,2.97-10.91,9.58H315.71z"/>
<path class="st1" d="M333.27,80.69c-0.76,1.48-2.35,3.79-5.92,3.79c-3.72,0-6.4-2.89-6.4-6.23c0-3.44,2.85-6.27,6.4-6.27
	c2.09,0,4.77,1.04,5.92,3.9h-1.68c-0.96-1.81-2.7-2.52-4.2-2.52c-2.33,0-4.92,1.74-4.92,4.85c0,2.68,2.07,4.9,4.92,4.9
	c2.48,0,3.72-1.5,4.2-2.42H333.27z"/>
<path class="st1" d="M341,71.9c3.53,0,6.25,2.98,6.25,6.25c0,3.24-2.68,6.25-6.25,6.25c-3.48,0-6.2-2.94-6.2-6.16
	C334.8,74.47,337.87,71.9,341,71.9z M341.02,83.02c2.31,0,4.7-1.83,4.7-4.94c0-3.14-2.66-4.81-4.7-4.81c-2.18,0-4.7,1.79-4.7,4.94
	C336.32,80.98,338.56,83.02,341.02,83.02z"/>
<path class="st1" d="M350.33,73.55c0.68-1.07,1.85-1.68,3.24-1.68c1.72,0,3.18,0.83,4,2.29c0.94-1.5,2.31-2.29,4.01-2.29
	c2.81,0,4.77,1.96,4.77,5.14v7.07h-1.52v-6.9c0-2.55-1.22-3.94-3.24-3.94c-2.02,0-3.24,1.39-3.24,3.94v6.9h-1.52v-6.9
	c0-2.55-1.22-3.94-3.24-3.94c-2.03,0-3.24,1.39-3.24,3.94v6.9h-1.52V72.17h1.52V73.55z"/>
<g>
	<path class="st2" d="M261.14,51.86c0,1.69-1.38,3.07-3.07,3.07c-1.7,0-3.06-1.38-3.06-3.07c0-1.7,1.36-3.08,3.06-3.08
		C259.77,48.78,261.14,50.16,261.14,51.86z"/>
</g>
<g>
	<path class="st2" d="M48.4,48.91c0.16,0.42,0.24,0.88,0.24,1.36c0,2.14-1.74,3.88-3.87,3.88c-2.13,0-3.88-1.74-3.88-3.88
		c0-2.14,1.74-3.86,3.88-3.86C46.43,46.4,47.85,47.44,48.4,48.91"/>
	<g>
		<path class="st2" d="M21.56,27.84C27.44,21.78,35.67,18,44.78,18c9.06,0,17.25,3.74,23.12,9.75l-2.64,2.91
			c-5.17-5.38-12.44-8.74-20.48-8.74c-8.06,0-15.35,3.37-20.53,8.78L21.56,27.84z"/>
		<path class="st2" d="M28.24,35.06c4.11-4.46,10-7.25,16.54-7.25c6.5,0,12.37,2.77,16.47,7.19l-2.63,2.94
			c-3.4-3.8-8.35-6.21-13.85-6.21c-5.52,0-10.48,2.42-13.89,6.24L28.24,35.06z"/>
		<path class="st2" d="M35.24,42.64c2.24-2.79,5.69-4.58,9.54-4.58c3.84,0,7.27,1.77,9.51,4.54l-2.71,2.92
			c-1.5-2.14-3.99-3.54-6.8-3.54c-2.85,0-5.36,1.44-6.86,3.62L35.24,42.64z"/>
	</g>
</g>
<g>
	<path class="st2" d="M41.45,56.37h6.8v28.42h-6.8V56.37z"/>
	<path class="st2" d="M51.23,56.37h6.3v2.46c1.13-1.07,3.49-3.43,7.79-3.43c2.45,0,6.2,1.07,8.56,3.95
		c2.61,3.12,2.61,7.88,2.61,10.08v15.36h-6.82V70.77c0-2.36,0-9.12-5.73-9.12c-1.24,0-3.44,0.61-4.66,2.51
		c-1.23,1.74-1.23,4.71-1.23,7.12v13.52h-6.82V56.37z"/>
	<path class="st2" d="M90.8,64.1c-0.47-2.26-2-2.46-2.73-2.46c-1.68,0-2.61,1.28-2.61,2.46c0,1.64,1.19,2,4.82,3.18
		c3.54,1.08,7.94,2.77,7.94,8.5c0,6.4-5.06,9.94-9.93,9.94c-2.83,0-6.3-0.98-8.5-3.74c-1.74-2.15-2-4.4-2.16-6.15h6.96
		c0.32,1.28,0.93,3.64,3.74,3.64c2.21,0,3.08-1.69,3.08-2.86c0-2.1-1.54-2.61-6.41-4.25c-3.22-1.08-6.34-3.49-6.34-8.14
		c0-5.53,4.96-8.81,9.53-8.81c4.25,0,9.01,3.07,9.25,8.7H90.8z"/>
	<path class="st2" d="M124.51,56.37v28.42h-6.25v-2.87h-0.12c-1.12,1.53-2.96,3.8-7.33,3.8c-5.16,0-8.08-2.57-9.52-4.51
		c-2.1-3.03-2.1-7.63-2.1-9.98V56.37h6.82v14.49c0,2.3,0,8.61,5.93,8.61c4.31,0,5.75-4.05,5.75-8.55V56.37H124.51z"/>
	<path class="st2" d="M128.05,56.37h6.24v2.51h0.12c1.28-1.84,2.55-3.48,6.09-3.48h0.55V62c-6.19,0.26-6.19,5.13-6.19,6.81v15.98
		h-6.8V56.37z"/>
	<path class="st2" d="M147.02,73.63c0.3,1.85,2.97,5.84,7.85,5.84c3.02,0,5.27-1.29,6.54-3.64h7.17c-1.64,5.12-7.01,9.89-13.71,9.89
		c-8.66,0-15.02-6.76-15.02-15.06c0-8.04,5.95-15.26,14.96-15.26c9.31,0,14.7,7.63,14.7,14.8c0,1.33-0.2,2.51-0.41,3.43H147.02z
		 M162.54,68.15c-0.77-4.56-4.05-6.5-7.68-6.5c-2.78,0-6.77,1.22-8.05,6.5H162.54z"/>
</g>
<path class="st2" d="M319.42,82.99c0,0.68-0.55,1.24-1.24,1.24c-0.68,0-1.24-0.55-1.24-1.24c0-0.68,0.55-1.24,1.24-1.24
	C318.86,81.75,319.42,82.31,319.42,82.99z"/>
<path class="st0" d="M374.44,71.93c0,2.07-1.62,3.69-3.73,3.69c-2.09,0-3.76-1.62-3.76-3.69c0-2.02,1.67-3.64,3.76-3.64
	C372.82,68.29,374.44,69.91,374.44,71.93z M367.89,71.93c0,1.62,1.2,2.91,2.84,2.91c1.6,0,2.78-1.29,2.78-2.89
	c0-1.62-1.18-2.93-2.8-2.93C369.09,69.02,367.89,70.33,367.89,71.93z M370.13,73.84h-0.84V70.2c0.33-0.07,0.8-0.11,1.4-0.11
	c0.69,0,1,0.11,1.27,0.27c0.2,0.16,0.36,0.44,0.36,0.8c0,0.4-0.31,0.71-0.76,0.84v0.04c0.36,0.13,0.56,0.4,0.67,0.89
	c0.11,0.56,0.18,0.78,0.27,0.91h-0.91c-0.11-0.13-0.18-0.47-0.29-0.89c-0.07-0.4-0.29-0.58-0.76-0.58h-0.4V73.84z M370.15,71.78h0.4
	c0.47,0,0.84-0.16,0.84-0.53c0-0.33-0.24-0.56-0.78-0.56c-0.22,0-0.38,0.02-0.47,0.04V71.78z"/>
<path class="st0" d="M210.77,46.4c-4.46-4.41-9.99-6.62-16.61-6.62c-4.08,0-7.87,1.01-11.38,3.04c-3.51,2.03-6.27,4.84-8.3,8.42
	c-2.03,3.58-3.05,7.47-3.05,11.67c0,6.29,2.23,11.66,6.69,16.09c4.46,4.43,9.92,6.65,16.4,6.65c6.4,0,11.82-2.23,16.27-6.68
	s6.67-9.88,6.67-16.27C217.46,56.25,215.23,50.81,210.77,46.4z M194.45,82.04c-10.68,0-19.33-8.65-19.33-19.33
	c0-10.68,8.65-19.33,19.33-19.33c10.68,0,19.33,8.65,19.33,19.33C213.78,73.39,205.12,82.04,194.45,82.04z"/>
</svg>
