<?xml version="1.0" encoding="UTF-8"?>
<svg width="216px" height="49px" viewBox="0 0 216 49" version="1.1" xmlns="http://www.w3.org/2000/svg" xmlns:xlink="http://www.w3.org/1999/xlink">
    <!-- Generator: sketchtool 63.1 (101010) - https://sketch.com -->
    <title>4E04F120-10D0-4118-A091-00D34C48152E</title>
    <desc>Created with sketchtool.</desc>
    <g id="Wizard" stroke="none" stroke-width="1" fill="none" fill-rule="evenodd">
        <g id="Add-Vehicle---Step-1" transform="translate(-50.000000, -25.000000)" fill-rule="nonzero">
            <g id="Desktop-Header">
                <g id="InsureOnline.com-Logo" transform="translate(50.000000, 25.000000)">
                    <path d="M143.440023,27.955594 L146.020761,27.955594 L146.020761,30.5435409 L146.092849,30.5435409 C146.864187,29.3252595 148.861015,27.4365629 152.292388,27.4365629 C154.757785,27.4365629 156.826701,28.0637255 158.679354,29.9091696 C160.185986,31.3869666 161.188005,33.7153979 161.188005,37.038639 L161.188005,48.1545559 L158.607266,48.1545559 L158.607266,37.038639 C158.607266,34.4146482 157.792676,32.5764129 156.682526,31.5023068 C155.276817,30.1398501 153.431373,29.7649942 152.292388,29.7649942 C151.153403,29.7649942 149.30075,30.1398501 147.902249,31.5023068 C146.820934,32.5331603 146.020761,34.3497693 146.020761,36.8584198 L146.020761,48.1545559 L143.440023,48.1545559 L143.440023,27.955594 L143.440023,27.955594 Z" id="Path" fill="#4E5552"></path>
                    <polygon id="Path" fill="#4E5552" points="164.121972 20.8333333 166.70271 20.8333333 166.70271 48.1545559 164.121972 48.1545559"></polygon>
                    <polygon id="Path" fill="#4E5552" points="169.658304 27.955594 172.25346 27.955594 172.25346 48.1473472 169.658304 48.1473472"></polygon>
                    <path d="M175.201845,27.955594 L177.782584,27.955594 L177.782584,30.5435409 L177.869089,30.5435409 C178.633218,29.3252595 180.637255,27.4365629 184.05421,27.4365629 C186.534025,27.4365629 188.602941,28.0637255 190.441176,29.9091696 C191.962226,31.3869666 192.949827,33.7153979 192.949827,37.038639 L192.949827,48.1545559 L190.369089,48.1545559 L190.369089,37.038639 C190.369089,34.4146482 189.568916,32.5764129 188.444348,31.5023068 C187.045848,30.1398501 185.200404,29.7649942 184.05421,29.7649942 C182.915225,29.7649942 181.07699,30.1398501 179.67128,31.5023068 C178.589965,32.5331603 177.775375,34.3497693 177.775375,36.8584198 L177.775375,48.1545559 L175.194637,48.1545559 L175.194637,27.955594 L175.201845,27.955594 Z" id="Path" fill="#4E5552"></path>
                    <path d="M196.691176,38.9922145 C196.878604,42.9426182 200.562284,46.3019031 204.512687,46.3019031 C208.203576,46.2298155 210.827566,44.0527682 211.750288,41.5441176 L214.489619,41.5441176 C213.076701,45.566609 209.198385,48.6303345 204.548731,48.6303345 C198.904268,48.6303345 194.023933,44.0527682 194.023933,38.0694925 C194.023933,32.3385236 198.637543,27.5446943 204.505479,27.4365629 C208.93887,27.4798155 212.074683,30.0965975 213.523645,32.605248 C214.691465,34.5227797 215.102364,36.4763552 215.102364,38.2497116 C215.102364,38.5092272 215.073529,38.732699 215.073529,38.9922145 L196.691176,38.9922145 Z M212.449539,36.6637832 C211.642157,31.9059977 207.763841,29.7577855 204.55594,29.7577855 C201.376874,29.7577855 197.433679,31.8987889 196.691176,36.6637832 L212.449539,36.6637832 Z" id="Shape" fill="#4E5552"></path>
                    <path d="M173.111303,24.4088812 C173.111303,25.6271626 172.116494,26.6219723 170.898212,26.6219723 C169.672722,26.6219723 168.69233,25.6271626 168.69233,24.4088812 C168.69233,23.183391 169.672722,22.1885813 170.898212,22.1885813 C172.123702,22.1885813 173.111303,23.183391 173.111303,24.4088812 Z" id="Path" fill="#E05426"></path>
                    <g id="Group" fill="#E05426">
                        <path d="M19.7520185,22.2822953 C19.8673587,22.5850634 19.9250288,22.9166667 19.9250288,23.2626874 C19.9250288,24.8053633 18.6707036,26.0596886 17.1352364,26.0596886 C15.5997693,26.0596886 14.3382353,24.8053633 14.3382353,23.2626874 C14.3382353,21.7200115 15.5925606,20.4800523 17.1352364,20.4800523 C18.3318916,20.472895 19.3555363,21.2226067 19.7520185,22.2822953" id="Path"></path>
                        <g id="Path">
                            <path d="M0.403690888,7.09342561 C4.64244521,2.72491349 10.5752595,0 17.1424452,0 C23.6735871,0 29.5775663,2.69607843 33.8091119,7.02854671 L31.9059977,9.12629758 C28.1790657,5.24798155 22.938293,2.82583622 17.1424452,2.82583622 C11.3321799,2.82583622 6.07698962,5.25519031 2.3428489,9.15513264 L0.403690888,7.09342561 Z"></path>
                            <path d="M5.21914648,12.2981546 C8.18194925,9.08304498 12.4279123,7.07179931 17.1424452,7.07179931 C21.828143,7.07179931 26.0596886,9.06862745 29.0152826,12.254902 L27.1193772,14.3742791 C24.6683968,11.6349481 21.1000577,9.89763552 17.1352364,9.89763552 C13.1559977,9.89763552 9.58044983,11.6421569 7.12226067,14.3959054 L5.21914648,12.2981546 Z"></path>
                            <path d="M10.2652826,17.7623991 C11.8800461,15.7511534 14.3670704,14.4607843 17.1424452,14.4607843 C19.9106113,14.4607843 22.383218,15.7367359 23.9979815,17.733564 L22.044406,19.8385236 C20.9630911,18.2958478 19.1681084,17.2866205 17.1424452,17.2866205 C15.0879469,17.2866205 13.2785467,18.3246828 12.1972318,19.8961938 L10.2652826,17.7623991 Z"></path>
                        </g>
                    </g>
                    <g id="Group" transform="translate(14.417532, 26.672434)" fill="#E05426">
                        <polygon id="Path" points="0.324394464 0.987600923 5.22635525 0.987600923 5.22635525 21.4749135 0.324394464 21.4749135"></polygon>
                        <path d="M7.37456747,0.987600923 L11.91609,0.987600923 L11.91609,2.76095732 C12.7306805,1.98961938 14.4319493,0.288350634 17.5317186,0.288350634 C19.2978662,0.288350634 22.0011534,1.05968858 23.7024221,3.13581315 C25.58391,5.3849481 25.58391,8.81632065 25.58391,10.4022491 L25.58391,21.4749135 L20.6675317,21.4749135 L20.6675317,11.3682238 C20.6675317,9.66695502 20.6675317,4.7938293 16.5369089,4.7938293 C15.6430219,4.7938293 14.0570934,5.23356401 13.177624,6.60322953 C12.2909458,7.85755479 12.2909458,9.99855825 12.2909458,11.7358708 L12.2909458,21.4821223 L7.37456747,21.4821223 L7.37456747,0.987600923 L7.37456747,0.987600923 Z" id="Path"></path>
                        <path d="M35.899654,6.55997693 C35.560842,4.93079585 34.4579008,4.78662053 33.9316609,4.78662053 C32.7205882,4.78662053 32.050173,5.70934256 32.050173,6.55997693 C32.050173,7.74221453 32.9080161,8.0017301 35.5247982,8.85236448 C38.0767013,9.63091119 41.2485582,10.8491926 41.2485582,14.9798155 C41.2485582,19.5934256 37.6009227,22.1453287 34.0902537,22.1453287 C32.050173,22.1453287 29.5487313,21.4388697 27.9628028,19.4492503 C26.7084775,17.8993656 26.5210496,16.2773933 26.4057093,15.0158593 L31.4230104,15.0158593 C31.6536909,15.9385813 32.0934256,17.6398501 34.1190888,17.6398501 C35.7122261,17.6398501 36.3393887,16.4215686 36.3393887,15.578143 C36.3393887,14.0643022 35.2292388,13.6966551 31.7185698,12.5144175 C29.3973472,11.7358708 27.1482122,9.99855825 27.1482122,6.64648212 C27.1482122,2.6600346 30.7237601,0.2955594 34.0181661,0.2955594 C37.0818916,0.2955594 40.5132641,2.50865052 40.6862745,6.5671857 L35.899654,6.5671857 L35.899654,6.55997693 Z" id="Path"></path>
                        <path d="M60.2004037,0.987600923 L60.2004037,21.4749135 L55.694925,21.4749135 L55.694925,19.4059977 L55.6084198,19.4059977 C54.8010381,20.5089389 53.4746251,22.1453287 50.3243945,22.1453287 C46.6046713,22.1453287 44.4997116,20.2926759 43.4616494,18.8941753 C41.9478085,16.7099193 41.9478085,13.393887 41.9478085,11.699827 L41.9478085,0.987600923 L46.8641869,0.987600923 L46.8641869,11.4331027 C46.8641869,13.0911188 46.8641869,17.6398501 51.138985,17.6398501 C54.2459631,17.6398501 55.2840254,14.7202999 55.2840254,11.4763552 L55.2840254,0.987600923 L60.2004037,0.987600923 Z" id="Path"></path>
                        <path d="M62.7523068,0.987600923 L67.2505767,0.987600923 L67.2505767,2.79700115 L67.3370819,2.79700115 C68.2598039,1.47058824 69.1753172,0.288350634 71.7272203,0.288350634 L72.1237024,0.288350634 L72.1237024,5.0461361 C67.6614764,5.23356401 67.6614764,8.74423299 67.6614764,9.95530565 L67.6614764,21.4749135 L62.7595156,21.4749135 L62.7595156,0.987600923 L62.7523068,0.987600923 Z" id="Path"></path>
                        <path d="M76.4273356,13.4299308 C76.6435986,14.7635525 78.5683391,17.6398501 82.0862168,17.6398501 C84.2632641,17.6398501 85.8852364,16.7099193 86.8007497,15.0158593 L91.9694348,15.0158593 C90.7871972,18.7067474 86.91609,22.1453287 82.0862168,22.1453287 C75.8434256,22.1453287 71.2586505,17.272203 71.2586505,11.2889273 C71.2586505,5.49307958 75.5478662,0.288350634 82.0429642,0.288350634 C88.7543253,0.288350634 92.6398501,5.78863899 92.6398501,10.9573241 C92.6398501,11.91609 92.4956747,12.7667243 92.3442907,13.4299308 L76.4273356,13.4299308 L76.4273356,13.4299308 Z M87.6153403,9.4795271 C87.0602653,6.19232987 84.6957901,4.7938293 82.0790081,4.7938293 C80.0749712,4.7938293 77.1986736,5.67329873 76.2759516,9.4795271 L87.6153403,9.4795271 Z" id="Shape"></path>
                    </g>
                    <path d="M136.80075,20.472895 C133.58564,17.2938293 129.599193,15.700692 124.82699,15.700692 C121.885813,15.700692 119.153691,16.4287774 116.623414,17.8921569 C114.093137,19.3555363 112.103518,21.3811995 110.640138,23.9619377 C109.176759,26.5426759 108.441465,29.3468858 108.441465,32.3745675 C108.441465,36.9088812 110.04902,40.7799885 113.264129,43.9734717 C116.479239,47.166955 120.415225,48.767301 125.086505,48.767301 C129.700115,48.767301 133.607266,47.1597463 136.815167,43.9518454 C140.023068,40.7439446 141.623414,36.8295848 141.623414,32.2231834 C141.623414,27.5735294 140.015859,23.6519608 136.80075,20.472895 Z M125.036044,46.1649366 C117.337082,46.1649366 111.101499,39.9293541 111.101499,32.2303922 C111.101499,24.5314302 117.337082,18.2958478 125.036044,18.2958478 C132.735006,18.2958478 138.970588,24.5314302 138.970588,32.2303922 C138.970588,39.9293541 132.727797,46.1649366 125.036044,46.1649366 Z" id="Shape" fill="#4E5552"></path>
                </g>
            </g>
        </g>
    </g>
</svg>