<?xml version="1.0" encoding="UTF-8"?>
<svg width="27px" height="23px" viewBox="0 0 27 23" version="1.1" xmlns="http://www.w3.org/2000/svg" xmlns:xlink="http://www.w3.org/1999/xlink">
    <title>0DA35F89-FFCE-49C8-A43E-377C63A26A01</title>
    <g id="Monitored-Driver" stroke="none" stroke-width="1" fill="none" fill-rule="evenodd" stroke-linecap="round" stroke-linejoin="round">
        <g id="Road_Monitor_01" transform="translate(-773.000000, -506.000000)" stroke="#197BBD">
            <g id="iconfinder_2947781_car_control_mobile_phone_remote_icon" transform="translate(774.000000, 507.000000)">
                <g id="Group" transform="translate(0.000000, 0.000000)">
                    <path d="M9.35978182,21 L1.90003711,21 C0.850663095,21 3.68264475e-16,20.1325184 3.68264475e-16,19.0623971 L3.68264475e-16,1.93760288 C3.68264475e-16,0.867481615 0.850663095,2.25327275e-15 1.90003711,2.25327275e-15 L9.35978182,2.25327275e-15 C10.4091558,2.25327275e-15 11.2598189,0.867481615 11.2598189,1.93760288 L11.2598189,19.0623971 C11.2598189,20.1325184 10.4091558,21 9.35978182,21 Z" id="Path"></path>
                    <line x1="1.84132238e-16" y1="2.29619813" x2="11.2598189" y2="2.29619813" id="Path"></line>
                    <line x1="1.84132238e-16" y1="17.6471291" x2="11.2598189" y2="17.6471291" id="Path"></line>
                    <line x1="4.84711594" y1="19.2436166" x2="6.41265116" y2="19.2436166" id="Path"></line>
                </g>
                <g id="Group" transform="translate(13.035001, 2.430407)">
                    <path d="M9.79109958,13.5185062 L9.79109958,16.3068362 C9.79109958,17.0514867 9.18796996,17.6088778 8.45775657,17.6088778 L6.37248398,17.6088778 C5.64227059,17.6088778 5.17399903,17.0514867 5.17399903,16.3068362 L5.17399903,15.9315247" id="Path"></path>
                    <path d="M0.0145120128,15.5453784 L6.07307006,15.5453784 C6.71133948,15.5453784 7.35282228,15.2939022 7.91319329,14.9805349 L8.41691562,14.6720829 C9.77617293,13.9119464 10.6590216,12.4567358 10.6590216,10.8758928 L10.6590216,9.45942375 C10.6590216,8.71191918 10.3694551,8.01161263 9.90823225,7.43059603 L8.64169633,5.90741608 L8.44086044,5.50282388 L10.9153659,5.50282388 C11.4926331,5.50282388 11.9649991,5.02117153 11.9649991,4.43243835 L11.9649991,3.88688634 C11.9649991,3.37590039 11.5550347,2.95777774 11.0539038,2.95777774 L9.2409388,2.95777774 C8.92602812,2.95777774 8.65169925,3.1589375 8.57623679,3.47071926 L8.53477389,3.62394105 C8.47921361,3.85343018 8.27728932,4.05828967 8.04545992,4.05828967 L7.65710809,4.05828967 L7.41791902,3.57927999 C6.27297303,1.39548633 4.04195838,-1.50218183e-15 1.613684,-1.50218183e-15 L0,0.0140589843" id="Path"></path>
                    <path d="M4.65431349,2.11291735 C5.42842572,2.72823576 6.02274447,3.57600308 6.33464909,4.57667507 C6.31034147,4.58021625 5.75100703,5.59785416 0.0145120128,5.59785416 M9.55165136,9.60899866 C9.34013878,10.0537065 8.95137232,10.4107307 8.44303724,10.5588258 L6.89222135,11.0106688 C6.63608433,11.0852977 6.36139266,10.9903731 6.20253794,10.7723003 L5.95588555,10.4337219 C5.74162605,10.1395403 5.80667096,9.72321469 6.10002094,9.51158998 L8.58323365,7.71986228 M0.0145120128,11.1054877 C1.01552993,11.1054877 3.56596435,11.2100316 4.47711145,11.485186 L4.63031684,11.4936425 C5.23780006,11.6770964 5.17099297,12.276136 4.52883641,12.3969058 L4.00443446,12.5208997 C3.57104356,12.6023995 3.12272602,12.6945757 2.67223168,12.6945757 L0.0145120128,12.703138" id="Shape"></path>
                </g>
            </g>
        </g>
    </g>
</svg>