<?xml version="1.0" encoding="UTF-8"?>
<svg width="33px" height="28px" viewBox="0 0 33 28" version="1.1" xmlns="http://www.w3.org/2000/svg" xmlns:xlink="http://www.w3.org/1999/xlink">
    <title>FD65B513-1691-49EF-8D89-C58A9AACFF95</title>
    <g id="Monitored-Driver" stroke="none" stroke-width="1" fill="none" fill-rule="evenodd" stroke-linecap="round" stroke-linejoin="round">
        <g id="Review_Monitor_Driver_Policy_01" transform="translate(-704.000000, -325.000000)" stroke="#F16322">
            <g id="Group-9" transform="translate(491.000000, 281.000000)">
                <g id="iconfinder_2947781_car_control_mobile_phone_remote_icon-copy-3" transform="translate(214.000000, 45.000000)">
                    <g id="Group" transform="translate(0.000000, 0.000000)">
                        <path d="M11.6375713,26 L2.36242871,26 C1.05767983,26 4.57885041e-16,24.9259751 4.57885041e-16,23.6010631 L4.57885041e-16,2.39893689 C4.57885041e-16,1.07402486 1.05767983,2.78976626e-15 2.36242871,2.78976626e-15 L11.6375713,2.78976626e-15 C12.9423202,2.78976626e-15 14,1.07402486 14,2.39893689 L14,23.6010631 C14,24.9259751 12.9423202,26 11.6375713,26 Z" id="Path"></path>
                        <line x1="2.2894252e-16" y1="2.84291197" x2="14" y2="2.84291197" id="Path"></line>
                        <line x1="2.2894252e-16" y1="21.8488265" x2="14" y2="21.8488265" id="Path"></line>
                        <line x1="6.02670644" y1="23.8254301" x2="7.97322912" y2="23.8254301" id="Path"></line>
                    </g>
                    <g id="Group" transform="translate(16.000000, 2.000000)">
                        <path d="M12.2746765,16.8896133 L12.2746765,20.3732685 C12.2746765,21.3036123 11.5185591,22 10.6031223,22 L7.98890655,22 C7.07346972,22 6.486418,21.3036123 6.486418,20.3732685 L6.486418,19.9043657" id="Path"></path>
                        <path d="M0.0181930806,19.4219261 L7.61354432,19.4219261 C8.41371498,19.4219261 9.21791412,19.1077394 9.92042693,18.7162277 L10.5519218,18.3308571 C12.2559636,17.3811655 13.3627527,15.5630694 13.3627527,13.5880119 L13.3627527,11.8183183 C13.3627527,10.8844086 12.9997358,10.0094668 12.4215207,9.2835622 L10.8337196,7.38054718 L10.5819403,6.87506191 L13.6841205,6.87506191 C14.4078152,6.87506191 15,6.27330002 15,5.53775457 L15,4.85615836 C15,4.21774796 14.4860455,3.69535816 13.8577994,3.69535816 L11.5849639,3.69535816 C11.190174,3.69535816 10.8462598,3.94668107 10.7516558,4.33621179 L10.6996756,4.52764246 C10.630022,4.81435925 10.3768783,5.0703045 10.0862439,5.0703045 L9.59938403,5.0703045 L9.29952308,4.47184428 C7.864154,1.74347846 5.06722776,-1.8767806e-15 2.02300558,-1.8767806e-15 L0,0.0175648703" id="Path"></path>
                        <path d="M5.83491079,2.63981511 C6.80538169,3.40857533 7.55045331,4.46775021 7.94147459,5.71795957 C7.91100118,5.7223838 7.20978788,6.99378986 0.0181930806,6.99378986 M11.9744907,12.0051926 C11.7093266,12.5607972 11.2219469,13.0068525 10.5846693,13.1918779 L8.64047874,13.756397 C8.31937087,13.8496361 7.97500184,13.7310402 7.77585258,13.4585866 L7.46663519,13.035577 C7.19802735,12.6680354 7.27957134,12.1478907 7.64733146,11.8834932 L10.7604275,9.64496271 M0.0181930806,13.8748608 C1.27312579,13.8748608 4.47049472,14.0054748 5.61276028,14.3492444 L5.80482723,14.3598097 C6.56640258,14.5890115 6.48264943,15.3374334 5.67760562,15.4883196 L5.02018566,15.6432338 C4.4768623,15.7450573 3.91482606,15.8602194 3.35006086,15.8602194 L0.0181930806,15.8709168" id="Shape"></path>
                    </g>
                </g>
            </g>
        </g>
    </g>
</svg>