<?xml version="1.0" encoding="UTF-8"?>
<svg width="22px" height="24px" viewBox="0 0 22 24" version="1.1" xmlns="http://www.w3.org/2000/svg" xmlns:xlink="http://www.w3.org/1999/xlink">
    <!-- Generator: sketchtool 63.1 (101010) - https://sketch.com -->
    <title>3E4EE149-E162-4AF1-AE7B-1DC320D6F88B</title>
    <desc>Created with sketchtool.</desc>
    <g id="Wizard" stroke="none" stroke-width="1" fill="none" fill-rule="evenodd">
        <g id="Start" transform="translate(-602.000000, -779.000000)" fill-rule="nonzero">
            <g id="Content" transform="translate(516.000000, 343.000000)">
                <g id="No-spam-callout" transform="translate(86.000000, 436.000000)">
                    <g id="iconfinder_outlined_rounded_shield_4280688">
                        <path d="M20.9544828,3.35172414 L11.0234483,0.0413793103 C10.8516636,-0.0166427116 10.6655777,-0.0166427116 10.4937931,0.0413793103 L0.562758621,3.35172414 C0.225673061,3.46557693 -0.000918421615,3.78213856 -2.78160542e-06,4.13793103 L-2.78160542e-06,8.27586207 C-2.78160542e-06,20.3668966 10.4524138,23.1227586 10.56,23.1724138 C10.6904501,23.2046644 10.8267913,23.2046644 10.9572414,23.1724138 C11.0648276,23.1724138 21.5172442,20.3917241 21.5172442,8.27586207 L21.5172442,4.13793103 C21.5181598,3.78213856 21.2915683,3.46557693 20.9544828,3.35172414 Z M19.862069,8.27586207 C19.862069,18.2896552 12.1572414,21.062069 10.7586207,21.5172414 C9.36,21.062069 1.65517241,18.2896552 1.65517241,8.27586207 L1.65517241,4.7337931 L10.7586207,1.69655172 L19.862069,4.7337931 L19.862069,8.27586207 Z" id="Shape" fill="#959D9A"></path>
                        <path d="M7.10896552,10.7586207 C6.78673593,10.4341058 6.26244594,10.4322532 5.93793103,10.7544828 C5.61341613,11.0767123 5.61156352,11.6010023 5.9337931,11.9255172 L7.82896552,13.8206897 C8.13996942,14.1335498 8.56299759,14.3093151 9.00413793,14.308966 C9.44240843,14.3071177 9.86205493,14.1315209 10.1710345,13.8206897 L15.5834483,8.41655172 C15.9079632,8.09203682 15.9079631,7.56589423 15.5834483,7.24137933 C15.2589334,6.91686444 14.7327908,6.91686443 14.4082759,7.24137931 L9.00413793,12.6537931 L7.10896552,10.7586207 Z" id="Path" fill="#F16322"></path>
                    </g>
                </g>
            </g>
        </g>
    </g>
</svg>