<?xml version="1.0" encoding="UTF-8"?>
<svg width="18px" height="18px" viewBox="0 0 18 18" version="1.1" xmlns="http://www.w3.org/2000/svg" xmlns:xlink="http://www.w3.org/1999/xlink">
    <title>44B4CC46-682E-4CE5-A2C9-58C6F5030FDC</title>
    <g id="Driver-Details" stroke="none" stroke-width="1" fill="none" fill-rule="evenodd">
        <g id="Violations_Hover" transform="translate(-927.000000, -1880.000000)" fill="#777777" fill-rule="nonzero">
            <g id="Edit" transform="translate(927.000000, 1880.000000)">
                <path d="M0.327272727,18 L1.84090909,11.9045455 L11.1272727,2.61818182 L15.7090909,7.2 L6.42272727,16.4863636 L0.327272727,18 L0.327272727,18 Z M2.90454545,12.4772727 L1.92272727,16.4045455 L5.85,15.4227273 L14.1136364,7.15909091 L11.1681818,4.21363636 L2.90454545,12.4772727 L2.90454545,12.4772727 Z" id="Fill-168"></path>
                <path d="M5.44090909,16.1181818 C5.03181818,14.5227273 3.80454545,13.2954545 2.20909091,12.8863636 L2.49545455,11.7409091 C4.5,12.2318182 6.05454545,13.7863636 6.54545455,15.7909091 L5.44090909,16.1181818" id="Fill-169"></path>
                <polyline id="Fill-170" points="5.31818182 13.8681818 4.5 13.0090909 12.6409091 4.86818182 13.4590909 5.68636364 5.31818182 13.8681818"></polyline>
                <path d="M1.14545455,17.1818182 L2.94545455,16.7318182 C2.78181818,16.0772727 2.25,15.5454545 1.59545455,15.3818182 L1.14545455,17.1818182" id="Fill-171"></path>
                <path d="M16.1590909,6.75 L11.5772727,2.16818182 L13.4181818,0.327272727 L13.7045455,0.368181818 C15.9136364,0.654545455 17.6727273,2.41363636 17.9590909,4.62272727 L18,4.90909091 L16.1590909,6.75 L16.1590909,6.75 Z M13.2545455,2.16818182 L16.2,5.11363636 L16.7727273,4.54090909 C16.4454545,3.06818182 15.3,1.92272727 13.8272727,1.59545455 L13.2545455,2.16818182 L13.2545455,2.16818182 Z" id="Fill-172"></path>
            </g>
        </g>
    </g>
</svg>