<?xml version="1.0" encoding="UTF-8"?>
<svg width="20px" height="20px" viewBox="0 0 20 20" version="1.1" xmlns="http://www.w3.org/2000/svg" xmlns:xlink="http://www.w3.org/1999/xlink">
    <g id="Wizard" stroke="none" stroke-width="1" fill="none" fill-rule="evenodd">
        <g id="Show-Stopper" transform="translate(-502.000000, -610.000000)" fill="currentColor" fill-rule="nonzero">
            <g id="Content" transform="translate(462.000000, 376.000000)">
                <g id="Phone" transform="translate(40.000000, 234.000000)">
                    <path d="M19.2857143,20 C8.6345084,20 0,11.3654916 0,0.714285714 C0,0.524845364 0.075254886,0.343163998 0.209209442,0.209209442 C0.343163998,0.075254886 0.524845364,0 0.714285714,0 L5.71428571,0 C5.98325587,0.000815217153 6.22896411,0.152657392 6.35,0.392857143 L8.49285714,4.67857143 C8.59473471,4.88074826 8.59473471,5.11925174 8.49285714,5.32142857 L6.89285714,8.52142857 C6.76526229,8.74242934 6.76526229,9.01471352 6.89285714,9.23571429 C7.933817,10.7468717 9.24077105,12.0562461 10.75,13.1 C10.9710008,13.2275949 11.2432849,13.2275949 11.4642857,13.1 L14.6642857,11.5 C14.8664626,11.3981224 15.104966,11.3981224 15.3071429,11.5 L19.5928571,13.6428571 C19.840917,13.7610019 19.9992222,14.0109575 20,14.2857143 L20,19.2857143 C20,19.6802034 19.6802034,20 19.2857143,20 Z M1.42857143,1.42857143 C1.79416844,10.7406723 9.25932767,18.2058316 18.5714286,18.5714286 L18.5714286,14.7285714 L15,12.9428571 L12.1428571,14.3714286 C11.4646241,14.7280504 10.647582,14.6953687 10,14.2857143 C8.3314523,13.1311112 6.89060012,11.6781511 5.75,10 C5.32435434,9.36153451 5.27259024,8.54420662 5.61428571,7.85714286 L7.04285714,5 L5.27142857,1.42857143 L1.42857143,1.42857143 Z" id="phone-icon"></path>
                </g>
            </g>
        </g>
    </g>
</svg>
