<?xml version="1.0" encoding="UTF-8"?>
<svg width="40px" height="38px" viewBox="0 0 40 38" version="1.1" xmlns="http://www.w3.org/2000/svg" xmlns:xlink="http://www.w3.org/1999/xlink">
    <title>32C629E2-885B-424B-8AAE-37861D153115</title>
    <g id="Monitored-Driver" stroke="none" stroke-width="1" fill="none" fill-rule="evenodd">
        <g id="Road_Monitor_03" transform="translate(-449.000000, -1525.000000)" fill="#F16322" fill-rule="nonzero">
            <g id="iconfinder_3429937_bank_banking_finance_money_penny_icon" transform="translate(449.000000, 1525.000000)">
                <path d="M17.25,0 C13.7982203,0 11,2.79822031 11,6.25 C11,9.70177969 13.7982203,12.5 17.25,12.5 C20.7017797,12.5 23.5,9.70177969 23.5,6.25 C23.5,4.59239694 22.8415197,3.00268498 21.6694174,1.83058262 C20.497315,0.658480252 18.9076031,0 17.25,0 Z M17.25,11 C14.6266474,11 12.5,8.87335256 12.5,6.25 C12.5,3.62664744 14.6266474,1.5 17.25,1.5 C19.8733526,1.5 22,3.62664744 22,6.25 C22,8.87335256 19.8733526,11 17.25,11 L17.25,11 Z" id="Shape"></path>
                <path d="M37,15 L35.82,15 C35.39907,14.9987904 35.0137014,14.7637156 34.82,14.39 C34.1234504,13.0917374 33.154694,11.9592475 31.98,11.07 L31.54,10.69 L31.54,5.64 C31.5500274,5.07152207 31.212829,4.55424949 30.6886524,4.33400725 C30.1644759,4.113765 29.5590131,4.23496143 29.16,4.64 L26.75,7 L25.75,7 C25.3357864,7 25,7.33578644 25,7.75 C25,8.16421356 25.3357864,8.5 25.75,8.5 L27.09,8.5 C27.2888454,8.49982495 27.4794826,8.42069249 27.62,8.28 L30,5.9 L30,11.03 C30,11.2408329 30.0911533,11.4413701 30.25,11.58 L30.95,12.2 C31.9724813,12.9531643 32.8159182,13.922946 33.42,15.04 C33.8750147,15.9455439 34.8066406,16.512283 35.82,16.5 L37,16.5 C37.24,16.5 38,16.5 38,17.69 L37,23.03 C36.8651873,23.6336413 36.3180254,24.0545351 35.7,24.03 C34.6674378,24.0399386 33.7346861,24.648764 33.31,25.59 C32.3626032,27.3881623 30.9590002,28.9055709 29.24,29.99 L29,30.16 C28.3620677,30.6694524 27.9934106,31.4436325 28,32.26 L28,36.03 L24.5,36.03 L24.5,33.75 C24.4893074,32.7863231 23.7136004,32.0061834 22.75,31.99 L12.75,31.99 C11.7863996,32.0061834 11.0106926,32.7863231 11,33.75 L11,35.98 L7.5,35.98 L7.5,32.58 C7.50260371,31.5766952 7.00348645,30.6385048 6.17,30.08 C3.29,28.08 1.5,24.16 1.5,19.75 C1.5,14.08 4.75,9.67 9.75,8.5 C10.1530055,8.405885 10.4036134,8.00312234 10.31,7.6 C10.215885,7.19699447 9.81312234,6.94638659 9.41,7.04 C3.75,8.35 0,13.46 0,19.75 C0,24.65 2,29.09 5.33,31.32 C5.74752262,31.6037494 5.99820794,32.0751875 6,32.58 L6,36.75 C6.00538581,37.1619621 6.33803794,37.4946142 6.75,37.5 L11.75,37.5 C12.1619621,37.4946142 12.4946142,37.1619621 12.5,36.75 L12.5,33.75 C12.5,33.6008831 12.6208831,33.48 12.77,33.48 L22.75,33.48 C22.8212027,33.4815326 22.8891456,33.5101401 22.94,33.56 C22.9913553,33.6139231 23.02,33.6855348 23.02,33.76 L23.02,36.76 C23.02,37.1742136 23.3557864,37.51 23.77,37.51 L28.77,37.51 C29.1819621,37.5046142 29.5146142,37.1719621 29.52,36.76 L29.52,32.23 C29.5223222,31.8764503 29.6885535,31.5439876 29.97,31.33 L30.2,31.15 C32.1317613,29.91757 33.6991468,28.1913745 34.74,26.15 C34.9366992,25.7228762 35.3699991,25.4550181 35.84,25.47 C37.1329496,25.4718975 38.2526046,24.5728436 38.53,23.31 L39.53,17.85 C39.5349577,17.8068085 39.5349577,17.7631915 39.53,17.72 C39.6023196,17.0122207 39.3659295,16.3076303 38.8813721,15.7866833 C38.3968148,15.2657363 37.7111554,14.9790323 37,15 Z M7.11,12.21 C5.18109325,14.1369489 4.07055707,16.7341706 4.01,19.46 C3.99912594,19.6596669 4.06951971,19.8552355 4.20515046,20.0021688 C4.34078122,20.1491021 4.53010252,20.2348915 4.73,20.24 L4.75,20.24 C5.15073084,20.2352808 5.47893523,19.9202046 5.5,19.52 C5.54192325,17.1772843 6.48784698,14.9414646 8.14,13.28 C8.42829007,12.9815888 8.42829007,12.5084112 8.14,12.21 C7.85094632,11.9369724 7.39905368,11.9369724 7.11,12.21 Z M31.5,16.75 L31.5,14.75 C31.5,14.3357864 31.1642136,14 30.75,14 C30.3357864,14 30,14.3357864 30,14.75 L30,16.75 C30,17.1642136 30.3357864,17.5 30.75,17.5 C31.1642136,17.5 31.5,17.1642136 31.5,16.75 Z" id="Shape"></path>
            </g>
        </g>
    </g>
</svg>