<?xml version="1.0" encoding="UTF-8"?>
<svg width="36px" height="36px" viewBox="0 0 36 36" version="1.1" xmlns="http://www.w3.org/2000/svg" xmlns:xlink="http://www.w3.org/1999/xlink">
    <title>D3B6A279-5371-4BA7-9334-ADA7CA3F3425</title>
    <g id="Review-&amp;-Submit" stroke="none" stroke-width="1" fill="none" fill-rule="evenodd">
        <g id="Review_Submit_Modal" transform="translate(-702.000000, -203.000000)">
            <g id="Group-5" transform="translate(491.000000, 163.000000)">
                <g id="policy-24px" transform="translate(211.000000, 40.000000)">
                    <rect id="Rectangle" x="0" y="0" width="36" height="36"></rect>
                    <path d="M17.5,2 L4,8 L4,17 C4,25.325 9.76,33.11 17.5,35 C25.24,33.11 31,25.325 31,17 L31,8 L17.5,2 Z M28,17 C28,19.775 27.235,22.475 25.93,24.815 L23.755,22.64 C25.69,19.73 25.36,15.77 22.795,13.205 C19.87,10.28 15.115,10.28 12.19,13.205 C9.265,16.13 9.265,20.885 12.19,23.81 C14.755,26.375 18.715,26.69 21.625,24.77 L24.205,27.35 C22.42,29.48 20.11,31.115 17.5,31.91 C11.47,30.035 7,23.78 7,17 L7,9.95 L17.5,5.285 L28,9.95 L28,17 Z M17.5,23 C15.01,23 13,20.99 13,18.5 C13,16.01 15.01,14 17.5,14 C19.99,14 22,16.01 22,18.5 C22,20.99 19.99,23 17.5,23 Z" id="Shape" fill="#F16322" fill-rule="nonzero"></path>
                </g>
            </g>
        </g>
    </g>
</svg>