<?xml version="1.0" encoding="UTF-8"?>
<svg width="37px" height="35px" viewBox="0 0 37 35" version="1.1" xmlns="http://www.w3.org/2000/svg" xmlns:xlink="http://www.w3.org/1999/xlink">
    <title>8BC2D3FC-37AE-4ED0-8A82-8AA75F7D589E</title>
    <g id="Signatures" stroke="none" stroke-width="1" fill="none" fill-rule="evenodd">
        <g id="Signatures_01.5" transform="translate(-701.000000, -523.000000)" stroke="#F16322" stroke-width="1.51875">
            <g id="Group-5" transform="translate(490.000000, 483.000000)">
                <g id="iconfinder_Legal_documents-16_1837649" transform="translate(211.000000, 42.000000)">
                    <polyline id="Path" points="36.45 19.44 29.615625 19.44 29.615625 6.530625 36.45 6.6065625"></polyline>
                    <g id="Group" transform="translate(8.201250, 0.000000)">
                        <path d="M17.01,4.1765625 L17.8453125,2.9615625 C18.3009375,2.278125 18.1490625,1.2909375 17.465625,0.8353125 L16.250625,0 L14.5040625,2.5059375 L17.01,4.1765625 Z" id="Path"></path>
                        <path d="M2.8096875,18.680625 L2.278125,19.44 C1.1390625,21.110625 0.3796875,23.0090625 0.0759375,24.9834375 L0,25.2871875 L0.30375,25.1353125 C2.0503125,24.148125 3.5690625,22.78125 4.7840625,21.110625 L5.315625,20.35125" id="Path"></path>
                        <polyline id="Path" points="8.4290625 15.946875 17.01 4.1765625 14.5040625 2.43 4.3284375 16.4784375"></polyline>
                    </g>
                    <path d="M29.919375,17.465625 L28.7803125,17.6934375 C27.945,17.8453125 27.1096875,18.3009375 26.5021875,18.9084375 L26.5021875,18.9084375 C25.7428125,19.6678125 24.755625,20.1234375 23.6925,20.199375 L12.6815625,20.503125 C12.0740625,20.503125 11.5425,20.199375 11.23875,19.6678125 L11.23875,19.6678125 C10.479375,18.3009375 11.390625,16.6303125 12.909375,16.4025 L17.6934375,15.7190625 C19.2121875,15.49125 20.5790625,14.6559375 21.414375,13.365 L21.414375,13.365" id="Path"></path>
                    <line x1="22.5534375" y1="7.8975" x2="30.07125" y2="8.049375" id="Path"></line>
                    <path d="M9.41625,21.2625 L8.960625,20.199375 C8.505,19.13625 8.656875,17.9971875 9.1884375,17.01 L12.909375,10.8590625 C14.2003125,8.8846875 16.4025,7.745625 18.680625,7.8215625" id="Path"></path>
                    <line x1="5.315625" y1="25.515" x2="0" y2="25.515" id="Path"></line>
                    <polyline id="Path" points="0 31.59 18.984375 31.59 18.984375 25.515 12.15 25.515"></polyline>
                    <line x1="31.89375" y1="17.161875" x2="33.4125" y2="17.161875" id="Path"></line>
                </g>
            </g>
        </g>
    </g>
</svg>