<?xml version="1.0" encoding="UTF-8"?>
<svg width="24px" height="23px" viewBox="0 0 24 23" version="1.1" xmlns="http://www.w3.org/2000/svg" xmlns:xlink="http://www.w3.org/1999/xlink">
    <title>77248148-A08A-4F17-9B40-B275ED0E8B4F</title>
    <g id="Main" stroke="none" stroke-width="1" fill="none" fill-rule="evenodd">
        <g id="ICB_01" transform="translate(-331.000000, -768.000000)" fill="#F16322" fill-rule="nonzero">
            <path d="M349.717793,767.270025 C349.45531,767.011301 349.065649,766.930244 348.721766,767.062834 L326.60367,775.538859 C326.222513,775.685479 325.979284,776.061044 326.001391,776.46883 C326.023497,776.876616 326.3059,777.223687 326.700674,777.328243 L335.912607,779.756342 L339.78681,775.882421 C340.023467,775.638471 340.373208,775.54096 340.701945,775.627274 C341.030683,775.713587 341.28741,775.970332 341.3737,776.299076 C341.45999,776.627819 341.362455,776.977553 341.118488,777.214193 L337.272444,781.06099 L340.020372,790.663103 C340.132439,791.055718 340.485141,791.33109 340.893214,791.344576 C340.904233,791.345518 340.91431,791.345518 340.925329,791.345518 C341.321826,791.345518 341.675947,791.097457 341.811074,790.724696 L349.944009,768.263227 C350.069083,767.916394 349.980731,767.528483 349.717793,767.270025 Z" id="Path" transform="translate(338.000000, 779.172759) rotate(45.000000) translate(-338.000000, -779.172759) "></path>
        </g>
    </g>
</svg>