<?xml version="1.0" encoding="UTF-8"?>
<svg width="18px" height="18px" viewBox="0 0 18 18" version="1.1" xmlns="http://www.w3.org/2000/svg" xmlns:xlink="http://www.w3.org/1999/xlink">
    <title>EDF89365-09E3-4B50-964A-23067F7EA9B0</title>
    <g id="Driver-Details" stroke="none" stroke-width="1" fill="none" fill-rule="evenodd">
        <g id="Violations_Hover" transform="translate(-955.000000, -1880.000000)" fill="#777777" fill-rule="nonzero">
            <g id="Delete" transform="translate(955.000000, 1880.000000)">
                <polygon id="Fill-6" points="5.40865385 5.5875 6.70673077 5.5875 6.70673077 14.5875 5.40865385 14.5875"></polygon>
                <polygon id="Fill-7" points="8.00480769 5.5875 9.30288462 5.5875 9.30288462 14.5875 8.00480769 14.5875"></polygon>
                <polygon id="Fill-8" points="10.6009615 5.5875 11.8990385 5.5875 11.8990385 14.5875 10.6009615 14.5875"></polygon>
                <polygon id="Fill-9" points="0.216346154 2.2125 17.0913462 2.2125 17.0913462 3.3375 0.216346154 3.3375"></polygon>
                <path d="M11.8557692,2.775 L10.6442308,2.775 L10.6442308,1.65 C10.6442308,1.3125 10.3413462,1.05 9.95192308,1.05 L7.35576923,1.05 C6.96634615,1.05 6.66346154,1.3125 6.66346154,1.65 L6.66346154,2.775 L5.45192308,2.775 L5.45192308,1.65 C5.45192308,0.75 6.31730769,0 7.35576923,0 L9.95192308,0 C10.9903846,0 11.8557692,0.75 11.8557692,1.65 L11.8557692,2.775" id="Fill-10"></path>
                <path d="M12.5480769,17.9625 L4.75961538,17.9625 C3.72115385,17.9625 2.8125,17.2125 2.72596154,16.3125 L1.51442308,2.8125 L2.8125,2.7375 L4.02403846,16.2375 C4.06730769,16.575 4.41346154,16.8375 4.75961538,16.8375 L12.5480769,16.8375 C12.9375,16.8375 13.2836538,16.5375 13.2836538,16.2375 L14.4951923,2.7375 L15.7932692,2.8125 L14.5817308,16.3125 C14.4951923,17.25 13.5865385,17.9625 12.5480769,17.9625" id="Fill-11"></path>
            </g>
        </g>
    </g>
</svg>