<?xml version="1.0" encoding="UTF-8"?>
<svg width="60px" height="60px" viewBox="6 4 50 50" version="1.1" xmlns="http://www.w3.org/2000/svg" xmlns:xlink="http://www.w3.org/1999/xlink">
    <!-- Generator: sketchtool 63.1 (101010) - https://sketch.com -->
    <title>83195311-CC75-4ECD-9B8E-56A494ADCEC9</title>
    <desc>Created with sketchtool.</desc>
    <g id="Styleguide" stroke="none" stroke-width="1" fill="none" fill-rule="evenodd">
        <g transform="translate(-952.000000, -5089.000000)">
            <g id="Components" transform="translate(80.000000, 2634.000000)" fill-rule="nonzero">
                <g id="Cards" transform="translate(1.000000, 618.000000)">
                    <g id="Driver-Rate-Card" transform="translate(0.000000, 1633.000000)">
                        <g id="Driver-Card-/-Avatar-/-Young-Male" transform="translate(871.000000, 204.000000)">
                            <g id="iconfinder_avatar_cute_panda_kid_style_smile_costume-09_1975148" transform="translate(7.000000, 7.000000)">
                                <path d="M23.5002474,45.1554375 L23.5002474,28.4963995 C12.7523042,28.4963995 4.03948694,35.900229 4.03948694,45.031956 C4.03948694,45.0740999 4.04285845,45.1141365 4.04370133,45.1554375 L23.5002474,45.1554375 Z" id="Path" fill="#414042"></path>
                                <path d="M42.9567934,45.1554375 C42.9576363,45.1141365 42.9610078,45.0740999 42.9610078,45.031956 C42.9610078,35.900229 34.2481906,28.4963995 23.5002474,28.4963995 L23.5002474,45.1554375 L42.9567934,45.1554375 Z" id="Path" fill="#414042"></path>
                                <path d="M23.5002474,28.495978 C16.9789098,28.495978 11.2115254,31.2247916 7.68029317,35.4084104 C11.2115254,39.5916079 16.9789098,42.32 23.5002474,42.32 C30.021585,42.32 35.7889693,39.5911864 39.3202016,35.4084104 C35.7889693,31.2247916 30.0211635,28.495978 23.5002474,28.495978 Z" id="Path" fill="#A7A9AC"></path>
                                <circle id="Oval" fill="#000000" cx="6.90147503" cy="6.08852038" r="5.5419148"></circle>
                                <circle id="Oval" fill="#414042" cx="6.90147503" cy="6.08852038" r="2.7852863"></circle>
                                <circle id="Oval" fill="#000000" cx="40.1630783" cy="6.08852038" r="5.5419148"></circle>
                                <circle id="Oval" fill="#414042" cx="40.1630783" cy="6.08852038" r="2.7852863"></circle>
                                <ellipse id="Oval" fill="#E6E7E8" cx="23.5002474" cy="20.0275951" rx="23.0973523" ry="19.6259643"></ellipse>
                                <path d="M23.5002474,0.401630783 C36.2567659,0.401630783 46.5975996,9.18862116 46.5975996,20.0280165 C46.5975996,30.8669904 36.2567659,39.6535593 23.5002474,39.6535593 L23.5002474,0.401630783 L23.5002474,0.401630783 Z" id="Path" fill="#BCBEC0"></path>
                                <circle id="Oval" fill="#D1D3D4" cx="23.5002474" cy="26.1932387" r="8.00732936"></circle>
                                <path d="M26.0288777,20.9172515 C26.0288777,21.8102794 24.8964727,22.5338891 23.5002474,22.5338891 C22.104022,22.5338891 20.971617,21.8102794 20.971617,20.9172515 C20.971617,20.0250664 26.0288777,20.0250664 26.0288777,20.9172515 Z" id="Path" fill="#000000"></path>
                                <circle id="Oval" fill="#000000" cx="12.8336418" cy="15.7133303" r="6.41766377"></circle>
                                <circle id="Oval" fill="#000000" cx="34.0732936" cy="15.7133303" r="6.41766377"></circle>
                                <path d="M23.5002474,26.7908383 C23.1512964,26.7908383 22.8680898,26.5076317 22.8680898,26.1586807 L22.8680898,21.3913697 C22.8680898,21.0424187 23.1512964,20.7592121 23.5002474,20.7592121 C23.8491984,20.7592121 24.1324049,21.0424187 24.1324049,21.3913697 L24.1324049,26.1586807 C24.1324049,26.5076317 23.8491984,26.7908383 23.5002474,26.7908383 Z" id="Path" fill="#000000"></path>
                                <g id="Group" transform="translate(10.535960, 13.064590)" fill="#000000" stroke="#FFFFFF" stroke-width="0.842876775">
                                    <circle id="Oval" cx="2.49828676" cy="2.86704535" r="2.45825011"></circle>
                                    <circle id="Oval" cx="23.4298672" cy="2.86704535" r="2.45825011"></circle>
                                </g>
                                <g id="Group" transform="translate(18.121851, 24.021988)">
                                    <path d="M5.3783967,0.365387082 C5.3783967,0.365387082 5.17315621,2.72544205 3.01792029,2.72544205 C0.862684379,2.72544205 0.418909757,0.365387082 0.418909757,0.365387082 C0.418909757,0.365387082 -0.544498397,8.43761796 5.3783967,8.43761796 L5.3783967,0.365387082 Z" id="Path" fill="#000000"></path>
                                    <path d="M5.3783967,0.365387082 C5.3783967,0.365387082 5.5836372,2.72544205 7.73887311,2.72544205 C9.89410902,2.72544205 10.3383051,0.365387082 10.3383051,0.365387082 C10.3383051,0.365387082 11.3012918,8.43761796 5.3783967,8.43761796 L5.3783967,0.365387082 Z" id="Path" fill="#000000"></path>
                                    <path d="M9.24551535,6.41934952 C8.50673385,5.26207971 7.31027027,4.40108108 5.3783967,4.40108108 L5.3783967,8.43761796 C7.31027027,8.43761796 8.50673385,7.57704077 9.24551535,6.41934952 Z" id="Path" fill="#F16F8E"></path>
                                    <path d="M1.51127806,6.41934952 C2.25005955,7.57661933 3.44652313,8.43761796 5.3783967,8.43761796 L5.3783967,4.40108108 C3.44652313,4.40108108 2.25005955,5.26207971 1.51127806,6.41934952 Z" id="Path" fill="#CF5777"></path>
                                </g>
                                <path d="M23.5002474,0.357379753 C23.5002474,0.357379753 13.174164,-0.590856619 6.00296839,7.85434723 C6.00296839,7.85434723 6.72489235,11.4142373 13.174164,6.36287678 C13.174164,6.36287678 10.4626294,14.3702061 16.758076,6.67895557 C16.758076,6.67895557 16.5144847,14.5809253 20.7849198,6.88967476 C20.7849198,6.88967476 20.3651672,11.6308566 23.5002474,11.6308566 C26.6353275,11.6308566 26.2155749,6.88967476 26.2155749,6.88967476 C30.4860101,14.5809253 30.2424187,6.67895557 30.2424187,6.67895557 C36.5378653,14.3702061 33.8263307,6.36287678 33.8263307,6.36287678 C40.2756024,11.4142373 40.9975263,7.85434723 40.9975263,7.85434723 C33.8263307,-0.590856619 23.5002474,0.357379753 23.5002474,0.357379753 Z" id="Path" fill="#2E3192"></path>
                            </g>
                        </g>
                    </g>
                </g>
            </g>
        </g>
    </g>
</svg>
