<?xml version="1.0" encoding="UTF-8"?>
<svg width="60px" height="60px" viewBox="6 4 50 50" version="1.1" xmlns="http://www.w3.org/2000/svg" xmlns:xlink="http://www.w3.org/1999/xlink">
    <!-- Generator: sketchtool 63.1 (101010) - https://sketch.com -->
    <title>7CBFC014-8B1F-4FA5-99FD-EBA72C636BF0</title>
    <desc>Created with sketchtool.</desc>
    <g id="Styleguide" stroke="none" stroke-width="1" fill="none" fill-rule="evenodd">
        <g transform="translate(-845.000000, -5089.000000)">
            <g id="Components" transform="translate(80.000000, 2634.000000)" fill-rule="nonzero">
                <g id="Cards" transform="translate(1.000000, 618.000000)">
                    <g id="Driver-Rate-Card" transform="translate(0.000000, 1633.000000)">
                        <g id="Driver-Card-/-Avatar-/-Young-Female" transform="translate(764.000000, 204.000000)">
                            <g id="iconfinder_avatar_cute_panda_kid_style_smile_costume-26_1975150" transform="translate(0.000000, 7.000000)">
                                <path d="M29.8625532,45.7153191 L29.8625532,28.8944681 C19.0102128,28.8940426 10.212766,36.3702128 10.212766,45.5906383 C10.212766,45.6331915 10.2161702,45.673617 10.2170213,45.7153191 L29.8625532,45.7153191 Z" id="Path" fill="#BE1E2D"></path>
                                <path d="M49.5080851,45.7153191 C49.5089362,45.673617 49.5123404,45.6331915 49.5123404,45.5906383 C49.5123404,36.3702128 40.7148936,28.8944681 29.8625532,28.8944681 L29.8625532,45.7153191 L49.5080851,45.7153191 Z" id="Path" fill="#BE1E2D"></path>
                                <path d="M29.8625532,28.8940426 C23.2778723,28.8940426 17.4544681,31.6493617 13.8889362,35.873617 C17.4544681,40.0974468 23.2778723,42.8523404 29.8625532,42.8523404 C36.447234,42.8523404 42.2706383,40.0970213 45.8361702,35.873617 C42.2706383,31.6493617 36.4468085,28.8940426 29.8625532,28.8940426 Z" id="Path" fill="#009444"></path>
                                <circle id="Oval" fill="#000000" cx="13.2238298" cy="5.86765957" r="5.59574468"></circle>
                                <circle id="Oval" fill="#414042" cx="13.2238298" cy="5.86765957" r="2.81234043"></circle>
                                <circle id="Oval" fill="#000000" cx="46.8085106" cy="5.86765957" r="5.59574468"></circle>
                                <circle id="Oval" fill="#414042" cx="46.8085106" cy="5.86765957" r="2.81234043"></circle>
                                <ellipse id="Oval" fill="#E6E7E8" cx="29.9838298" cy="19.9421277" rx="23.3217021" ry="19.8165957"></ellipse>
                                <path d="M29.9838298,0.125531915 C42.8642553,0.125531915 53.3055319,8.99787234 53.3055319,19.9425532 C53.3055319,30.8868085 42.8642553,39.7587234 29.9838298,39.7587234 L29.9838298,0.125531915 Z" id="Path" fill="#BCBEC0"></path>
                                <circle id="Oval" fill="#D1D3D4" cx="29.9838298" cy="26.1676596" r="8.08510638"></circle>
                                <path d="M32.5370213,20.8404255 C32.5370213,21.7421277 31.393617,22.472766 29.9838298,22.472766 C28.5740426,22.472766 27.4306383,21.7421277 27.4306383,20.8404255 C27.4306383,19.9391489 32.5370213,19.9391489 32.5370213,20.8404255 Z" id="Path" fill="#000000"></path>
                                <circle id="Oval" fill="#000000" cx="19.213617" cy="15.5859574" r="6.48"></circle>
                                <circle id="Oval" fill="#000000" cx="40.6595745" cy="15.5859574" r="6.48"></circle>
                                <path d="M29.9838298,26.7710638 C29.6314894,26.7710638 29.3455319,26.4851064 29.3455319,26.132766 L29.3455319,21.3191489 C29.3455319,20.9668085 29.6314894,20.6808511 29.9838298,20.6808511 C30.3361702,20.6808511 30.6221277,20.9668085 30.6221277,21.3191489 L30.6221277,26.132766 C30.6221277,26.4851064 30.3361702,26.7710638 29.9838298,26.7710638 Z" id="Path" fill="#000000"></path>
                                <g id="Group" transform="translate(16.595745, 13.191489)" fill="#000000" stroke="#FFFFFF" stroke-width="0.85106383">
                                    <circle id="Oval" cx="2.82042553" cy="2.61489362" r="2.48212766"></circle>
                                    <circle id="Oval" cx="23.9553191" cy="2.61489362" r="2.48212766"></circle>
                                </g>
                                <g id="Group" transform="translate(24.680851, 24.255319)">
                                    <path d="M5.30297872,0.0889361702 C5.30297872,0.0889361702 5.09574468,2.47191489 2.91957447,2.47191489 C0.743404255,2.47191489 0.295319149,0.0889361702 0.295319149,0.0889361702 C0.295319149,0.0889361702 -0.677446809,8.23957447 5.30297872,8.23957447 L5.30297872,0.0889361702 Z" id="Path" fill="#000000"></path>
                                    <path d="M5.30297872,0.0889361702 C5.30297872,0.0889361702 5.51021277,2.47191489 7.68638298,2.47191489 C9.86255319,2.47191489 10.3110638,0.0889361702 10.3110638,0.0889361702 C10.3110638,0.0889361702 11.2834043,8.23957447 5.30297872,8.23957447 L5.30297872,0.0889361702 Z" id="Path" fill="#000000"></path>
                                    <path d="M9.20765957,6.20170213 C8.46170213,5.03319149 7.25361702,4.16382979 5.30297872,4.16382979 L5.30297872,8.23957447 C7.25361702,8.23957447 8.46170213,7.37021277 9.20765957,6.20170213 Z" id="Path" fill="#F16F8E"></path>
                                    <path d="M1.39829787,6.20170213 C2.14425532,7.37021277 3.35234043,8.23957447 5.30297872,8.23957447 L5.30297872,4.16382979 C3.35234043,4.16382979 2.14425532,5.03319149 1.39829787,6.20170213 Z" id="Path" fill="#CF5777"></path>
                                </g>
                                <g id="Group" fill="#754C29">
                                    <path d="M13.4255319,7.37914894 C13.4255319,7.37914894 10.6629787,-0.399148936 6.33234043,1.95276596 C2.00170213,4.30468085 0.235744681,6.60212766 0.75787234,15.666383 C1.28,24.7306383 4.16680851,28.312766 2.18212766,31.6280851 L0.26,32.733617 C0.26,32.733617 3.08425532,34.353617 4.34680851,32.733617 C5.61021277,31.113617 7.26978723,29.72 7.97361702,23.5017021 C8.67744681,17.2842553 9.78723404,11.8834043 11.8480851,10.2221277 C13.9102128,8.56 13.4255319,7.37914894 13.4255319,7.37914894 Z" id="Path"></path>
                                    <path d="M45.4834043,6.04085106 C45.4834043,6.04085106 48.4689362,-1.73744681 53.1476596,0.614468085 C57.8268085,2.96638298 59.7348936,5.26382979 59.1706383,14.3280851 C58.606383,23.3923404 55.487234,26.9744681 57.6319149,30.2897872 L59.7085106,31.3953191 C59.7085106,31.3953191 56.6570213,33.0153191 55.2923404,31.3953191 C53.9276596,29.7753191 52.1340426,28.3817021 51.373617,22.1634043 C50.6131915,15.9459574 49.4144681,10.5451064 47.1868085,8.88382979 C44.9591489,7.22212766 45.4834043,6.04085106 45.4834043,6.04085106 Z" id="Path"></path>
                                    <path d="M12.5906383,6.7906383 L20.3944681,7.68255319 L21.6604255,5.1293617 L23.5161702,7.68255319 L29.8625532,7.68255319 L29.9,0.254042553 C29.9,0.254042553 19.8238298,-0.697021277 12.5906383,6.7906383 Z" id="Path"></path>
                                    <path d="M29.8625532,7.68255319 L35.3608511,7.68255319 L36.1723404,5.55489362 L37.8455319,7.68255319 L48.0965957,7.68255319 C48.0965957,7.68255319 42.9595745,0.272340426 29.9,0.254042553 L29.8625532,7.68255319 Z" id="Path"></path>
                                </g>
                                <path d="M40.3893617,7.29957447 C36.4468085,7.29957447 33.1446809,10.0697872 32.3119149,13.7646809 L27.4885106,13.7646809 C26.6553191,10.0693617 23.352766,7.29957447 19.4106383,7.29957447 C14.8421277,7.29957447 11.1246809,11.0165957 11.1246809,15.586383 C11.1246809,20.1548936 14.8417021,23.8723404 19.4106383,23.8723404 C23.9038298,23.8723404 27.5646809,20.2753191 27.6851064,15.8110638 L32.1148936,15.8110638 C32.2353191,20.2753191 35.8961702,23.8723404 40.3893617,23.8723404 C44.9582979,23.8723404 48.6757447,20.1553191 48.6757447,15.586383 C48.6757447,11.0170213 44.9582979,7.29957447 40.3893617,7.29957447 Z M19.4102128,21.9804255 C15.8842553,21.9804255 13.0161702,19.1123404 13.0161702,15.586383 C13.0161702,12.0604255 15.8842553,9.19148936 19.4102128,9.19148936 C22.9361702,9.19148936 25.8042553,12.0604255 25.8042553,15.586383 C25.8042553,19.1123404 22.9361702,21.9804255 19.4102128,21.9804255 Z M40.3893617,21.9804255 C36.8634043,21.9804255 33.9948936,19.1123404 33.9948936,15.586383 C33.9948936,12.0604255 36.8634043,9.19148936 40.3893617,9.19148936 C43.9153191,9.19148936 46.7838298,12.0604255 46.7838298,15.586383 C46.7838298,19.1123404 43.9153191,21.9804255 40.3893617,21.9804255 Z" id="Shape" fill="#DA1C5C"></path>
                            </g>
                        </g>
                    </g>
                </g>
            </g>
        </g>
    </g>
</svg>
